<svg width="48" height="48" viewBox="0 0 48 48" fill="none" xmlns="http://www.w3.org/2000/svg">
<path d="M7.5 5C7.5 4.17157 8.17157 3.5 9 3.5H22.8421C24.2228 3.5 25.3421 4.61929 25.3421 6V16.5C25.3421 18.1569 26.6853 19.5 28.3421 19.5H38C39.3807 19.5 40.5 20.6193 40.5 22V43C40.5 43.8284 39.8284 44.5 39 44.5H9C8.17157 44.5 7.5 43.8284 7.5 43V5Z" stroke="url(#paint0_linear_122_925)" stroke-width="3"/>
<path d="M7.5 5C7.5 4.17157 8.17157 3.5 9 3.5H22.655C24.8673 3.5 26.9668 4.47675 28.3918 6.16898L38.7368 18.4537C39.8755 19.8059 40.5 21.5169 40.5 23.2847V43C40.5 43.8284 39.8284 44.5 39 44.5H9C8.17157 44.5 7.5 43.8284 7.5 43V5Z" stroke="url(#paint1_linear_122_925)" stroke-width="3"/>
<defs>
<linearGradient id="paint0_linear_122_925" x1="47.0186" y1="52.7419" x2="-41.5249" y2="47.1855" gradientUnits="userSpaceOnUse">
<stop stop-color="#BE8D34"/>
<stop offset="1" stop-color="#FEE3B2"/>
</linearGradient>
<linearGradient id="paint1_linear_122_925" x1="47.0186" y1="52.7419" x2="-41.5249" y2="47.1855" gradientUnits="userSpaceOnUse">
<stop stop-color="#BE8D34"/>
<stop offset="1" stop-color="#FEE3B2"/>
</linearGradient>
</defs>
</svg>
