<svg width="359" height="166" viewBox="0 0 359 166" fill="none" xmlns="http://www.w3.org/2000/svg">
<path fill-rule="evenodd" clip-rule="evenodd" d="M31.7921 0.971011C31.2809 2.30252 7.48076 94.4932 7.61615 94.6154C7.68671 94.6796 10.4954 94.2184 13.8572 93.5902L19.9703 92.4492L26.1913 67.4941C33.5057 38.1551 32.8844 37.9767 33.5475 69.6099C33.7759 80.4954 34.0306 89.4746 34.1138 89.563C34.1975 89.6519 39.3991 88.8028 45.6734 87.6767C67.5885 83.7424 77.7311 81.6158 78.3071 80.8327C78.6226 80.4042 83.3985 71.5317 88.9201 61.1171C94.4417 50.702 99.0168 42.2357 99.0874 42.3028C99.1574 42.3699 97.0623 50.671 94.4309 60.75C91.8 70.8289 89.7043 79.1461 89.7743 79.2316C90.0078 79.5179 124.768 72.9952 125.17 72.5901C125.387 72.371 129.717 56.444 134.793 37.1971C139.868 17.9502 144.162 1.7472 144.335 1.19073C144.632 0.236129 143.616 0.187366 126.5 0.330212L108.351 0.481663L88.2661 37.4839C77.2199 57.8351 67.943 74.7317 67.651 75.0311C67.3257 75.365 67.1203 60.9955 67.1203 37.8855V0.194824H49.6054C35.412 0.194824 32.0336 0.34226 31.7921 0.971011ZM312.368 0.605004C294.916 3.01789 277.163 16.9824 266.367 36.7886C264.935 39.4149 263.903 41.7022 264.073 41.8725C264.323 42.1221 279.715 39.3369 298.142 35.7072C300.897 35.1645 301.265 34.8915 302.948 32.1424C308.049 23.8143 315.876 15.5625 321.299 12.7957C329.803 8.45751 336.506 13.4376 337.713 24.9915C338.025 27.9763 338.172 28.2597 339.268 28.0016C339.934 27.8455 343.783 27.1043 347.823 26.3545C351.864 25.6053 355.312 24.8492 355.487 24.6742C355.9 24.2606 352.332 18.4825 349.404 14.8236C340.92 4.22434 326.428 -1.33976 312.368 0.605004ZM163.838 2.9198C163.009 5.58912 148.009 65.2362 148.009 65.8597C148.009 66.4024 149.724 66.2596 155.036 65.2763C162.87 63.8266 167.996 62.8703 201.074 56.6912C213.695 54.3334 225.699 52.1236 227.75 51.78C233.341 50.8443 238.213 49.125 241.101 47.0683C246.409 43.2884 251.239 35.7795 252.434 29.4524C254.767 17.104 243.409 4.4693 228.201 2.49413C225.902 2.19581 210.55 1.94339 194.085 1.93364C166.067 1.917 164.129 1.98011 163.838 2.9198ZM209.586 11.2789C213.064 12.7744 215.908 15.3468 217.74 18.6535C219.313 21.4938 219.431 22.1294 219.427 27.7314C219.422 33.0035 219.237 34.1485 217.941 36.9102C215.025 43.1232 210.495 46.758 201.168 50.3681C196.135 52.3164 184.104 55.9856 183.787 55.6695C183.704 55.5857 183.877 54.4935 184.171 53.2417C184.466 51.9894 186.662 42.1881 189.049 31.4603C191.438 20.7325 193.534 11.4728 193.708 10.883C193.999 9.89457 194.55 9.8309 200.704 10.0713C205.128 10.2439 208.128 10.6518 209.586 11.2789ZM276.089 49.5076C267.494 50.986 260.297 52.3611 260.095 52.5625C259.28 53.3788 257.531 62.284 256.901 68.8337C254.559 93.1846 264.914 115.411 282.511 123.805C288.445 126.636 291.457 127.457 297.659 127.935C306.605 128.625 319.333 124.946 327.139 119.413L328.716 118.295L329.23 119.625C329.512 120.356 330.186 122.052 330.727 123.392L331.71 125.83H337.537H343.363L351.054 90.1189C355.283 70.4773 358.857 54.085 358.995 53.6903C359.192 53.1241 354.066 52.9732 334.591 52.9732H309.937L308.428 58.4151C307.597 61.408 306.918 63.9895 306.918 64.1519C306.918 64.3143 311.565 64.4468 317.244 64.4468H327.57V68.8193C327.57 71.2242 327.17 75.8865 326.681 79.1805C323.474 100.78 313.232 116.655 302.451 116.739C294.91 116.797 288.849 109.15 286.182 96.2085C285.194 91.4217 285.054 89.0461 285.267 80.7966C285.593 68.2176 287.21 60.828 291.89 50.5351C293.382 47.2536 293.503 46.6748 292.683 46.7413C292.151 46.7844 284.683 48.0293 276.089 49.5076ZM225.742 61.9668C224.222 62.3047 208.191 65.309 201.557 66.4994L196.302 67.4419L198.197 69.1056C200.833 71.4193 204.579 78.8719 205.43 83.4952C207.825 96.4907 197.817 111.021 183.616 115.168C181.75 115.713 178.34 116.078 175.116 116.078C170.252 116.078 169.761 115.981 170.042 115.074C170.516 113.537 180.135 71.2512 180.135 70.7022C180.135 70.4366 179.813 70.3189 179.418 70.4406C179.024 70.5622 171.214 72.0222 162.064 73.6841C152.914 75.3461 145.344 76.7636 145.242 76.8336C145.091 76.9369 132.546 125.722 132.526 126.285C132.522 126.377 148.719 126.371 168.518 126.272L204.516 126.091L210.095 124.564C222.819 121.078 232.146 113.791 237.107 103.457C240.36 96.6806 241.208 92.4698 240.781 85.2076C240.318 77.3413 237.795 70.6913 232.946 64.5563C230.526 61.4958 229.508 61.1292 225.742 61.9668ZM104.148 86.18L86.9621 89.4362L82.4961 106.629C80.039 116.085 78.0271 124.145 78.0248 124.54C78.0214 125.097 81.721 125.257 94.623 125.257C103.755 125.257 111.36 125.04 111.523 124.776C111.686 124.512 114.16 115.412 117.02 104.554C119.88 93.6963 122.361 84.3609 122.532 83.8084C122.725 83.19 122.554 82.8274 122.088 82.8641C121.673 82.8968 113.6 84.389 104.148 86.18ZM59.9494 94.3211C53.3234 95.5189 45.0773 97.0323 41.6244 97.6834C38.172 98.3345 35.1384 98.8675 34.8836 98.8675C34.3266 98.8675 34.2859 107.898 34.7982 117.942L35.1716 125.257H45.0429H54.9142L62.2464 111.345C66.2793 103.693 70.1912 96.2968 70.9399 94.9079C71.688 93.5191 72.2318 92.3287 72.1486 92.2627C72.0649 92.1967 66.5753 93.1232 59.9494 94.3211ZM10.1834 103.425C7.42282 103.968 5.07648 104.52 4.9692 104.651C4.60721 105.095 0 123.331 0 124.319C0 125.187 0.658009 125.278 5.8802 125.133L11.7604 124.97L14.436 114.644C15.9075 108.964 17.1335 103.866 17.161 103.313C17.2201 102.115 16.8174 102.121 10.1834 103.425ZM133.505 141.946C126.178 143.671 121.066 149.306 121.052 155.671C121.032 164.528 132.001 168.265 145.273 163.923C147.736 163.117 148.046 162.812 148.612 160.639C148.957 159.321 149.607 156.97 150.058 155.414C150.508 153.858 150.877 152.503 150.877 152.402C150.877 152.004 137.16 152.248 136.924 152.65C136.784 152.887 136.491 153.919 136.27 154.945L135.87 156.809H138.498C140.727 156.809 141.125 156.98 141.125 157.936C141.125 159.487 139.189 160.384 135.84 160.384C133.668 160.384 132.688 160.072 131.568 159.026C130.293 157.836 130.145 157.305 130.357 154.699C130.906 147.97 137.718 144.23 142.055 148.277C143.137 149.286 143.757 149.368 147.648 149.016C150.055 148.798 152.025 148.398 152.025 148.126C152.025 147.855 151.092 146.602 149.953 145.341C146.735 141.778 140.065 140.401 133.505 141.946ZM227.598 141.944C220.539 143.607 215.129 149.839 215.129 156.308C215.129 157.015 215.684 158.74 216.362 160.141C217.378 162.238 218.161 162.948 220.808 164.168C225.363 166.265 232.429 166.256 236.959 164.147C242.698 161.475 246.071 156.796 246.095 151.474C246.111 148.155 245.025 145.881 242.512 143.963C239.375 141.571 232.901 140.694 227.598 141.944ZM170.777 152.363C169.263 158.122 167.879 163.413 167.702 164.123C167.388 165.381 167.497 165.414 171.988 165.414H176.595L177.607 161.124C178.163 158.764 178.798 156.542 179.018 156.186C179.92 154.726 181.959 156.467 184.496 160.866L187.119 165.414H191.659C194.155 165.414 196.198 165.276 196.198 165.108C196.198 164.336 193.243 159.089 191.927 157.525C190.152 155.416 190.115 155.088 191.646 155.088C194.264 155.088 197.57 152.434 198.513 149.575C199.024 148.029 198.954 147.281 198.144 145.573C196.597 142.313 194.92 141.893 183.448 141.893H173.53L170.777 152.363ZM267.127 144.905C263.958 155.978 263.771 159.685 266.247 162.328C268.954 165.216 274.855 166.465 281.07 165.464C288.786 164.221 290.855 161.766 293.988 150.131C295.105 145.985 296.018 142.435 296.018 142.243C296.018 142.051 293.983 141.893 291.496 141.893H286.974L285.068 149.208C282.719 158.217 281.503 159.841 277.308 159.566C273.069 159.288 272.82 158.411 274.786 150.669C275.684 147.135 276.586 143.714 276.791 143.068C277.146 141.951 276.939 141.893 272.576 141.893H267.989L267.127 144.905ZM315.495 144.331C314.504 148.075 310.351 163.278 310.01 164.41C309.741 165.308 310.195 165.414 314.292 165.414H318.876L319.462 163.55C319.784 162.524 320.32 160.626 320.653 159.332L321.258 156.979L326.395 156.646C335.107 156.082 339.044 153.382 339.044 147.972C339.044 145.111 337.907 143.453 335.255 142.444C334.458 142.141 329.831 141.893 324.973 141.893H316.141L315.495 144.331ZM188.98 146.831C190.201 147.3 190.135 149.757 188.883 150.403C187.637 151.046 181.052 151.797 180.601 151.348C180.419 151.166 180.53 149.997 180.846 148.75L181.422 146.483H184.747C186.576 146.483 188.481 146.639 188.98 146.831ZM235.698 147.827C239.54 150.876 235.063 160.251 229.765 160.251C227.212 160.251 224.994 159.214 224.549 157.812C223.86 155.641 224.904 151.66 226.7 149.615C229.155 146.819 233.372 145.981 235.698 147.827ZM329.531 146.831C330.79 147.314 330.667 149.54 329.315 150.764C328.696 151.324 327.018 151.914 325.586 152.075C323.273 152.336 322.981 152.241 322.981 151.232C322.981 150.607 323.264 149.283 323.611 148.289C324.169 146.688 324.49 146.483 326.432 146.483C327.637 146.483 329.032 146.639 329.531 146.831Z" fill="url(#paint0_linear_256_271)"/>
<defs>
<linearGradient id="paint0_linear_256_271" x1="179.5" y1="0.194824" x2="179.5" y2="336.359" gradientUnits="userSpaceOnUse">
<stop stop-color="#BE8D34"/>
<stop offset="1" stop-color="#FEE3B2"/>
</linearGradient>
</defs>
</svg>
