<svg width="247" height="114" viewBox="0 0 247 114" fill="none" xmlns="http://www.w3.org/2000/svg">
<path fill-rule="evenodd" clip-rule="evenodd" d="M24.3553 0.528149C24.0075 1.43416 7.81287 64.1644 7.905 64.2476C7.95301 64.2913 9.86418 63.9775 12.1517 63.55L16.3113 62.7736L20.5443 45.7932C25.5213 25.8297 25.0985 25.7083 25.5498 47.2328C25.7051 54.6398 25.8785 60.7496 25.9351 60.8097C25.992 60.8702 29.5314 60.2925 33.8007 59.5262C48.7126 56.8492 55.6141 55.4022 56.006 54.8693C56.2207 54.5777 59.4704 48.5405 63.2275 41.454C66.9847 34.3672 70.0977 28.6063 70.1458 28.652C70.1934 28.6977 68.7678 34.3461 66.9773 41.2042C65.1871 48.0623 63.7611 53.7217 63.8088 53.7799C63.9676 53.9746 87.6199 49.5363 87.8932 49.2607C88.0411 49.1116 90.9875 38.2742 94.441 25.1778C97.8945 12.0815 100.816 1.0563 100.934 0.677655C101.136 0.0281055 100.445 -0.00507458 88.7984 0.0921236L76.4488 0.195177L62.7825 25.373C55.2663 39.2208 48.9538 50.7179 48.7551 50.9217C48.5338 51.1489 48.3941 41.3713 48.3941 25.6463V0H36.4762C26.8184 0 24.5196 0.100321 24.3553 0.528149ZM215.27 0.279103C203.396 1.92093 191.316 11.4229 183.969 24.8999C182.996 26.6869 182.293 28.2433 182.409 28.3592C182.579 28.529 193.052 26.6339 205.59 24.1641C207.465 23.7948 207.716 23.609 208.861 21.7384C212.332 16.0717 217.657 10.4568 221.347 8.57412C227.134 5.62227 231.695 9.01093 232.517 16.8727C232.729 18.9037 232.828 19.0965 233.574 18.9208C234.027 18.8147 236.647 18.3103 239.396 17.8001C242.145 17.2903 244.492 16.7759 244.61 16.6568C244.892 16.3753 242.464 12.4437 240.471 9.95403C234.699 2.74185 224.838 -1.0442 215.27 0.279103ZM114.205 1.85418C113.641 3.6705 103.434 44.2568 103.434 44.6811C103.434 45.0504 104.601 44.9532 108.216 44.2841C113.546 43.2977 117.034 42.647 139.542 38.4425C148.13 36.8381 156.298 35.3345 157.693 35.1006C161.498 34.464 164.812 33.2941 166.777 31.8947C170.389 29.3226 173.676 24.2133 174.489 19.9081C176.077 11.5057 168.348 2.90853 158 1.56454C156.436 1.36155 145.99 1.1898 134.786 1.18316C115.722 1.17184 114.403 1.21478 114.205 1.85418ZM145.334 7.54203C147.7 8.55968 149.635 10.31 150.882 12.56C151.952 14.4927 152.033 14.9252 152.03 18.737C152.026 22.3243 151.9 23.1035 151.019 24.9827C149.034 29.2102 145.952 31.6835 139.605 34.14C136.181 35.4656 127.994 37.9623 127.779 37.7472C127.722 37.6902 127.84 36.947 128.04 36.0953C128.241 35.2431 129.735 28.5739 131.36 21.2743C132.985 13.9747 134.411 7.67397 134.529 7.27268C134.727 6.6001 135.102 6.55678 139.29 6.72033C142.3 6.83783 144.342 7.11537 145.334 7.54203ZM190.585 33.5544C184.736 34.5604 179.84 35.4961 179.702 35.6331C179.147 36.1885 177.957 42.248 177.529 46.7047C175.935 63.274 182.981 78.3979 194.955 84.1096C198.993 86.0356 201.042 86.5942 205.262 86.9197C211.349 87.3889 220.01 84.8856 225.322 81.1206L226.395 80.3602L226.744 81.2651C226.936 81.7624 227.395 82.9163 227.763 83.8285L228.432 85.4875H232.396H236.361L241.594 61.188C244.472 47.8231 246.903 36.6691 246.997 36.4005C247.132 36.0152 243.643 35.9126 230.392 35.9126H213.616L212.589 39.6155C212.024 41.6519 211.562 43.4085 211.562 43.519C211.562 43.6295 214.724 43.7197 218.588 43.7197H225.615V46.6949C225.615 48.3313 225.342 51.5037 225.01 53.7451C222.827 68.4419 215.858 79.2442 208.522 79.3012C203.391 79.3406 199.267 74.1376 197.452 65.3316C196.781 62.0745 196.685 60.458 196.83 54.8447C197.052 46.2854 198.152 41.2573 201.337 34.2536C202.352 32.0207 202.434 31.6269 201.876 31.6722C201.514 31.7014 196.433 32.5485 190.585 33.5544ZM156.327 42.0322C155.292 42.2621 144.384 44.3064 139.87 45.1163L136.295 45.7577L137.584 46.8897C139.377 48.464 141.926 53.5351 142.506 56.681C144.135 65.5237 137.326 75.4105 127.662 78.2324C126.393 78.6032 124.072 78.8515 121.879 78.8515C118.569 78.8515 118.235 78.7855 118.426 78.1684C118.749 77.1226 125.294 48.3496 125.294 47.9761C125.294 47.7953 125.074 47.7153 124.806 47.7981C124.538 47.8808 119.224 48.8743 112.998 50.0051C106.772 51.136 101.621 52.1005 101.551 52.1482C101.449 52.2184 92.9124 85.4141 92.8987 85.7967C92.8964 85.8595 103.917 85.8556 117.389 85.7881L141.884 85.6651L145.68 84.6256C154.338 82.2538 160.684 77.2956 164.06 70.2637C166.274 65.6529 166.85 62.7877 166.56 57.8462C166.245 52.4936 164.528 47.9686 161.229 43.7942C159.582 41.7117 158.889 41.4622 156.327 42.0322ZM73.5891 58.5078L61.8952 60.7235L58.8563 72.4224C57.1845 78.8566 55.8155 84.3411 55.8139 84.6092C55.8116 84.9883 58.329 85.0972 67.108 85.0972C73.3217 85.0972 78.4962 84.95 78.6075 84.7701C78.7183 84.5905 80.4019 78.3983 82.3478 71.0101C84.2941 63.6222 85.982 57.27 86.0988 56.8941C86.2295 56.4733 86.1136 56.2266 85.7966 56.2516C85.514 56.2738 80.0206 57.2891 73.5891 58.5078ZM43.5146 64.0473C39.0061 64.8624 33.3951 65.8922 31.0456 66.3352C28.6964 66.7783 26.6322 67.1409 26.4589 67.1409C26.0799 67.1409 26.0522 73.2858 26.4007 80.1202L26.6549 85.0972H33.3717H40.0885L45.0776 75.6311C47.8218 70.4245 50.4836 65.3917 50.993 64.4467C51.5021 63.5016 51.8721 62.6916 51.8155 62.6467C51.7585 62.6019 48.0232 63.2323 43.5146 64.0473ZM9.65183 70.2422C7.77345 70.6115 6.1769 70.987 6.1039 71.0764C5.85759 71.3786 2.72266 83.7871 2.72266 84.4589C2.72266 85.0499 3.17039 85.112 6.72378 85.0132L10.7249 84.902L12.5455 77.8756C13.5468 74.0111 14.381 70.542 14.3997 70.1661C14.4399 69.3507 14.1659 69.355 9.65183 70.2422Z" fill="url(#paint0_linear_256_341)"/>
<path d="M9.70036 113.868C7.95299 113.868 6.45874 113.558 5.21762 112.937C3.9765 112.317 3.02116 111.459 2.3516 110.365C1.69838 109.255 1.37177 107.981 1.37177 106.544C1.37177 105.09 1.61673 103.743 2.10664 102.502C2.61289 101.244 3.33144 100.15 4.26228 99.2195C5.19312 98.2886 6.3036 97.5619 7.59372 97.0393C8.88384 96.5004 10.3291 96.231 11.9295 96.231C13.4156 96.231 14.722 96.4759 15.8488 96.9659C16.9756 97.4558 17.8412 98.1662 18.4454 99.097L16.1428 101.032C15.6692 100.379 15.065 99.8809 14.3301 99.5379C13.5952 99.195 12.7215 99.0235 11.709 99.0235C10.6149 99.0235 9.62688 99.2113 8.74503 99.5869C7.86317 99.9625 7.11197 100.493 6.49141 101.179C5.87084 101.849 5.39726 102.633 5.07065 103.531C4.74403 104.413 4.58073 105.352 4.58073 106.348C4.58073 107.279 4.78486 108.103 5.19312 108.822C5.60139 109.54 6.20562 110.096 7.00582 110.488C7.80602 110.88 8.78585 111.075 9.94532 111.075C10.9088 111.075 11.7988 110.912 12.6154 110.586C13.4482 110.259 14.1831 109.761 14.82 109.091L16.6817 111.1C15.8488 112.047 14.8282 112.749 13.6197 113.207C12.4276 113.648 11.1211 113.868 9.70036 113.868ZM30.0788 113.868C28.3478 113.868 26.8699 113.558 25.6451 112.937C24.4203 112.317 23.4813 111.459 22.828 110.365C22.1912 109.255 21.8727 107.981 21.8727 106.544C21.8727 105.09 22.1177 103.743 22.6076 102.502C23.0975 101.244 23.8079 100.15 24.7387 99.2195C25.6696 98.2886 26.78 97.5619 28.0702 97.0393C29.3603 96.5004 30.7974 96.231 32.3814 96.231C34.0961 96.231 35.5659 96.5413 36.7907 97.1618C38.0155 97.7824 38.9545 98.6479 39.6077 99.7584C40.2609 100.853 40.5876 102.118 40.5876 103.555C40.5876 105.009 40.3344 106.364 39.8282 107.622C39.3383 108.863 38.6279 109.949 37.697 110.88C36.7662 111.81 35.6557 112.545 34.3656 113.084C33.0918 113.607 31.6629 113.868 30.0788 113.868ZM30.3483 111.075C31.4261 111.075 32.3978 110.888 33.2633 110.512C34.1288 110.12 34.8637 109.589 35.4679 108.92C36.0885 108.234 36.5621 107.45 36.8887 106.568C37.2153 105.67 37.3786 104.731 37.3786 103.751C37.3786 102.82 37.1745 101.996 36.7662 101.277C36.3579 100.559 35.7619 100.003 34.978 99.6114C34.1941 99.2195 33.2306 99.0235 32.0875 99.0235C31.026 99.0235 30.0543 99.2195 29.1725 99.6114C28.307 99.987 27.5639 100.518 26.9434 101.204C26.3391 101.873 25.8737 102.657 25.5471 103.555C25.2368 104.437 25.0817 105.368 25.0817 106.348C25.0817 107.279 25.2776 108.103 25.6696 108.822C26.0778 109.54 26.6739 110.096 27.4578 110.488C28.2416 110.88 29.2051 111.075 30.3483 111.075ZM45.1878 113.623L48.6172 96.4759H51.2383L59.0525 109.777L58.0481 109.655L60.6692 96.4759H63.8292L60.3997 113.623H57.7787L49.989 100.322L50.9933 100.444L48.3478 113.623H45.1878ZM73.6905 113.868C72.7923 113.868 71.9186 113.778 71.0694 113.599C70.2365 113.419 69.469 113.182 68.7668 112.888C68.0809 112.578 67.5093 112.235 67.0521 111.859L68.3994 109.361C68.8729 109.753 69.4118 110.087 70.0161 110.365C70.6203 110.643 71.2572 110.855 71.9268 111.002C72.6126 111.149 73.2985 111.222 73.9844 111.222C74.8173 111.222 75.544 111.124 76.1645 110.929C76.7851 110.733 77.2587 110.455 77.5853 110.096C77.9282 109.736 78.0997 109.304 78.0997 108.797C78.0997 108.34 77.9446 107.973 77.6343 107.695C77.324 107.401 76.9076 107.164 76.385 106.985C75.8788 106.789 75.3154 106.609 74.6948 106.446C74.0906 106.266 73.4782 106.07 72.8576 105.858C72.237 105.629 71.6736 105.352 71.1674 105.025C70.6611 104.682 70.2447 104.249 69.9181 103.727C69.6078 103.204 69.4527 102.551 69.4527 101.767C69.4527 100.64 69.763 99.6686 70.3835 98.852C71.0204 98.0192 71.8941 97.3741 73.0046 96.9169C74.1314 96.4596 75.4378 96.231 76.9239 96.231C78.0344 96.231 79.0877 96.3535 80.0839 96.5984C81.08 96.8434 81.9374 97.2026 82.6559 97.6762L81.4067 100.199C80.7698 99.7747 80.0512 99.4481 79.251 99.2195C78.4508 98.9908 77.618 98.8765 76.7524 98.8765C75.9033 98.8765 75.1684 98.9827 74.5478 99.195C73.9273 99.4073 73.4537 99.7012 73.1271 100.077C72.8004 100.452 72.629 100.893 72.6126 101.4C72.6126 101.873 72.7678 102.257 73.0781 102.551C73.3883 102.829 73.7966 103.065 74.3029 103.261C74.8091 103.457 75.3725 103.645 75.9931 103.825C76.6136 103.988 77.226 104.176 77.8303 104.388C78.4508 104.6 79.0224 104.87 79.545 105.196C80.0676 105.523 80.484 105.94 80.7943 106.446C81.1045 106.936 81.2597 107.556 81.2597 108.307C81.2597 109.434 80.9412 110.414 80.3043 111.247C79.6838 112.08 78.8019 112.725 77.6588 113.182C76.532 113.639 75.2092 113.868 73.6905 113.868ZM89.7877 113.623L92.6782 99.1705H86.9952L87.5341 96.4759H102.06L101.521 99.1705H95.8382L92.9722 113.623H89.7877ZM104.107 113.623L107.536 96.4759H114.199C116.273 96.4759 117.874 96.9332 119.001 97.8477C120.144 98.7459 120.715 100.012 120.715 101.645C120.715 103.082 120.38 104.323 119.711 105.368C119.058 106.397 118.119 107.197 116.894 107.769C115.669 108.324 114.216 108.601 112.534 108.601H106.949L108.59 107.156L107.316 113.623H104.107ZM115.375 113.623L111.872 107.401H115.253L118.756 113.623H115.375ZM108.516 107.524L107.438 105.98H112.632C114.183 105.98 115.383 105.637 116.233 104.952C117.082 104.266 117.506 103.261 117.506 101.939C117.506 101.008 117.188 100.314 116.551 99.8564C115.93 99.3991 115.032 99.1705 113.856 99.1705H108.859L110.525 97.5783L108.516 107.524ZM132.925 113.868C131.308 113.868 129.961 113.55 128.883 112.913C127.805 112.276 127.046 111.386 126.605 110.243C126.181 109.083 126.123 107.72 126.434 106.152L128.369 96.4759H131.553L129.618 106.103C129.471 106.936 129.43 107.671 129.496 108.307C129.577 108.928 129.773 109.451 130.084 109.875C130.41 110.283 130.835 110.586 131.357 110.782C131.896 110.977 132.525 111.075 133.244 111.075C134.158 111.075 134.942 110.904 135.595 110.561C136.265 110.218 136.82 109.679 137.261 108.944C137.718 108.193 138.069 107.238 138.314 106.078L140.225 96.4759H143.36L141.401 106.299C140.894 108.814 139.931 110.708 138.51 111.982C137.089 113.239 135.228 113.868 132.925 113.868ZM156.173 113.868C154.426 113.868 152.932 113.558 151.69 112.937C150.449 112.317 149.494 111.459 148.824 110.365C148.171 109.255 147.845 107.981 147.845 106.544C147.845 105.09 148.09 103.743 148.579 102.502C149.086 101.244 149.804 100.15 150.735 99.2195C151.666 98.2886 152.776 97.5619 154.067 97.0393C155.357 96.5004 156.802 96.231 158.402 96.231C159.888 96.231 161.195 96.4759 162.322 96.9659C163.448 97.4558 164.314 98.1662 164.918 99.097L162.616 101.032C162.142 100.379 161.538 99.8809 160.803 99.5379C160.068 99.195 159.194 99.0235 158.182 99.0235C157.088 99.0235 156.1 99.2113 155.218 99.5869C154.336 99.9625 153.585 100.493 152.964 101.179C152.344 101.849 151.87 102.633 151.543 103.531C151.217 104.413 151.054 105.352 151.054 106.348C151.054 107.279 151.258 108.103 151.666 108.822C152.074 109.54 152.678 110.096 153.479 110.488C154.279 110.88 155.259 111.075 156.418 111.075C157.382 111.075 158.272 110.912 159.088 110.586C159.921 110.259 160.656 109.761 161.293 109.091L163.155 111.1C162.322 112.047 161.301 112.749 160.093 113.207C158.9 113.648 157.594 113.868 156.173 113.868ZM171.624 113.623L174.515 99.1705H168.831L169.37 96.4759H183.896L183.358 99.1705H177.674L174.808 113.623H171.624ZM185.943 113.623L189.373 96.4759H192.557L189.128 113.623H185.943ZM205.401 113.868C203.67 113.868 202.192 113.558 200.968 112.937C199.743 112.317 198.804 111.459 198.151 110.365C197.514 109.255 197.195 107.981 197.195 106.544C197.195 105.09 197.44 103.743 197.93 102.502C198.42 101.244 199.13 100.15 200.061 99.2195C200.992 98.2886 202.103 97.5619 203.393 97.0393C204.683 96.5004 206.12 96.231 207.704 96.231C209.419 96.231 210.888 96.5413 212.113 97.1618C213.338 97.7824 214.277 98.6479 214.93 99.7584C215.583 100.853 215.91 102.118 215.91 103.555C215.91 105.009 215.657 106.364 215.151 107.622C214.661 108.863 213.95 109.949 213.02 110.88C212.089 111.81 210.978 112.545 209.688 113.084C208.414 113.607 206.985 113.868 205.401 113.868ZM205.671 111.075C206.749 111.075 207.72 110.888 208.586 110.512C209.451 110.12 210.186 109.589 210.79 108.92C211.411 108.234 211.885 107.45 212.211 106.568C212.538 105.67 212.701 104.731 212.701 103.751C212.701 102.82 212.497 101.996 212.089 101.277C211.68 100.559 211.084 100.003 210.3 99.6114C209.517 99.2195 208.553 99.0235 207.41 99.0235C206.348 99.0235 205.377 99.2195 204.495 99.6114C203.629 99.987 202.886 100.518 202.266 101.204C201.662 101.873 201.196 102.657 200.87 103.555C200.559 104.437 200.404 105.368 200.404 106.348C200.404 107.279 200.6 108.103 200.992 108.822C201.4 109.54 201.996 110.096 202.78 110.488C203.564 110.88 204.528 111.075 205.671 111.075ZM220.51 113.623L223.94 96.4759H226.561L234.375 109.777L233.371 109.655L235.992 96.4759H239.152L235.722 113.623H233.101L225.311 100.322L226.316 100.444L223.67 113.623H220.51Z" fill="url(#paint1_linear_256_341)"/>
<defs>
<linearGradient id="paint0_linear_256_341" x1="124.862" y1="0" x2="124.862" y2="176.549" gradientUnits="userSpaceOnUse">
<stop stop-color="#BE8D34"/>
<stop offset="1" stop-color="#FEE3B2"/>
</linearGradient>
<linearGradient id="paint1_linear_256_341" x1="120" y1="96.623" x2="120" y2="131.131" gradientUnits="userSpaceOnUse">
<stop stop-color="#BE8D34"/>
<stop offset="1" stop-color="#FEE3B2"/>
</linearGradient>
</defs>
</svg>
