<svg width="245" height="114" viewBox="0 0 245 114" fill="none" xmlns="http://www.w3.org/2000/svg">
<path fill-rule="evenodd" clip-rule="evenodd" d="M21.63 0.528086C21.2823 1.43399 5.08961 64.1568 5.18172 64.2399C5.22973 64.2836 7.14067 63.9698 9.42787 63.5424L13.587 62.7661L17.8195 45.7877C22.7959 25.8266 22.3732 25.7052 22.8244 47.2272C22.9797 54.6333 23.153 60.7423 23.2096 60.8025C23.2666 60.863 26.8055 60.2853 31.0743 59.5191C45.9844 56.8424 52.8851 55.3955 53.2769 54.8628C53.4916 54.5712 56.7409 48.5347 60.4976 41.4491C64.2543 34.363 67.367 28.6029 67.415 28.6486C67.4626 28.6942 66.0372 34.342 64.2469 41.1993C62.457 48.0566 61.0312 53.7153 61.0788 53.7734C61.2376 53.9682 84.8871 49.5304 85.1603 49.2548C85.3083 49.1057 88.2543 38.2696 91.7074 25.1748C95.1604 12.08 98.0818 1.05617 98.1993 0.677573C98.4015 0.0281021 97.7103 -0.00507397 86.0655 0.0921125L73.7173 0.195154L60.0527 25.37C52.5373 39.2161 46.2256 50.7118 46.027 50.9156C45.8057 51.1427 45.6659 41.3663 45.6659 25.6432V0H33.7495C24.0929 0 21.7944 0.100309 21.63 0.528086ZM212.522 0.27907C200.649 1.9207 188.571 11.4216 181.225 24.8969C180.251 26.6837 179.549 28.2399 179.665 28.3558C179.835 28.5256 190.306 26.6307 202.843 24.1612C204.718 23.792 204.969 23.6062 206.114 21.7358C209.584 16.0697 214.909 10.4555 218.599 8.5731C224.384 5.62159 228.945 9.00985 229.766 16.8706C229.979 18.9014 230.078 19.0942 230.824 18.9186C231.277 18.8124 233.896 18.3081 236.645 17.798C239.394 17.2883 241.74 16.7738 241.859 16.6548C242.14 16.3734 239.713 12.4422 237.72 9.95284C231.948 2.74152 222.088 -1.04407 212.522 0.27907ZM111.469 1.85396C110.905 3.67006 100.699 44.2515 100.699 44.6757C100.699 45.045 101.866 44.9478 105.481 44.2788C110.81 43.2925 114.298 42.6418 136.803 38.4379C145.389 36.8337 153.557 35.3302 154.952 35.0964C158.756 34.4598 162.07 33.2901 164.035 31.8908C167.646 29.3191 170.933 24.2104 171.746 19.9057C173.333 11.5043 165.606 2.90818 155.259 1.56435C153.695 1.36139 143.25 1.18966 132.048 1.18302C112.985 1.1717 111.667 1.21464 111.469 1.85396ZM142.594 7.54113C144.96 8.55866 146.895 10.3088 148.141 12.5585C149.212 14.4909 149.292 14.9234 149.289 18.7347C149.286 22.3217 149.16 23.1007 148.278 24.9797C146.294 29.2067 143.212 31.6797 136.866 34.1359C133.442 35.4614 125.257 37.9578 125.041 37.7427C124.985 37.6857 125.102 36.9426 125.303 36.0909C125.503 35.2389 126.997 28.5705 128.621 21.2717C130.246 13.973 131.672 7.67305 131.791 7.27181C131.989 6.59931 132.364 6.55599 136.551 6.71953C139.561 6.83701 141.602 7.11452 142.594 7.54113ZM187.84 33.5504C181.992 34.5562 177.096 35.4918 176.958 35.6288C176.403 36.1842 175.214 42.243 174.785 46.6991C173.192 63.2665 180.236 78.3885 192.209 84.0995C196.246 86.0253 198.295 86.5838 202.515 86.9093C208.602 87.3785 217.261 84.8754 222.572 81.1109L223.645 80.3506L223.995 81.2553C224.187 81.7526 224.645 82.9063 225.013 83.8185L225.682 85.4773H229.646H233.61L238.843 61.1807C241.72 47.8173 244.152 36.6647 244.245 36.3962C244.38 36.0109 240.892 35.9083 227.642 35.9083H210.869L209.842 39.6107C209.276 41.647 208.814 43.4033 208.814 43.5138C208.814 43.6242 211.976 43.7144 215.84 43.7144H222.865V46.6893C222.865 48.3255 222.593 51.4975 222.26 53.7387C220.078 68.4337 213.11 79.2347 205.775 79.2917C200.644 79.3311 196.521 74.1287 194.706 65.3238C194.035 62.0671 193.939 60.4508 194.084 54.8382C194.306 46.2799 195.406 41.2524 198.59 34.2495C199.605 32.0169 199.688 31.6231 199.13 31.6684C198.767 31.6976 193.687 32.5446 187.84 33.5504ZM153.586 42.0271C152.552 42.257 141.645 44.301 137.131 45.1109L133.556 45.7522L134.845 46.8841C136.638 48.4582 139.187 53.5287 139.766 56.6742C141.395 65.5158 134.587 75.4015 124.925 78.223C123.656 78.5938 121.335 78.8421 119.142 78.8421C115.833 78.8421 115.499 78.7761 115.689 78.159C116.012 77.1134 122.556 48.3438 122.556 47.9703C122.556 47.7896 122.337 47.7096 122.069 47.7923C121.8 47.8751 116.487 48.8684 110.262 49.9991C104.036 51.1299 98.8863 52.0943 98.8168 52.1419C98.7141 52.2122 90.1789 85.4039 90.1652 85.7864C90.1629 85.8493 101.182 85.8453 114.653 85.7778L139.145 85.6549L142.94 84.6155C151.597 82.244 157.942 77.2863 161.318 70.2553C163.531 65.645 164.108 62.7801 163.817 57.8392C163.503 52.4873 161.786 47.9629 158.487 43.789C156.841 41.7067 156.148 41.4573 153.586 42.0271ZM70.8579 58.5008L59.1655 60.7162L56.127 72.4137C54.4553 78.8471 53.0865 84.331 53.0849 84.5991C53.0826 84.9781 55.5996 85.087 64.3777 85.087C70.5906 85.087 75.7645 84.9398 75.8757 84.7599C75.9866 84.5804 77.67 78.3889 79.6156 71.0016C81.5617 63.6146 83.2494 57.2631 83.3661 56.8873C83.4969 56.4665 83.3809 56.2199 83.064 56.2448C82.7814 56.2671 77.2886 57.2823 70.8579 58.5008ZM40.7871 64.0397C36.2791 64.8546 30.6688 65.8843 28.3195 66.3273C25.9707 66.7703 23.9067 67.1329 23.7334 67.1329C23.3544 67.1329 23.3267 73.2771 23.6753 80.1106L23.9293 85.087H30.6454H37.3614L42.3499 75.622C45.0938 70.4161 47.7553 65.3839 48.2646 64.4389C48.7736 63.494 49.1436 62.6841 49.087 62.6392C49.03 62.5944 45.2952 63.2247 40.7871 64.0397ZM6.92834 70.2338C5.05018 70.6031 3.45383 70.9785 3.38084 71.0679C3.13456 71.37 0 83.7771 0 84.4488C0 85.0397 0.447683 85.1018 4.00065 85.0031L8.0013 84.8918L9.82169 77.8663C10.8228 74.0023 11.6569 70.5336 11.6756 70.1577C11.7159 69.3424 11.4419 69.3467 6.92834 70.2338Z" fill="url(#paint0_linear_256_346)"/>
<path d="M159.434 113.611L162.864 96.4613H169.528C171.603 96.4613 173.203 96.9187 174.33 97.8333C175.474 98.7317 176.045 99.9975 176.045 101.631C176.045 103.068 175.71 104.309 175.041 105.355C174.387 106.384 173.448 107.184 172.223 107.756C170.998 108.311 169.545 108.589 167.862 108.589H162.276L163.918 107.143L162.644 113.611H159.434ZM170.704 113.611L167.201 107.388H170.582L174.085 113.611H170.704ZM163.844 107.511L162.766 105.967H167.96C169.512 105.967 170.712 105.624 171.562 104.938C172.411 104.252 172.836 103.248 172.836 101.925C172.836 100.994 172.517 100.3 171.88 99.8423C171.26 99.385 170.361 99.1563 169.185 99.1563H164.187L165.853 97.5638L163.844 107.511ZM185.342 103.591H193.892L193.378 106.212H184.827L185.342 103.591ZM184.117 110.941H193.819L193.28 113.611H180.417L183.847 96.4613H196.367L195.828 99.1318H186.469L184.117 110.941ZM199.893 113.611L203.323 96.4613H205.944L213.76 109.765L212.755 109.642L215.377 96.4613H218.537L215.107 113.611H212.486L204.695 100.308L205.699 100.43L203.053 113.611H199.893ZM226.269 113.611L229.16 99.1563H223.476L224.015 96.4613H238.543L238.004 99.1563H232.32L229.454 113.611H226.269Z" fill="url(#paint1_linear_256_346)"/>
<defs>
<linearGradient id="paint0_linear_256_346" x1="122.124" y1="0" x2="122.124" y2="176.527" gradientUnits="userSpaceOnUse">
<stop stop-color="#BE8D34"/>
<stop offset="1" stop-color="#FEE3B2"/>
</linearGradient>
<linearGradient id="paint1_linear_256_346" x1="197.023" y1="96.6113" x2="197.023" y2="131.119" gradientUnits="userSpaceOnUse">
<stop stop-color="#BE8D34"/>
<stop offset="1" stop-color="#FEE3B2"/>
</linearGradient>
</defs>
</svg>
