<svg width="245" height="114" viewBox="0 0 245 114" fill="none" xmlns="http://www.w3.org/2000/svg">
<path fill-rule="evenodd" clip-rule="evenodd" d="M21.63 0.528086C21.2823 1.43399 5.08961 64.1568 5.18172 64.2399C5.22973 64.2836 7.14067 63.9698 9.42787 63.5424L13.587 62.7661L17.8195 45.7877C22.7959 25.8266 22.3732 25.7052 22.8244 47.2272C22.9797 54.6333 23.153 60.7423 23.2096 60.8025C23.2666 60.863 26.8055 60.2853 31.0743 59.5191C45.9844 56.8424 52.8851 55.3955 53.2769 54.8628C53.4916 54.5712 56.7409 48.5347 60.4976 41.4491C64.2543 34.363 67.367 28.6029 67.415 28.6486C67.4626 28.6942 66.0372 34.342 64.2469 41.1993C62.457 48.0566 61.0312 53.7153 61.0788 53.7734C61.2376 53.9682 84.8871 49.5304 85.1603 49.2548C85.3083 49.1057 88.2543 38.2696 91.7074 25.1748C95.1604 12.08 98.0818 1.05617 98.1993 0.677573C98.4015 0.0281021 97.7103 -0.00507397 86.0655 0.0921125L73.7173 0.195154L60.0527 25.37C52.5373 39.2161 46.2256 50.7118 46.027 50.9156C45.8057 51.1427 45.6659 41.3663 45.6659 25.6432V0H33.7495C24.0929 0 21.7944 0.100309 21.63 0.528086ZM212.522 0.27907C200.649 1.9207 188.571 11.4216 181.225 24.8969C180.251 26.6837 179.549 28.2399 179.665 28.3558C179.835 28.5256 190.306 26.6307 202.843 24.1612C204.718 23.792 204.969 23.6062 206.114 21.7358C209.584 16.0697 214.909 10.4555 218.599 8.5731C224.384 5.62159 228.945 9.00985 229.766 16.8706C229.979 18.9014 230.078 19.0942 230.824 18.9186C231.277 18.8124 233.896 18.3081 236.645 17.798C239.394 17.2883 241.74 16.7738 241.859 16.6548C242.14 16.3734 239.713 12.4422 237.72 9.95284C231.948 2.74152 222.088 -1.04407 212.522 0.27907ZM111.469 1.85396C110.905 3.67006 100.699 44.2515 100.699 44.6757C100.699 45.045 101.866 44.9478 105.481 44.2788C110.81 43.2925 114.298 42.6418 136.803 38.4379C145.389 36.8337 153.557 35.3302 154.952 35.0964C158.756 34.4598 162.07 33.2901 164.035 31.8908C167.646 29.3191 170.933 24.2104 171.746 19.9057C173.333 11.5043 165.606 2.90818 155.259 1.56435C153.695 1.36139 143.25 1.18966 132.048 1.18302C112.985 1.1717 111.667 1.21464 111.469 1.85396ZM142.594 7.54113C144.96 8.55866 146.895 10.3088 148.141 12.5585C149.212 14.4909 149.292 14.9234 149.289 18.7347C149.286 22.3217 149.16 23.1007 148.278 24.9797C146.294 29.2067 143.212 31.6797 136.866 34.1359C133.442 35.4614 125.257 37.9578 125.041 37.7427C124.985 37.6857 125.102 36.9426 125.303 36.0909C125.503 35.2389 126.997 28.5705 128.621 21.2717C130.246 13.973 131.672 7.67305 131.791 7.27181C131.989 6.59931 132.364 6.55599 136.551 6.71953C139.561 6.83701 141.602 7.11452 142.594 7.54113ZM187.84 33.5504C181.992 34.5562 177.096 35.4918 176.958 35.6288C176.403 36.1842 175.214 42.243 174.785 46.6991C173.192 63.2665 180.236 78.3885 192.209 84.0995C196.246 86.0253 198.295 86.5838 202.515 86.9093C208.602 87.3785 217.261 84.8754 222.572 81.1109L223.645 80.3506L223.995 81.2553C224.187 81.7526 224.645 82.9063 225.013 83.8185L225.682 85.4773H229.646H233.61L238.843 61.1807C241.72 47.8173 244.152 36.6647 244.245 36.3962C244.38 36.0109 240.892 35.9083 227.642 35.9083H210.869L209.842 39.6107C209.276 41.647 208.814 43.4033 208.814 43.5138C208.814 43.6242 211.976 43.7144 215.84 43.7144H222.865V46.6893C222.865 48.3255 222.593 51.4975 222.26 53.7387C220.078 68.4337 213.11 79.2347 205.775 79.2917C200.644 79.3311 196.521 74.1287 194.706 65.3238C194.035 62.0671 193.939 60.4508 194.084 54.8382C194.306 46.2799 195.406 41.2524 198.59 34.2495C199.605 32.0169 199.688 31.6231 199.13 31.6684C198.767 31.6976 193.687 32.5446 187.84 33.5504ZM153.586 42.0271C152.552 42.257 141.645 44.301 137.131 45.1109L133.556 45.7522L134.845 46.8841C136.638 48.4582 139.187 53.5287 139.766 56.6742C141.395 65.5158 134.587 75.4015 124.925 78.223C123.656 78.5938 121.335 78.8421 119.142 78.8421C115.833 78.8421 115.499 78.7761 115.689 78.159C116.012 77.1134 122.556 48.3438 122.556 47.9703C122.556 47.7896 122.337 47.7096 122.069 47.7923C121.8 47.8751 116.487 48.8684 110.262 49.9991C104.036 51.1299 98.8863 52.0943 98.8168 52.1419C98.7141 52.2122 90.1789 85.4039 90.1652 85.7864C90.1629 85.8493 101.182 85.8453 114.653 85.7778L139.145 85.6549L142.94 84.6155C151.597 82.244 157.942 77.2863 161.318 70.2553C163.531 65.645 164.108 62.7801 163.817 57.8392C163.503 52.4873 161.786 47.9629 158.487 43.789C156.841 41.7067 156.148 41.4573 153.586 42.0271ZM70.8579 58.5008L59.1655 60.7162L56.127 72.4137C54.4553 78.8471 53.0865 84.331 53.0849 84.5991C53.0826 84.9781 55.5996 85.087 64.3777 85.087C70.5906 85.087 75.7645 84.9398 75.8757 84.7599C75.9866 84.5804 77.67 78.3889 79.6156 71.0016C81.5617 63.6146 83.2494 57.2631 83.3661 56.8873C83.4969 56.4665 83.3809 56.2199 83.064 56.2448C82.7814 56.2671 77.2886 57.2823 70.8579 58.5008ZM40.7871 64.0397C36.2791 64.8546 30.6688 65.8843 28.3195 66.3273C25.9707 66.7703 23.9067 67.1329 23.7334 67.1329C23.3544 67.1329 23.3267 73.2771 23.6753 80.1106L23.9293 85.087H30.6454H37.3614L42.3499 75.622C45.0938 70.4161 47.7553 65.3839 48.2646 64.4389C48.7736 63.494 49.1436 62.6841 49.087 62.6392C49.03 62.5944 45.2952 63.2247 40.7871 64.0397ZM6.92834 70.2338C5.05018 70.6031 3.45383 70.9785 3.38084 71.0679C3.13456 71.37 0 83.7771 0 84.4488C0 85.0397 0.447683 85.1018 4.00065 85.0031L8.0013 84.8918L9.82169 77.8663C10.8228 74.0023 11.6569 70.5336 11.6756 70.1577C11.7159 69.3424 11.4419 69.3467 6.92834 70.2338Z" fill="url(#paint0_linear_256_356)"/>
<path d="M33.8131 113.611L37.2431 96.4613H43.8581C45.9324 96.4613 47.5331 96.9187 48.6601 97.8333C49.8034 98.748 50.3751 100.014 50.3751 101.631C50.3751 103.084 50.0403 104.342 49.3706 105.404C48.7173 106.449 47.7781 107.258 46.5531 107.829C45.3281 108.385 43.8744 108.662 42.1921 108.662H36.6061L38.2966 107.143L36.9981 113.611H33.8131ZM38.2231 107.511L37.0961 105.967H42.3146C43.8499 105.967 45.0423 105.624 45.8916 104.938C46.7409 104.252 47.1656 103.248 47.1656 101.925C47.1656 100.994 46.8471 100.3 46.2101 99.8423C45.5894 99.385 44.6911 99.1563 43.5151 99.1563H38.5416L40.2076 97.5638L38.2231 107.511ZM54.4132 113.611L57.8432 96.4613H64.5072C66.5815 96.4613 68.1822 96.9187 69.3092 97.8333C70.4525 98.7317 71.0242 99.9975 71.0242 101.631C71.0242 103.068 70.6894 104.309 70.0197 105.355C69.3664 106.384 68.4272 107.184 67.2022 107.756C65.9772 108.311 64.5235 108.589 62.8412 108.589H57.2552L58.8967 107.143L57.6227 113.611H54.4132ZM65.6832 113.611L62.1797 107.388H65.5607L69.0642 113.611H65.6832ZM58.8232 107.511L57.7452 105.967H62.9392C64.4909 105.967 65.6914 105.624 66.5407 104.938C67.39 104.252 67.8147 103.248 67.8147 101.925C67.8147 100.994 67.4962 100.3 66.8592 99.8423C66.2385 99.385 65.3402 99.1563 64.1642 99.1563H59.1662L60.8322 97.5638L58.8232 107.511ZM83.9711 113.856C82.2398 113.856 80.7616 113.546 79.5366 112.925C78.3116 112.305 77.3724 111.447 76.7191 110.353C76.0821 109.242 75.7636 107.968 75.7636 106.531C75.7636 105.077 76.0086 103.73 76.4986 102.488C76.9886 101.231 77.6991 100.136 78.6301 99.2053C79.5611 98.2743 80.6718 97.5475 81.9621 97.0248C83.2524 96.4858 84.6898 96.2163 86.2741 96.2163C87.9891 96.2163 89.4591 96.5267 90.6841 97.1473C91.9091 97.768 92.8483 98.6337 93.5016 99.7443C94.1549 100.839 94.4816 102.104 94.4816 103.542C94.4816 104.995 94.2284 106.351 93.7221 107.609C93.2321 108.85 92.5216 109.936 91.5906 110.867C90.6596 111.798 89.5489 112.533 88.2586 113.072C86.9846 113.595 85.5554 113.856 83.9711 113.856ZM84.2406 111.063C85.3186 111.063 86.2904 110.875 87.1561 110.5C88.0218 110.108 88.7568 109.577 89.3611 108.907C89.9818 108.221 90.4554 107.437 90.7821 106.555C91.1088 105.657 91.2721 104.718 91.2721 103.738C91.2721 102.807 91.0679 101.982 90.6596 101.263C90.2513 100.545 89.6551 99.9893 88.8711 99.5973C88.0871 99.2053 87.1234 99.0093 85.9801 99.0093C84.9184 99.0093 83.9466 99.2053 83.0646 99.5973C82.1989 99.973 81.4558 100.504 80.8351 101.19C80.2308 101.859 79.7653 102.643 79.4386 103.542C79.1283 104.424 78.9731 105.355 78.9731 106.335C78.9731 107.266 79.1691 108.091 79.5611 108.809C79.9694 109.528 80.5656 110.083 81.3496 110.475C82.1336 110.867 83.0973 111.063 84.2406 111.063ZM99.0826 113.611L102.513 96.4613H109.446C111.194 96.4613 112.688 96.7553 113.93 97.3433C115.171 97.915 116.118 98.7317 116.772 99.7933C117.441 100.855 117.776 102.104 117.776 103.542C117.776 105.061 117.515 106.441 116.992 107.682C116.486 108.924 115.759 109.985 114.812 110.867C113.881 111.733 112.762 112.411 111.455 112.901C110.148 113.374 108.695 113.611 107.094 113.611H99.0826ZM102.807 110.916H107.192C108.727 110.916 110.042 110.606 111.137 109.985C112.247 109.348 113.097 108.491 113.685 107.413C114.273 106.335 114.567 105.11 114.567 103.738C114.567 102.807 114.362 101.998 113.954 101.312C113.546 100.626 112.933 100.095 112.117 99.7198C111.316 99.3442 110.312 99.1563 109.103 99.1563H105.159L102.807 110.916ZM130.226 113.856C128.609 113.856 127.262 113.538 126.184 112.901C125.106 112.264 124.346 111.374 123.905 110.23C123.481 109.071 123.424 107.707 123.734 106.139L125.669 96.4613H128.854L126.919 106.09C126.772 106.923 126.731 107.658 126.796 108.295C126.878 108.915 127.074 109.438 127.384 109.863C127.711 110.271 128.136 110.573 128.658 110.769C129.197 110.965 129.826 111.063 130.545 111.063C131.46 111.063 132.244 110.892 132.897 110.549C133.567 110.206 134.122 109.667 134.563 108.932C135.02 108.18 135.371 107.225 135.616 106.065L137.527 96.4613H140.663L138.703 106.286C138.197 108.801 137.233 110.696 135.812 111.97C134.391 113.227 132.529 113.856 130.226 113.856ZM153.478 113.856C151.731 113.856 150.236 113.546 148.995 112.925C147.754 112.305 146.798 111.447 146.128 110.353C145.475 109.242 145.148 107.968 145.148 106.531C145.148 105.077 145.393 103.73 145.883 102.488C146.39 101.231 147.108 100.136 148.039 99.2053C148.97 98.2743 150.081 97.5475 151.371 97.0248C152.662 96.4858 154.107 96.2163 155.708 96.2163C157.194 96.2163 158.501 96.4613 159.628 96.9513C160.755 97.4413 161.621 98.1518 162.225 99.0828L159.922 101.018C159.448 100.365 158.844 99.8668 158.109 99.5238C157.374 99.1808 156.5 99.0093 155.487 99.0093C154.393 99.0093 153.405 99.1972 152.523 99.5728C151.641 99.9485 150.89 100.479 150.269 101.165C149.648 101.835 149.175 102.619 148.848 103.517C148.521 104.399 148.358 105.338 148.358 106.335C148.358 107.266 148.562 108.091 148.97 108.809C149.379 109.528 149.983 110.083 150.783 110.475C151.584 110.867 152.564 111.063 153.723 111.063C154.687 111.063 155.577 110.9 156.394 110.573C157.227 110.247 157.962 109.748 158.599 109.079L160.461 111.088C159.628 112.035 158.607 112.737 157.398 113.195C156.206 113.636 154.899 113.856 153.478 113.856ZM168.932 113.611L171.823 99.1563H166.139L166.678 96.4613H181.206L180.667 99.1563H174.983L172.117 113.611H168.932ZM183.254 113.611L186.684 96.4613H189.869L186.439 113.611H183.254ZM202.715 113.856C200.983 113.856 199.505 113.546 198.28 112.925C197.055 112.305 196.116 111.447 195.463 110.353C194.826 109.242 194.507 107.968 194.507 106.531C194.507 105.077 194.752 103.73 195.242 102.488C195.732 101.231 196.443 100.136 197.374 99.2053C198.305 98.2743 199.415 97.5475 200.706 97.0248C201.996 96.4858 203.433 96.2163 205.018 96.2163C206.733 96.2163 208.203 96.5267 209.428 97.1473C210.653 97.768 211.592 98.6337 212.245 99.7443C212.899 100.839 213.225 102.104 213.225 103.542C213.225 104.995 212.972 106.351 212.466 107.609C211.976 108.85 211.265 109.936 210.334 110.867C209.403 111.798 208.293 112.533 207.002 113.072C205.728 113.595 204.299 113.856 202.715 113.856ZM202.984 111.063C204.062 111.063 205.034 110.875 205.9 110.5C206.765 110.108 207.5 109.577 208.105 108.907C208.725 108.221 209.199 107.437 209.526 106.555C209.852 105.657 210.016 104.718 210.016 103.738C210.016 102.807 209.812 101.982 209.403 101.263C208.995 100.545 208.399 99.9893 207.615 99.5973C206.831 99.2053 205.867 99.0093 204.724 99.0093C203.662 99.0093 202.69 99.2053 201.808 99.5973C200.943 99.973 200.199 100.504 199.579 101.19C198.974 101.859 198.509 102.643 198.182 103.542C197.872 104.424 197.717 105.355 197.717 106.335C197.717 107.266 197.913 108.091 198.305 108.809C198.713 109.528 199.309 110.083 200.093 110.475C200.877 110.867 201.841 111.063 202.984 111.063ZM217.826 113.611L221.256 96.4613H223.878L231.693 109.765L230.689 109.642L233.31 96.4613H236.471L233.041 113.611H230.419L222.628 100.308L223.633 100.43L220.987 113.611H217.826Z" fill="url(#paint1_linear_256_356)"/>
<defs>
<linearGradient id="paint0_linear_256_356" x1="122.124" y1="0" x2="122.124" y2="176.527" gradientUnits="userSpaceOnUse">
<stop stop-color="#BE8D34"/>
<stop offset="1" stop-color="#FEE3B2"/>
</linearGradient>
<linearGradient id="paint1_linear_256_356" x1="134.656" y1="96.6113" x2="134.656" y2="131.119" gradientUnits="userSpaceOnUse">
<stop stop-color="#BE8D34"/>
<stop offset="1" stop-color="#FEE3B2"/>
</linearGradient>
</defs>
</svg>
