<?xml version="1.0" standalone="no"?>
  <!DOCTYPE svg PUBLIC "-//W3C//DTD SVG 1.1//EN" "http://www.w3.org/Graphics/SVG/1.1/DTD/svg11.dtd" >
  <svg>
  <metadata>
  Created by font-carrier
  </metadata>
  <defs>
  <font id="NotoSansDisplay-SemiBold" horiz-adv-x="2840" vert-adv-y="2840" >
    <font-face
      
      font-family="Noto Sans Disp SemBd"
      
      font-weight="400"
      
      font-stretch="normal"
      
      units-per-em="1000"
      
      ascent="1068"
      
      descent="-292"
      
    />
      <missing-glyph />

      

      
      <glyph glyph-name="uni21" unicode="&#x21;" d="M187 223L79 223L58 714L209 714L187 223M55 64Q55 106 77.50 123.50Q100 141 133 141Q164 141 186.50 123.50Q209 106 209 64Q209 23 186.50 5Q164-13 133-13Q100-13 77.50 5Q55 23 55 64Z"  horiz-adv-x="266" vert-adv-y="1000"  />

      
      <glyph glyph-name="uni22" unicode="&#x22;" d="M185 714L166 456L78 456L59 714L185 714M378 714L360 456L272 456L253 714L378 714Z"  horiz-adv-x="437" vert-adv-y="1000"  />

      
      <glyph glyph-name="uni23" unicode="&#x23;" d="M462 421L440 290L560 290L560 202L423 202L387 0L292 0L327 202L226 202L191 0L97 0L131 202L21 202L21 290L148 290L171 421L54 421L54 509L188 509L223 713L319 713L283 509L385 509L420 713L515 713L479 509L591 509L591 421L462 421M244 290L345 290L366 421L265 421L244 290Z"  horiz-adv-x="612" vert-adv-y="1000"  />

      
      <glyph glyph-name="uni24" unicode="&#x24;" d="M234-58L234 43Q176 44 129.50 54.50Q83 65 46 82L46 194Q84 176 136 161Q188 146 234 144L234 314Q137 352 89 395Q41 438 41 510Q41 585 94 628.50Q147 672 234 679L234 759L304 759L304 681Q407 677 485 639L448 540Q415 555 377.50 564.50Q340 574 304 577L304 411Q363 392 407.50 369Q452 346 476.50 311.50Q501 277 501 222Q501 150 452 103Q403 56 304 46L304-58L234-58M234 436L234 575Q164 566 164 513Q164 485 179.50 468Q195 451 234 436M304 148Q379 160 379 215Q379 242 362 258Q345 274 304 290L304 148Z"  horiz-adv-x="541" vert-adv-y="1000"  />

      
      <glyph glyph-name="uni25" unicode="&#x25;" d="M186 724Q262 724 303 665.50Q344 607 344 501Q344 395 305 335.50Q266 276 186 276Q112 276 71.50 335.50Q31 395 31 501Q31 607 69 665.50Q107 724 186 724M656 714L284 0L179 0L551 714L656 714M187 637Q161 637 149.50 603Q138 569 138 500Q138 432 149.50 397.50Q161 363 187 363Q238 363 238 500Q238 637 187 637M648 439Q723 439 764.50 380.50Q806 322 806 216Q806 110 767 50.50Q728-9 648-9Q574-9 533.50 50.50Q493 110 493 216Q493 322 531 380.50Q569 439 648 439M649 351Q623 351 611.50 317Q600 283 600 215Q600 146 611.50 111.50Q623 77 649 77Q700 77 700 215Q700 351 649 351Z"  horiz-adv-x="838" vert-adv-y="1000"  />

      
      <glyph glyph-name="uni26" unicode="&#x26;" d="M295 724Q378 724 429 684Q480 644 480 570Q480 503 442.50 457Q405 411 349 376L485 222Q505 254 519 293Q533 332 542 373L679 373Q665 314 638.50 253.50Q612 193 574 143L714 0L544 0L484 66Q443 32 394.50 11Q346-10 272-10Q162-10 101 44Q40 98 40 190Q40 266 75 312Q110 358 171 395Q140 437 121 476Q102 515 102 563Q102 638 153.50 681Q205 724 295 724M293 626Q265 626 245 609.50Q225 593 225 557Q225 528 239 502Q253 476 276 447Q316 474 336 500Q356 526 356 560Q356 592 338 609Q320 626 293 626M247 319Q214 294 196 267Q178 240 178 200Q178 153 207 125Q236 97 282 97Q321 97 351 110Q381 123 403 143L247 319Z"  horiz-adv-x="714" vert-adv-y="1000"  />

      
      <glyph glyph-name="uni27" unicode="&#x27;" d="M185 714L166 456L78 456L59 714L185 714Z"  horiz-adv-x="244" vert-adv-y="1000"  />

      
      <glyph glyph-name="uni28" unicode="&#x28;" d="M37 274Q37 396 69 509.50Q101 623 172 714L284 714Q220 620 188.50 507Q157 394 157 275Q157 159 188.50 47Q220-65 284-158L172-158Q101-70 69 41.50Q37 153 37 274Z"  horiz-adv-x="312" vert-adv-y="1000"  />

      
      <glyph glyph-name="uni29" unicode="&#x29;" d="M275 274Q275 153 243 41.50Q211-70 140-158L28-158Q92-65 124 47Q156 159 156 275Q156 394 124 507Q92 620 27 714L140 714Q211 623 243 509.50Q275 396 275 274Z"  horiz-adv-x="312" vert-adv-y="1000"  />

      
      <glyph glyph-name="uni2a" unicode="&#x2a;" d="M313 760L295 575L467 628L482 516L323 503L427 353L326 299L254 460L190 299L85 353L187 503L30 517L47 628L216 575L198 760L313 760Z"  horiz-adv-x="512" vert-adv-y="1000"  />

      
      <glyph glyph-name="uni2b" unicode="&#x2b;" d="M315 399L495 399L495 306L315 306L315 111L219 111L219 306L40 306L40 399L219 399L219 596L315 596L315 399Z"  horiz-adv-x="536" vert-adv-y="1000"  />

      
      <glyph glyph-name="uni2c" unicode="&#x2c;" d="M201 116L208 105Q195 52 172.50-11Q150-74 127-129L32-129Q46-70 58.50-3Q71 64 78 116L201 116Z"  horiz-adv-x="264" vert-adv-y="1000"  />

      
      <glyph glyph-name="uni2d" unicode="&#x2d;" d="M29 215L29 321L273 321L273 215L29 215Z"  horiz-adv-x="302" vert-adv-y="1000"  />

      
      <glyph glyph-name="uni2e" unicode="&#x2e;" d="M55 64Q55 106 77.50 123.50Q100 141 132 141Q164 141 186.50 123.50Q209 106 209 64Q209 23 186.50 5Q164-13 132-13Q100-13 77.50 5Q55 23 55 64Z"  horiz-adv-x="264" vert-adv-y="1000"  />

      
      <glyph glyph-name="uni2f" unicode="&#x2f;" d="M378 714L128 0L7 0L257 714L378 714Z"  horiz-adv-x="383" vert-adv-y="1000"  />

      
      <glyph glyph-name="uni30" unicode="&#x30;" d="M503 357Q503 242 480 160Q457 78 406 34Q355-10 270-10Q150-10 94 87Q38 184 38 357Q38 472 60.50 554.50Q83 637 134 681Q185 725 270 725Q389 725 446 628Q503 531 503 357M171 357Q171 226 192.50 160Q214 94 270 94Q326 94 348 159.50Q370 225 370 357Q370 488 348 554.50Q326 621 270 621Q214 621 192.50 554.50Q171 488 171 357Z"  horiz-adv-x="541" vert-adv-y="1000"  />

      
      <glyph glyph-name="uni31" unicode="&#x31;" d="M382 0L249 0L249 445Q249 477 249.50 513Q250 549 252 580Q242 570 229 556Q216 542 202 529L128 465L60 543L268 714L382 714L382 0Z"  horiz-adv-x="541" vert-adv-y="1000"  />

      
      <glyph glyph-name="uni32" unicode="&#x32;" d="M503 0L38 0L38 93L207 277Q258 332 289 371Q320 410 334.50 444.50Q349 479 349 519Q349 568 324 592.50Q299 617 260 617Q220 617 184.50 598.50Q149 580 110 546L37 629Q66 654 98.50 676Q131 698 172.50 711Q214 724 271 724Q336 724 384 699.50Q432 675 457.50 631.50Q483 588 483 532Q483 474 460.50 426Q438 378 397.50 329.50Q357 281 303 221L206 115L206 109L503 109L503 0Z"  horiz-adv-x="541" vert-adv-y="1000"  />

      
      <glyph glyph-name="uni33" unicode="&#x33;" d="M479 551Q479 478 437.50 434.50Q396 391 334 376L334 373Q415 362 456.50 319Q498 276 498 206Q498 144 469.50 95Q441 46 381.50 18Q322-10 229-10Q119-10 37 29L37 140Q80 117 127.50 105Q175 93 216 93Q294 93 326 124.50Q358 156 358 212Q358 265 320.50 291Q283 317 193 317L141 317L141 418L194 418Q278 418 312.50 449Q347 480 347 529Q347 572 321.50 596Q296 620 249 620Q199 620 161.50 602.50Q124 585 99 565L39 652Q78 682 131 703Q184 724 260 724Q364 724 421.50 677Q479 630 479 551Z"  horiz-adv-x="541" vert-adv-y="1000"  />

      
      <glyph glyph-name="uni34" unicode="&#x34;" d="M525 153L441 153L441 0L310 0L310 153L17 153L17 247L314 716L441 716L441 256L525 256L525 153M310 256L310 416Q310 444 311 474.50Q312 505 313 531.50Q314 558 315 572L311 572Q302 552 292.50 532.50Q283 513 273 494L136 256L310 256Z"  horiz-adv-x="541" vert-adv-y="1000"  />

      
      <glyph glyph-name="uni35" unicode="&#x35;" d="M281 449Q343 449 391.50 424Q440 399 467.50 351.50Q495 304 495 235Q495 120 428 55Q361-10 231-10Q177-10 130.50 0Q84 10 50 29L50 141Q84 121 133 108Q182 95 226 95Q288 95 324 126Q360 157 360 223Q360 282 326 313.50Q292 345 221 345Q195 345 166.50 340Q138 335 118 330L63 360L89 714L449 714L449 604L204 604L191 439Q207 442 227.50 445.50Q248 449 281 449Z"  horiz-adv-x="541" vert-adv-y="1000"  />

      
      <glyph glyph-name="uni36" unicode="&#x36;" d="M39 304Q39 366 47 426Q55 486 76 539.50Q97 593 134 634.50Q171 676 229 699.50Q287 723 370 723Q390 723 416 721Q442 719 459 715L459 611Q421 622 373 622Q293 622 248.50 589.50Q204 557 185 500.50Q166 444 163 374L169 374Q188 409 223 433.50Q258 458 315 458Q403 458 454.50 400Q506 342 506 235Q506 120 445 55Q384-10 281-10Q213-10 158 24Q103 58 71 127.50Q39 197 39 304M278 93Q322 93 349 127.50Q376 162 376 234Q376 292 352.50 325.50Q329 359 280 359Q247 359 222.50 342.50Q198 326 185 300.50Q172 275 172 248Q172 211 183.50 175.50Q195 140 218.50 116.50Q242 93 278 93Z"  horiz-adv-x="541" vert-adv-y="1000"  />

      
      <glyph glyph-name="uni37" unicode="&#x37;" d="M110 0L364 605L34 605L34 714L506 714L506 629L251 0L110 0Z"  horiz-adv-x="541" vert-adv-y="1000"  />

      
      <glyph glyph-name="uni38" unicode="&#x38;" d="M271 723Q332 723 380 704Q428 685 456 646.50Q484 608 484 552Q484 488 449 446.50Q414 405 362 377Q398 356 430.50 330Q463 304 483.50 268.50Q504 233 504 185Q504 96 443 43Q382-10 272-10Q156-10 96.50 41Q37 92 37 181Q37 254 75 299.50Q113 345 167 373Q121 403 89.50 445.50Q58 488 58 553Q58 608 86 646Q114 684 162.50 703.50Q211 723 271 723M270 628Q233 628 208.50 606Q184 584 184 544Q184 500 210 474Q236 448 272 429Q306 447 331.50 473Q357 499 357 544Q357 584 332.50 606Q308 628 270 628M162 187Q162 143 189 114.50Q216 86 270 86Q324 86 352 114Q380 142 380 187Q380 232 348 262Q316 292 276 314L263 321Q216 296 189 264.50Q162 233 162 187Z"  horiz-adv-x="541" vert-adv-y="1000"  />

      
      <glyph glyph-name="uni39" unicode="&#x39;" d="M504 409Q504 328 489 253Q474 178 437.50 118.50Q401 59 336 24.50Q271-10 171-10Q151-10 125-8Q99-6 81-2L81 102Q119 91 162 91Q246 91 292 123.50Q338 156 357 212Q376 268 379 338L373 338Q354 304 320.50 279.50Q287 255 223 255Q138 255 87.50 313Q37 371 37 477Q37 592 97.50 658Q158 724 262 724Q330 724 385 690Q440 656 472 586Q504 516 504 409M264 621Q221 621 193.50 586Q166 551 166 479Q166 421 189.50 387.50Q213 354 260 354Q294 354 318.50 370.50Q343 387 356.50 412.50Q370 438 370 465Q370 504 358 540Q346 576 322.50 598.50Q299 621 264 621Z"  horiz-adv-x="541" vert-adv-y="1000"  />

      
      <glyph glyph-name="uni3a" unicode="&#x3a;" d="M55 476Q55 519 77.50 536.50Q100 554 132 554Q164 554 186.50 536.50Q209 519 209 476Q209 436 186.50 417.50Q164 399 132 399Q100 399 77.50 417.50Q55 436 55 476M55 64Q55 106 77.50 123.50Q100 141 132 141Q164 141 186.50 123.50Q209 106 209 64Q209 23 186.50 5Q164-13 132-13Q100-13 77.50 5Q55 23 55 64Z"  horiz-adv-x="264" vert-adv-y="1000"  />

      
      <glyph glyph-name="uni3b" unicode="&#x3b;" d="M54 476Q54 519 77 536.50Q100 554 132 554Q164 554 186.50 536.50Q209 519 209 476Q209 436 186.50 417.50Q164 399 132 399Q100 399 77 417.50Q54 436 54 476M198 116L205 105Q192 52 169.50-11.50Q147-75 124-129L28-129Q42-71 55-3.50Q68 64 75 116L198 116Z"  horiz-adv-x="264" vert-adv-y="1000"  />

      
      <glyph glyph-name="uni3c" unicode="&#x3c;" d="M494 105L40 317L40 379L494 619L494 516L175 353L494 208L494 105Z"  horiz-adv-x="536" vert-adv-y="1000"  />

      
      <glyph glyph-name="uni3d" unicode="&#x3d;" d="M43 402L43 495L493 495L493 402L43 402M43 209L43 302L493 302L493 209L43 209Z"  horiz-adv-x="536" vert-adv-y="1000"  />

      
      <glyph glyph-name="uni3e" unicode="&#x3e;" d="M40 208L359 352L40 516L40 619L494 379L494 317L40 105L40 208Z"  horiz-adv-x="536" vert-adv-y="1000"  />

      
      <glyph glyph-name="uni3f" unicode="&#x3f;" d="M131 223L131 256Q131 308 149 343.50Q167 379 215 417Q246 442 264 461Q282 480 289 499Q296 518 296 542Q296 580 272.50 600Q249 620 208 620Q168 620 129.50 607Q91 594 52 574L5 668Q49 693 102 708.50Q155 724 218 724Q315 724 368 675.50Q421 627 421 548Q421 505 408.50 475Q396 445 371 418.50Q346 392 311 363Q282 339 266.50 322Q251 305 245 288.50Q239 272 239 248L239 223L131 223M112 64Q112 106 135 123.50Q158 141 190 141Q222 141 244.50 123.50Q267 106 267 64Q267 23 244.50 5Q222-13 190-13Q158-13 135 5Q112 23 112 64Z"  horiz-adv-x="442" vert-adv-y="1000"  />

      
      <glyph glyph-name="uni40" unicode="&#x40;" d="M797 358Q797 312 786.50 267Q776 222 755 186Q734 150 702.50 128.50Q671 107 629 107Q591 107 564 127.50Q537 148 526 179L520 179Q501 150 469 128.50Q437 107 393 107Q313 107 270.50 159.50Q228 212 228 297Q228 364 254 415Q280 466 329 495.50Q378 525 446 525Q490 525 533.50 517Q577 509 603 499L594 295Q593 282 593 272.50Q593 263 593 260Q593 214 604.50 199.50Q616 185 632 185Q654 185 670 208.50Q686 232 694 272Q702 312 702 359Q702 446 670.50 507Q639 568 582.50 600Q526 632 451 632Q351 632 282.50 587Q214 542 178.50 464Q143 386 143 286Q143 146 211.50 71.50Q280-3 410-3Q465-3 523.50 10Q582 23 630 41L630-43Q586-62 531-74Q476-86 414-86Q298-86 216-42Q134 2 90.50 84.50Q47 167 47 283Q47 375 75 453.50Q103 532 155.50 590.50Q208 649 282 681.50Q356 714 449 714Q551 714 629.50 671Q708 628 752.50 548Q797 468 797 358M329 295Q329 237 350 211Q371 185 406 185Q452 185 471.50 223.50Q491 262 495 324L501 439Q490 442 476.50 444Q463 446 449 446Q406 446 379.50 424Q353 402 341 367.50Q329 333 329 295Z"  horiz-adv-x="844" vert-adv-y="1000"  />

      
      <glyph glyph-name="uni41" unicode="&#x41;" d="M498 0L443 189L199 189L144 0L0 0L240 717L401 717L642 0L498 0M411 299L354 483Q347 508 337 544.50Q327 581 321 613Q314 576 305 542Q296 508 289 483L233 299L411 299Z"  horiz-adv-x="642" vert-adv-y="1000"  />

      
      <glyph glyph-name="uni42" unicode="&#x42;" d="M84 714L294 714Q428 714 493.50 674Q559 634 559 535Q559 473 528 431.50Q497 390 447 379L447 374Q482 366 511.50 348Q541 330 559 295.50Q577 261 577 205Q577 108 511.50 54Q446 0 332 0L84 0L84 714M218 423L306 423Q371 423 396 447.50Q421 472 421 518Q421 566 391.50 587Q362 608 298 608L218 608L218 423M218 320L218 107L316 107Q384 107 410.50 137.50Q437 168 437 217Q437 264 409.50 292Q382 320 312 320L218 320Z"  horiz-adv-x="625" vert-adv-y="1000"  />

      
      <glyph glyph-name="uni43" unicode="&#x43;" d="M373 616Q288 616 240 546.50Q192 477 192 356Q192 234 237.50 166Q283 98 376 98Q419 98 459.50 107.50Q500 117 543 133L543 24Q501 6 458-2Q415-10 361-10Q256-10 187.50 35.50Q119 81 86 163.50Q53 246 53 357Q53 465 90 547.50Q127 630 198.50 677Q270 724 374 724Q424 724 477 712Q530 700 570 677L525 572Q490 589 452 602.50Q414 616 373 616Z"  horiz-adv-x="600" vert-adv-y="1000"  />

      
      <glyph glyph-name="uni44" unicode="&#x44;" d="M637 364Q637 183 542 91.50Q447 0 280 0L84 0L84 714L299 714Q456 714 546.50 625Q637 536 637 364M497 360Q497 488 446 548Q395 608 298 608L218 608L218 107L283 107Q392 107 444.50 170.50Q497 234 497 360Z"  horiz-adv-x="691" vert-adv-y="1000"  />

      
      <glyph glyph-name="uni45" unicode="&#x45;" d="M469 0L84 0L84 714L469 714L469 607L218 607L218 425L453 425L453 318L218 318L218 108L469 108L469 0Z"  horiz-adv-x="522" vert-adv-y="1000"  />

      
      <glyph glyph-name="uni46" unicode="&#x46;" d="M216 0L84 0L84 714L469 714L469 607L216 607L216 397L451 397L451 290L216 290L216 0Z"  horiz-adv-x="504" vert-adv-y="1000"  />

      
      <glyph glyph-name="uni47" unicode="&#x47;" d="M355 392L616 392L616 29Q564 10 504 0Q444-10 372-10Q221-10 137 86Q53 182 53 358Q53 470 94 552Q135 634 213.50 679Q292 724 404 724Q461 724 513.50 712Q566 700 609 681L564 576Q530 592 488.50 604Q447 616 402 616Q300 616 246 545Q192 474 192 356Q192 280 212.50 222Q233 164 276.50 131Q320 98 387 98Q418 98 443 102Q468 106 487 111L487 283L355 283L355 392Z"  horiz-adv-x="686" vert-adv-y="1000"  />

      
      <glyph glyph-name="uni48" unicode="&#x48;" d="M629 0L494 0L494 317L218 317L218 0L84 0L84 714L218 714L218 426L494 426L494 714L629 714L629 0Z"  horiz-adv-x="713" vert-adv-y="1000"  />

      
      <glyph glyph-name="uni49" unicode="&#x49;" d="M330 0L33 0L33 73L115 105L115 608L33 641L33 714L330 714L330 641L249 608L249 105L330 73L330 0Z"  horiz-adv-x="364" vert-adv-y="1000"  />

      
      <glyph glyph-name="uni4a" unicode="&#x4a;" d="M10-202Q-17-202-37.50-199Q-58-196-72-191L-72-84Q-57-88-40.50-91Q-24-94-5-94Q21-94 41-84Q61-74 71.50-47Q82-20 82 30L82 714L217 714L217 33Q217-50 191-102Q165-154 118.50-178Q72-202 10-202Z"  horiz-adv-x="298" vert-adv-y="1000"  />

      
      <glyph glyph-name="uni4b" unicode="&#x4b;" d="M616 0L463 0L279 316L218 263L218 0L84 0L84 714L218 714L218 378Q236 404 256 430Q276 456 295 481L463 714L613 714L376 400L616 0Z"  horiz-adv-x="616" vert-adv-y="1000"  />

      
      <glyph glyph-name="uni4c" unicode="&#x4c;" d="M84 0L84 714L218 714L218 108L493 108L493 0L84 0Z"  horiz-adv-x="523" vert-adv-y="1000"  />

      
      <glyph glyph-name="uni4d" unicode="&#x4d;" d="M374 0L200 585L196 585Q198 565 199.50 528.50Q201 492 202.50 449.50Q204 407 204 370L204 0L84 0L84 714L268 714L438 153L441 153L614 714L799 714L799 0L673 0L673 376Q673 410 674 450.50Q675 491 676.50 527.50Q678 564 680 584L676 584L497 0L374 0Z"  horiz-adv-x="883" vert-adv-y="1000"  />

      
      <glyph glyph-name="uni4e" unicode="&#x4e;" d="M670 0L501 0L200 560L196 560Q198 515 200.50 463.50Q203 412 204 360L204 0L84 0L84 714L252 714L552 158L556 158Q554 198 551.50 250Q549 302 549 351L549 714L670 714L670 0Z"  horiz-adv-x="754" vert-adv-y="1000"  />

      
      <glyph glyph-name="uni4f" unicode="&#x4f;" d="M690 358Q690 247 655.50 164.50Q621 82 550.50 36Q480-10 372-10Q263-10 192.50 36Q122 82 87.50 165Q53 248 53 359Q53 469 87.50 551.50Q122 634 193 679.50Q264 725 373 725Q480 725 550.50 679.50Q621 634 655.50 551.50Q690 469 690 358M195 358Q195 237 237 168Q279 99 372 99Q466 99 507 168Q548 237 548 358Q548 479 507 548Q466 617 373 617Q279 617 237 548Q195 479 195 358Z"  horiz-adv-x="744" vert-adv-y="1000"  />

      
      <glyph glyph-name="uni50" unicode="&#x50;" d="M290 714Q420 714 481 656.50Q542 599 542 496Q542 435 518 382Q494 329 437 296Q380 263 282 263L218 263L218 0L84 0L84 714L290 714M285 608L218 608L218 369L268 369Q333 369 370 397.50Q407 426 407 491Q407 608 285 608Z"  horiz-adv-x="585" vert-adv-y="1000"  />

      
      <glyph glyph-name="uni51" unicode="&#x51;" d="M690 358Q690 234 648 144.50Q606 55 521 17L682-170L508-170L385-10L372-10Q263-10 192.50 36Q122 82 87.50 165Q53 248 53 359Q53 469 87.50 551.50Q122 634 193 679.50Q264 725 373 725Q480 725 550.50 679.50Q621 634 655.50 551.50Q690 469 690 358M195 358Q195 237 237 168Q279 99 372 99Q466 99 507 168Q548 237 548 358Q548 479 507 548Q466 617 373 617Q279 617 237 548Q195 479 195 358Z"  horiz-adv-x="743" vert-adv-y="1000"  />

      
      <glyph glyph-name="uni52" unicode="&#x52;" d="M283 714Q416 714 480 662Q544 610 544 504Q544 426 507.50 381Q471 336 420 314L612 0L460 0L305 282L218 282L218 0L84 0L84 714L283 714M277 607L218 607L218 387L279 387Q408 387 408 500Q408 558 376 582.50Q344 607 277 607Z"  horiz-adv-x="613" vert-adv-y="1000"  />

      
      <glyph glyph-name="uni53" unicode="&#x53;" d="M487 195Q487 100 422.50 45Q358-10 237-10Q178-10 131 0Q84 10 44 30L44 150Q89 130 141.50 113.50Q194 97 244 97Q300 97 326.50 122.50Q353 148 353 188Q353 232 320.50 259Q288 286 216 315Q170 334 132.50 360.50Q95 387 73 427.50Q51 468 51 529Q51 620 114.50 672Q178 724 282 724Q340 724 388 712Q436 700 480 678L438 575Q397 594 357 605Q317 616 278 616Q232 616 208 593Q184 570 184 532Q184 503 198 483Q212 463 242 445.50Q272 428 320 405Q373 380 410.50 353Q448 326 467.50 288.50Q487 251 487 195Z"  horiz-adv-x="524" vert-adv-y="1000"  />

      
      <glyph glyph-name="uni54" unicode="&#x54;" d="M338 0L203 0L203 606L17 606L17 714L523 714L523 606L338 606L338 0Z"  horiz-adv-x="540" vert-adv-y="1000"  />

      
      <glyph glyph-name="uni55" unicode="&#x55;" d="M625 714L625 252Q625 178 594.50 118.50Q564 59 502.50 24.50Q441-10 348-10Q216-10 147 62.50Q78 135 78 254L78 714L212 714L212 267Q212 179 247 139Q282 99 352 99Q425 99 457.50 142.50Q490 186 490 268L490 714L625 714Z"  horiz-adv-x="703" vert-adv-y="1000"  />

      
      <glyph glyph-name="uni56" unicode="&#x56;" d="M608 714L378 0L229 0L0 714L143 714L268 277Q273 259 280.50 230.50Q288 202 294.50 172Q301 142 304 120Q307 142 313.50 171.50Q320 201 327 229.50Q334 258 340 277L464 714L608 714Z"  horiz-adv-x="608" vert-adv-y="1000"  />

      
      <glyph glyph-name="uni57" unicode="&#x57;" d="M909 714L737 0L585 0L488 410Q484 430 477 461.50Q470 493 465 522.50Q460 552 458 567Q456 552 451 522.50Q446 493 439.50 461.50Q433 430 428 408L332 0L180 0L8 714L142 714L230 307Q236 281 242 248Q248 215 254 182.50Q260 150 262 126Q266 152 272 184.50Q278 217 284 249Q290 281 296 304L394 714L522 714L621 301Q626 278 633 246Q640 214 646 182Q652 150 655 126Q658 150 663.50 182.50Q669 215 675.50 247.50Q682 280 688 307L776 714L909 714Z"  horiz-adv-x="918" vert-adv-y="1000"  />

      
      <glyph glyph-name="uni58" unicode="&#x58;" d="M615 0L461 0L305 285L148 0L2 0L225 370L16 714L165 714L309 448L451 714L599 714L388 365L615 0Z"  horiz-adv-x="616" vert-adv-y="1000"  />

      
      <glyph glyph-name="uni59" unicode="&#x59;" d="M290 399L434 714L579 714L357 278L357 0L223 0L223 273L0 714L146 714L290 399Z"  horiz-adv-x="579" vert-adv-y="1000"  />

      
      <glyph glyph-name="uni5a" unicode="&#x5a;" d="M524 0L29 0L29 87L352 606L38 606L38 714L515 714L515 627L192 108L524 108L524 0Z"  horiz-adv-x="551" vert-adv-y="1000"  />

      
      <glyph glyph-name="uni5b" unicode="&#x5b;" d="M286-158L65-158L65 714L286 714L286 623L179 623L179-67L286-67L286-158Z"  horiz-adv-x="309" vert-adv-y="1000"  />

      
      <glyph glyph-name="uni5c" unicode="&#x5c;" d="M127 714L377 0L256 0L6 714L127 714Z"  horiz-adv-x="383" vert-adv-y="1000"  />

      
      <glyph glyph-name="uni5d" unicode="&#x5d;" d="M23-67L130-67L130 623L23 623L23 714L244 714L244-158L23-158L23-67Z"  horiz-adv-x="309" vert-adv-y="1000"  />

      
      <glyph glyph-name="uni5e" unicode="&#x5e;" d="M18 259L218 718L282 718L508 259L403 259L253 590L121 259L18 259Z"  horiz-adv-x="524" vert-adv-y="1000"  />

      
      <glyph glyph-name="uni5f" unicode="&#x5f;" d="M425-156L-2-156L-2-90L425-90L425-156Z"  horiz-adv-x="423" vert-adv-y="1000"  />

      
      <glyph glyph-name="uni60" unicode="&#x60;" d="M189 766Q202 744 221.50 716.50Q241 689 260.50 663.50Q280 638 295 619L295 606L207 606Q184 624 151 652Q118 680 87.50 709Q57 738 40 756L40 766L189 766Z"  horiz-adv-x="335" vert-adv-y="1000"  />

      
      <glyph glyph-name="uni61" unicode="&#x61;" d="M289 552Q387 552 439 506Q491 460 491 364L491 0L398 0L372 75L368 75Q335 31 298.50 10.50Q262-10 198-10Q130-10 84.50 31Q39 72 39 158Q39 242 97 284Q155 326 272 331L358 334L358 361Q358 413 336.50 435Q315 457 276 457Q239 457 202.50 445.50Q166 434 132 417L91 505Q131 526 181 539Q231 552 289 552M359 256L302 254Q231 251 203 225.50Q175 200 175 157Q175 118 194.50 101.50Q214 85 246 85Q293 85 326 116.50Q359 148 359 210L359 256Z"  horiz-adv-x="560" vert-adv-y="1000"  />

      
      <glyph glyph-name="uni62" unicode="&#x62;" d="M205 760L205 580Q205 548 203 518Q201 488 199 471L205 471Q225 505 260.50 528.50Q296 552 352 552Q439 552 493 481Q547 410 547 272Q547 132 492 61Q437-10 348-10Q292-10 258.50 12Q225 34 205 63L195 63L173 0L72 0L72 760L205 760M311 450Q252 450 228.50 409Q205 368 205 283L205 272Q205 185 228 139Q251 93 313 93Q361 93 386.50 139.50Q412 186 412 273Q412 450 311 450Z"  horiz-adv-x="592" vert-adv-y="1000"  />

      
      <glyph glyph-name="uni63" unicode="&#x63;" d="M288-10Q176-10 110.50 57Q45 124 45 268Q45 368 77.50 430.50Q110 493 167 522.50Q224 552 298 552Q344 552 384.50 542Q425 532 452 518L412 421Q385 432 358 440Q331 448 303 448Q180 448 180 269Q180 182 212 138Q244 94 302 94Q341 94 374.50 105Q408 116 438 135L438 26Q407 7 372.50-1.50Q338-10 288-10Z"  horiz-adv-x="480" vert-adv-y="1000"  />

      
      <glyph glyph-name="uni64" unicode="&#x64;" d="M240-10Q153-10 99 60.50Q45 131 45 270Q45 410 100 481Q155 552 244 552Q300 552 334.50 529Q369 506 391 473L395 473Q393 487 390 515.50Q387 544 387 570L387 760L520 760L520 0L418 0L393 71L387 71Q367 37 331.50 13.50Q296-10 240-10M284 92Q345 92 370 132Q395 172 395 253L395 269Q395 356 371.50 402.50Q348 449 283 449Q233 449 206.50 401.50Q180 354 180 268Q180 182 206.50 137Q233 92 284 92Z"  horiz-adv-x="592" vert-adv-y="1000"  />

      
      <glyph glyph-name="uni65" unicode="&#x65;" d="M285 552Q390 552 451 487Q512 422 512 306L512 242L180 242Q182 168 216 127.50Q250 87 314 87Q363 87 402.50 97.50Q442 108 484 128L484 27Q446 8 404.50-1Q363-10 304-10Q228-10 169.50 20.50Q111 51 78 112.50Q45 174 45 267Q45 406 111.50 479Q178 552 285 552M287 459Q243 459 214.50 426.50Q186 394 182 330L386 330Q385 386 361 422.50Q337 459 287 459Z"  horiz-adv-x="554" vert-adv-y="1000"  />

      
      <glyph glyph-name="uni66" unicode="&#x66;" d="M349 447L229 447L229 0L96 0L96 447L18 447L18 507L97 543L97 580Q97 684 141.50 724.50Q186 765 271 765Q308 765 338 758.50Q368 752 393 744L361 650Q346 655 328 659.50Q310 664 289 664Q258 664 243.50 641.50Q229 619 229 577L229 542L349 542L349 447Z"  horiz-adv-x="357" vert-adv-y="1000"  />

      
      <glyph glyph-name="uni67" unicode="&#x67;" d="M243 552Q343 552 392 472L397 472L408 542L520 542L520-4Q520-120 458-180Q396-240 268-240Q211-240 164.50-232.50Q118-225 76-207L76-103Q120-123 166.50-134Q213-145 269-145Q327-145 357.50-110.50Q388-76 388-10L388 4Q388 19 389 39Q390 59 392 71L387 71Q364 29 327.50 9.50Q291-10 241-10Q150-10 97.50 64Q45 138 45 270Q45 402 98.50 477Q152 552 243 552M283 449Q180 449 180 268Q180 90 285 90Q344 90 370 126.50Q396 163 396 250L396 269Q396 365 370 407Q344 449 283 449Z"  horiz-adv-x="592" vert-adv-y="1000"  />

      
      <glyph glyph-name="uni68" unicode="&#x68;" d="M205 760L205 579Q205 547 202.50 516.50Q200 486 198 471L206 471Q230 512 269 532Q308 552 355 552Q439 552 489.50 504.50Q540 457 540 353L540 0L407 0L407 328Q407 450 320 450Q254 450 229.50 402Q205 354 205 265L205 0L72 0L72 760L205 760Z"  horiz-adv-x="609" vert-adv-y="1000"  />

      
      <glyph glyph-name="uni69" unicode="&#x69;" d="M140 751Q168 751 189.50 736.50Q211 722 211 685Q211 648 189.50 633Q168 618 140 618Q109 618 88 633Q67 648 67 685Q67 722 88 736.50Q109 751 140 751M205 542L205 0L73 0L73 542L205 542Z"  horiz-adv-x="277" vert-adv-y="1000"  />

      
      <glyph glyph-name="uni6a" unicode="&#x6a;" d="M67 685Q67 722 88 736.50Q109 751 139 751Q168 751 189.50 736.50Q211 722 211 685Q211 648 189.50 633Q168 618 139 618Q109 618 88 633Q67 648 67 685M33-240Q10-240-14-236.50Q-38-233-53-228L-53-128Q-38-132-23.50-135Q-9-138 8-138Q35-138 54-121Q73-104 73-54L73 542L204 542L204-67Q204-117 187-156Q170-195 132.50-217.50Q95-240 33-240Z"  horiz-adv-x="277" vert-adv-y="1000"  />

      
      <glyph glyph-name="uni6b" unicode="&#x6b;" d="M204 760L204 399Q204 374 202 344.50Q200 315 197 289L201 289Q208 307 226 329.50Q244 352 260 371L401 542L551 542L354 308L563 0L410 0L263 232L204 180L204 0L72 0L72 760L204 760Z"  horiz-adv-x="566" vert-adv-y="1000"  />

      
      <glyph glyph-name="uni6c" unicode="&#x6c;" d="M205 0L72 0L72 760L205 760L205 0Z"  horiz-adv-x="277" vert-adv-y="1000"  />

      
      <glyph glyph-name="uni6d" unicode="&#x6d;" d="M667 552Q755 552 799 505Q843 458 843 353L843 0L712 0L712 329Q712 450 630 450Q572 450 548 407Q524 364 524 282L524 0L392 0L392 329Q392 450 310 450Q249 450 227 402Q205 354 205 265L205 0L72 0L72 542L174 542L193 471L199 471Q222 513 261 532.50Q300 552 350 552Q407 552 445.50 532Q484 512 505 468L512 468Q537 512 578.50 532Q620 552 667 552Z"  horiz-adv-x="913" vert-adv-y="1000"  />

      
      <glyph glyph-name="uni6e" unicode="&#x6e;" d="M357 552Q442 552 491 505Q540 458 540 353L540 0L407 0L407 328Q407 450 320 450Q253 450 229 402Q205 354 205 265L205 0L72 0L72 542L174 542L193 471L199 471Q223 513 265 532.50Q307 552 357 552Z"  horiz-adv-x="609" vert-adv-y="1000"  />

      
      <glyph glyph-name="uni6f" unicode="&#x6f;" d="M538 272Q538 137 471.50 63.50Q405-10 290-10Q219-10 163.50 23Q108 56 76.50 119Q45 182 45 272Q45 407 111.50 479.50Q178 552 293 552Q364 552 419.50 519.50Q475 487 506.50 424.50Q538 362 538 272M180 272Q180 186 206.50 139Q233 92 292 92Q350 92 376.50 139Q403 186 403 272Q403 358 376.50 404Q350 450 291 450Q232 450 206 404Q180 358 180 272Z"  horiz-adv-x="582" vert-adv-y="1000"  />

      
      <glyph glyph-name="uni70" unicode="&#x70;" d="M352 552Q440 552 493.50 481.50Q547 411 547 272Q547 133 491.50 61.50Q436-10 348-10Q292-10 258 12Q224 34 205 63L198 63Q200 44 202.50 22Q205 0 205-20L205-240L72-240L72 542L180 542L198 470L205 470Q225 504 259.50 528Q294 552 352 552M310 450Q252 450 228.50 410Q205 370 205 289L205 273Q205 186 227.50 139.50Q250 93 312 93Q362 93 387 141.50Q412 190 412 274Q412 358 387 404Q362 450 310 450Z"  horiz-adv-x="592" vert-adv-y="1000"  />

      
      <glyph glyph-name="uni71" unicode="&#x71;" d="M387-240L387-11Q387 8 388.50 30Q390 52 393 71L387 71Q368 37 332.50 13.50Q297-10 240-10Q153-10 99 60.50Q45 131 45 270Q45 409 99.50 480.50Q154 552 243 552Q300 552 335 528.50Q370 505 392 471L396 471L408 542L520 542L520-240L387-240M285 90Q346 90 370.50 130Q395 170 395 251L395 269Q395 357 371.50 403Q348 449 283 449Q231 449 205.50 401.50Q180 354 180 268Q180 181 206 135.50Q232 90 285 90Z"  horiz-adv-x="592" vert-adv-y="1000"  />

      
      <glyph glyph-name="uni72" unicode="&#x72;" d="M349 552Q362 552 377.50 550.50Q393 549 403 547L391 430Q369 435 339 435Q306 435 275 418.50Q244 402 224.50 368Q205 334 205 281L205 0L72 0L72 542L174 542L192 448L199 448Q222 491 261 521.50Q300 552 349 552Z"  horiz-adv-x="418" vert-adv-y="1000"  />

      
      <glyph glyph-name="uni73" unicode="&#x73;" d="M429 157Q429 75 375.50 32.50Q322-10 216-10Q162-10 122-2Q82 6 45 23L45 130Q85 111 131.50 98Q178 85 216 85Q261 85 281 101Q301 117 301 144Q301 160 292 173Q283 186 258 201Q233 216 185 237Q138 258 106.50 279Q75 300 59.50 329Q44 358 44 404Q44 477 99 514.50Q154 552 245 552Q294 552 336 542Q378 532 422 512L383 419Q346 435 310 446Q274 457 243 457Q172 457 172 410Q172 393 181.50 380.50Q191 368 215.50 355Q240 342 286 323Q332 304 363.50 283.50Q395 263 412 233.50Q429 204 429 157Z"  horiz-adv-x="468" vert-adv-y="1000"  />

      
      <glyph glyph-name="uni74" unicode="&#x74;" d="M284 91Q306 91 326.50 95.50Q347 100 365 106L365 12Q344 2 314-4Q284-10 247-10Q202-10 166 5Q130 20 109 58Q88 96 88 165L88 447L20 447L20 502L96 546L136 661L220 661L220 542L360 542L360 447L220 447L220 166Q220 128 237.50 109.50Q255 91 284 91Z"  horiz-adv-x="392" vert-adv-y="1000"  />

      
      <glyph glyph-name="uni75" unicode="&#x75;" d="M536 542L536 0L435 0L417 70L410 70Q385 28 342.50 9Q300-10 251-10Q168-10 118.50 37Q69 84 69 188L69 542L202 542L202 213Q202 152 222.50 122Q243 92 288 92Q355 92 379.50 140Q404 188 404 277L404 542L536 542Z"  horiz-adv-x="609" vert-adv-y="1000"  />

      
      <glyph glyph-name="uni76" unicode="&#x76;" d="M195 0L0 542L139 542L236 229Q245 200 251.50 165Q258 130 260 106L264 106Q266 132 273.50 166Q281 200 290 229L388 542L527 542L332 0L195 0Z"  horiz-adv-x="527" vert-adv-y="1000"  />

      
      <glyph glyph-name="uni77" unicode="&#x77;" d="M496 0L428 294Q420 330 412 366.50Q404 403 400 431L397 431Q394 403 386.50 365.50Q379 328 370 291L297 0L144 0L10 543L141 543L200 261Q208 221 215 180.50Q222 140 225 112L229 112Q231 130 235.50 157Q240 184 245.50 210.50Q251 237 255 252L327 543L472 543L542 252Q546 235 551 209.50Q556 184 560 158Q564 132 566 113L569 113Q572 139 579.50 179.50Q587 220 596 261L659 543L787 543L650 0L496 0Z"  horiz-adv-x="797" vert-adv-y="1000"  />

      
      <glyph glyph-name="uni78" unicode="&#x78;" d="M184 277L17 542L168 542L272 358L376 542L526 542L357 277L534 0L384 0L272 197L159 0L9 0L184 277Z"  horiz-adv-x="543" vert-adv-y="1000"  />

      
      <glyph glyph-name="uni79" unicode="&#x79;" d="M0 542L142 542L239 236Q249 208 255 179Q261 150 264 122L267 122Q271 148 277.50 177.50Q284 207 293 236L388 542L528 542L313-71Q284-153 233-196.50Q182-240 100-240Q77-240 59.50-237.50Q42-235 29-232L29-132Q39-134 53.50-136Q68-138 85-138Q128-138 153.50-110.50Q179-83 190-42L204 2L0 542Z"  horiz-adv-x="528" vert-adv-y="1000"  />

      
      <glyph glyph-name="uni7a" unicode="&#x7a;" d="M429 0L29 0L29 77L271 446L43 446L43 542L420 542L420 457L185 97L429 97L429 0Z"  horiz-adv-x="459" vert-adv-y="1000"  />

      
      <glyph glyph-name="uni7b" unicode="&#x7b;" d="M344-158Q228-158 183-123Q138-88 138-13L138 138Q138 187 106.50 207.50Q75 228 23 228L23 328Q75 328 106.50 348.50Q138 369 138 417L138 570Q138 644 183.50 679Q229 714 344 714L344 618Q306 617 280 600.50Q254 584 254 540L254 395Q254 299 147 281L147 275Q254 258 254 162L254 16Q254-29 280-45Q306-61 344-62L344-158Z"  horiz-adv-x="377" vert-adv-y="1000"  />

      
      <glyph glyph-name="uni7c" unicode="&#x7c;" d="M204 758L301 758L301-232L204-232L204 758Z"  horiz-adv-x="505" vert-adv-y="1000"  />

      
      <glyph glyph-name="uni7d" unicode="&#x7d;" d="M33-158L33-62Q71-61 97.50-44.50Q124-28 124 16L124 162Q124 257 230 275L230 281Q124 299 124 394L124 540Q124 585 97.50 601Q71 617 33 618L33 714Q111 714 156 698.50Q201 683 220 651Q239 619 239 569L239 418Q239 369 270.50 348.50Q302 328 355 328L355 228Q302 227 270.50 207Q239 187 239 138L239-14Q239-88 193.50-123Q148-158 33-158Z"  horiz-adv-x="377" vert-adv-y="1000"  />

      
      <glyph glyph-name="uni7e" unicode="&#x7e;" d="M251 308Q216 324 192.50 329.50Q169 335 147 335Q121 335 92 318Q63 301 40 276L40 376Q87 429 157 429Q185 429 212.50 423Q240 417 284 397Q318 381 342.50 375.50Q367 370 388 370Q414 370 443 387Q472 404 495 429L495 330Q447 276 378 276Q351 276 323 282Q295 288 251 308Z"  horiz-adv-x="536" vert-adv-y="1000"  />

      
      <glyph glyph-name="unia1" unicode="&#xa1;" d="M211 469Q211 426 188 409Q165 392 133 392Q101 392 78 409Q55 426 55 469Q55 510 78 528Q101 546 133 546Q165 546 188 528Q211 510 211 469M79 309L187 309L208-181L56-181L79 309Z"  horiz-adv-x="266" vert-adv-y="1000"  />

      
      <glyph glyph-name="unia2" unicode="&#xa2;" d="M342 724L342 646Q382 644 416.50 634.50Q451 625 479 613L439 513Q409 526 380 534.50Q351 543 323 543Q206 543 206 363Q206 273 236 230.50Q266 188 322 188Q363 188 397 197.50Q431 207 465 223L465 116Q437 102 408 94Q379 86 342 84L342-10L262-10L262 88Q174 102 122.50 166.50Q71 231 71 362Q71 454 95 513Q119 572 162 602.50Q205 633 262 642L262 724L342 724Z"  horiz-adv-x="542" vert-adv-y="1000"  />

      
      <glyph glyph-name="unia3" unicode="&#xa3;" d="M322 724Q373 724 418 712Q463 700 499 683L459 587Q427 601 395 611Q363 621 333 621Q297 621 275 598Q253 575 253 521L253 410L427 410L427 319L253 319L253 236Q253 180 231.50 151.50Q210 123 185 109L518 109L518 0L38 0L38 103Q77 119 99.50 146.50Q122 174 122 235L122 319L40 319L40 410L122 410L122 525Q122 628 178.50 676Q235 724 322 724Z"  horiz-adv-x="542" vert-adv-y="1000"  />

      
      <glyph glyph-name="unia4" unicode="&#xa4;" d="M85 353Q85 381 92 406.50Q99 432 110 454L51 519L115 581L175 518Q214 548 267 548Q292 548 314.50 540Q337 532 359 518L418 581L483 520L423 455Q435 434 442 407.50Q449 381 449 353Q449 296 423 250L481 187L418 126L359 188Q339 174 315.50 166.50Q292 159 267 159Q213 159 173 188L115 127L52 188L110 251Q85 298 85 353M176 353Q176 309 202.50 278Q229 247 267 247Q305 247 332 278Q359 309 359 353Q359 398 332 429Q305 460 267 460Q229 460 202.50 429Q176 398 176 353Z"  horiz-adv-x="536" vert-adv-y="1000"  />

      
      <glyph glyph-name="unia5" unicode="&#xa5;" d="M270 399L397 714L534 714L356 345L455 345L455 267L332 267L332 194L455 194L455 116L332 116L332 0L208 0L208 116L84 116L84 194L208 194L208 267L84 267L84 345L181 345L6 714L143 714L270 399Z"  horiz-adv-x="541" vert-adv-y="1000"  />

      
      <glyph glyph-name="unia6" unicode="&#xa6;" d="M204 758L301 758L301 367L204 367L204 758M204 159L301 159L301-232L204-232L204 159Z"  horiz-adv-x="505" vert-adv-y="1000"  />

      
      <glyph glyph-name="unia7" unicode="&#xa7;" d="M56 393Q56 438 77.50 468Q99 498 126 515Q94 534 77 562.50Q60 591 60 629Q60 691 109.50 728Q159 765 246 765Q295 765 335 754.50Q375 744 411 727L376 643Q344 658 312 669.50Q280 681 243 681Q202 681 184.50 668.50Q167 656 167 631Q167 606 189 587Q211 568 269 545Q341 516 380 478.50Q419 441 419 382Q419 332 399.50 301.50Q380 271 354 253Q382 234 398.50 208Q415 182 415 145Q415 74 362 33Q309-8 213-8Q163-8 123.50 1.50Q84 11 53 29L53 120Q88 102 132.50 88Q177 74 214 74Q267 74 287 92.50Q307 111 307 137Q307 154 299.50 167Q292 180 271 193.50Q250 207 208 225Q160 246 126 267.50Q92 289 74 318.50Q56 348 56 393M157 403Q157 371 182 346.50Q207 322 265 296L278 291Q292 302 304.50 321Q317 340 317 369Q317 402 293.50 427Q270 452 203 477Q185 470 171 450.50Q157 431 157 403Z"  horiz-adv-x="470" vert-adv-y="1000"  />

      
      <glyph glyph-name="unia8" unicode="&#xa8;" d="M124 684Q124 716 142 730Q160 744 186 744Q210 744 228.50 730Q247 716 247 684Q247 654 228.50 639.50Q210 625 186 625Q160 625 142 639.50Q124 654 124 684M317 684Q317 716 334.50 730Q352 744 378 744Q404 744 422.50 730Q441 716 441 684Q441 654 422.50 639.50Q404 625 378 625Q352 625 334.50 639.50Q317 654 317 684Z"  horiz-adv-x="560" vert-adv-y="1000"  />

      
      <glyph glyph-name="unia9" unicode="&#xa9;" d="M45 357Q45 433 71.50 499.50Q98 566 145.50 616.50Q193 667 255.50 695.50Q318 724 390 724Q462 724 524.50 695.50Q587 667 634.50 616.50Q682 566 708.50 499.50Q735 433 735 357Q735 281 708.50 214.50Q682 148 634.50 97.50Q587 47 524.50 18.50Q462-10 390-10Q318-10 255.50 18.50Q193 47 145.50 97.50Q98 148 71.50 214.50Q45 281 45 357M102 357Q102 292 124.50 235Q147 178 186.50 135Q226 92 278 67.50Q330 43 390 43Q449 43 501 67.50Q553 92 592.50 135Q632 178 654.50 235Q677 292 677 357Q677 422 654.50 479Q632 536 592.50 579Q553 622 501 646.50Q449 671 390 671Q330 671 278 646.50Q226 622 186.50 579Q147 536 124.50 479Q102 422 102 357M409 515Q360 515 332 472.50Q304 430 304 357Q304 280 329 239Q354 198 409 198Q433 198 461 204.50Q489 211 514 221L514 157Q489 146 463.50 139.50Q438 133 404 133Q309 133 261 194.50Q213 256 213 357Q213 422 235 472.50Q257 523 300 551.50Q343 580 406 580Q471 580 531 550L499 489Q452 515 409 515Z"  horiz-adv-x="780" vert-adv-y="1000"  />

      
      <glyph glyph-name="uniaa" unicode="&#xaa;" d="M184 722Q247 722 280.50 689.50Q314 657 314 597L314 379L255 379L239 429Q220 403 193 388Q166 373 129 373Q83 373 54 399Q25 425 25 478Q25 534 64.50 558.50Q104 583 180 587L227 589L227 602Q227 629 211 642Q195 655 168 655Q145 655 121 647Q97 639 71 627L44 686Q72 701 106 711.50Q140 722 184 722M227 536L184 533Q140 531 127 515.50Q114 500 114 479Q114 438 153 438Q190 438 208.50 460Q227 482 227 516L227 536Z"  horiz-adv-x="356" vert-adv-y="1000"  />

      
      <glyph glyph-name="uniab" unicode="&#xab;" d="M37 276L205 490L300 441L172 270L300 100L205 50L37 263L37 276M263 276L432 490L527 441L398 270L527 100L432 50L263 263L263 276Z"  horiz-adv-x="563" vert-adv-y="1000"  />

      
      <glyph glyph-name="uniac" unicode="&#xac;" d="M495 399L495 124L398 124L398 306L40 306L40 399L495 399Z"  horiz-adv-x="536" vert-adv-y="1000"  />

      
      <glyph glyph-name="uniad" unicode="&#xad;" d="M29 215L29 321L273 321L273 215L29 215Z"  horiz-adv-x="322" vert-adv-y="1000"  />

      
      <glyph glyph-name="uniae" unicode="&#xae;" d="M45 357Q45 433 71.50 499.50Q98 566 145.50 616.50Q193 667 255.50 695.50Q318 724 390 724Q462 724 524.50 695.50Q587 667 634.50 616.50Q682 566 708.50 499.50Q735 433 735 357Q735 281 708.50 214.50Q682 148 634.50 97.50Q587 47 524.50 18.50Q462-10 390-10Q318-10 255.50 18.50Q193 47 145.50 97.50Q98 148 71.50 214.50Q45 281 45 357M102 357Q102 292 124.50 235Q147 178 186.50 135Q226 92 278 67.50Q330 43 390 43Q449 43 501 67.50Q553 92 592.50 135Q632 178 654.50 235Q677 292 677 357Q677 422 654.50 479Q632 536 592.50 579Q553 622 501 646.50Q449 671 390 671Q330 671 278 646.50Q226 622 186.50 579Q147 536 124.50 479Q102 422 102 357M538 446Q538 399 516.50 371.50Q495 344 467 332L570 138L473 138L387 311L342 311L342 138L253 138L253 575L377 575Q460 575 499 542.50Q538 510 538 446M342 373L376 373Q410 373 429 392.50Q448 412 448 444Q448 479 430 495Q412 511 376 511L342 511L342 373Z"  horiz-adv-x="780" vert-adv-y="1000"  />

      
      <glyph glyph-name="uniaf" unicode="&#xaf;" d="M473 760L-3 760L-3 846L473 846L473 760Z"  horiz-adv-x="470" vert-adv-y="1000"  />

      
      <glyph glyph-name="unib0" unicode="&#xb0;" d="M43 561Q43 606 64 643Q85 680 120.50 702Q156 724 200 724Q244 724 279.50 702Q315 680 336.50 643Q358 606 358 561Q358 515 336.50 478Q315 441 279.50 419.50Q244 398 200 398Q156 398 120.50 419.50Q85 441 64 478Q43 515 43 561M126 561Q126 527 148 502.50Q170 478 201 478Q231 478 252.50 502.50Q274 527 274 561Q274 596 252.50 620Q231 644 201 644Q170 644 148 620Q126 596 126 561Z"  horiz-adv-x="401" vert-adv-y="1000"  />

      
      <glyph glyph-name="unib1" unicode="&#xb1;" d="M315 419L495 419L495 326L315 326L315 131L219 131L219 326L40 326L40 419L219 419L219 616L315 616L315 419M40 0L40 93L495 93L495 0L40 0Z"  horiz-adv-x="536" vert-adv-y="1000"  />

      
      <glyph glyph-name="unib2" unicode="&#xb2;" d="M317 416L27 416L27 487L131 596Q162 629 179 650.50Q196 672 202.50 689Q209 706 209 725Q209 748 196.50 760.50Q184 773 163 773Q126 773 77 730L26 794Q55 820 91.50 837Q128 854 177 854Q240 854 275.50 822.50Q311 791 311 733Q311 686 281.50 648.50Q252 611 202 557L148 500L317 500L317 416Z"  horiz-adv-x="353" vert-adv-y="1000"  />

      
      <glyph glyph-name="unib3" unicode="&#xb3;" d="M171 853Q236 853 272 822Q308 791 308 741Q308 668 235 642L235 637Q278 628 300 601Q322 574 322 537Q322 478 279.50 443Q237 408 154 408Q80 408 25 440L25 521Q56 503 88.50 492Q121 481 153 481Q225 481 225 542Q225 568 206.50 584.50Q188 601 144 601L92 601L92 670L137 670Q181 670 197.50 687.50Q214 705 214 729Q214 779 163 779Q138 779 116.50 769.50Q95 760 70 741L25 802Q54 824 89 838.50Q124 853 171 853Z"  horiz-adv-x="353" vert-adv-y="1000"  />

      
      <glyph glyph-name="unib4" unicode="&#xb4;" d="M295 766L295 756Q278 738 247.50 709Q217 680 184.50 652Q152 624 128 606L40 606L40 619Q54 638 74 663.50Q94 689 113.50 716.50Q133 744 146 766L295 766Z"  horiz-adv-x="335" vert-adv-y="1000"  />

      
      <glyph glyph-name="unib5" unicode="&#xb5;" d="M540 542L540 0L438 0L419 73L413 73Q374-10 291-10Q261-10 239.50 2Q218 14 202 34L200 34Q202 18 203.50-17Q205-52 205-84L205-240L72-240L72 542L205 542L205 213Q205 153 226 122.50Q247 92 293 92Q358 92 382.50 140Q407 188 407 277L407 542L540 542Z"  horiz-adv-x="612" vert-adv-y="1000"  />

      
      <glyph glyph-name="unib6" unicode="&#xb6;" d="M532-127L460-127L460 678L378 678L378-127L307-127L307 273Q278 264 243 264Q184 264 141 287Q98 310 74 364Q50 418 50 509Q50 604 76 659Q102 714 149 737Q196 760 257 760L532 760L532-127Z"  horiz-adv-x="612" vert-adv-y="1000"  />

      
      <glyph glyph-name="unib7" unicode="&#xb7;" d="M55 352Q55 394 77.50 411.50Q100 429 132 429Q164 429 186.50 411.50Q209 394 209 352Q209 311 186.50 293Q164 275 132 275Q100 275 77.50 293Q55 311 55 352Z"  horiz-adv-x="279" vert-adv-y="1000"  />

      
      <glyph glyph-name="unib8" unicode="&#xb8;" d="M223-128Q223-181 189.50-210.50Q156-240 87-240Q43-240 16-232L16-160Q28-163 44-165.50Q60-168 74-168Q96-168 109-160.50Q122-153 122-133Q122-91 45-79L80 0L157 0L142-39Q172-48 197.50-69.50Q223-91 223-128Z"  horiz-adv-x="235" vert-adv-y="1000"  />

      
      <glyph glyph-name="unib9" unicode="&#xb9;" d="M251 844L251 416L151 416L151 656Q151 678 152.50 707.50Q154 737 155 752Q148 744 137.50 733Q127 722 118 714L77 681L28 738L166 844L251 844Z"  horiz-adv-x="353" vert-adv-y="1000"  />

      
      <glyph glyph-name="uniba" unicode="&#xba;" d="M336 548Q336 465 293.50 419Q251 373 180 373Q112 373 69 418.50Q26 464 26 548Q26 632 68 677Q110 722 182 722Q249 722 292.50 677Q336 632 336 548M114 548Q114 496 130 469.50Q146 443 181 443Q246 443 246 548Q246 652 181 652Q114 652 114 548Z"  horiz-adv-x="362" vert-adv-y="1000"  />

      
      <glyph glyph-name="unibb" unicode="&#xbb;" d="M526 263L357 50L263 100L391 270L263 441L357 490L526 276L526 263M300 263L131 50L36 100L164 270L36 441L131 490L300 276L300 263Z"  horiz-adv-x="563" vert-adv-y="1000"  />

      
      <glyph glyph-name="unibc" unicode="&#xbc;" d="M142 0L520 714L625 714L248 0L142 0M139 286L139 526Q139 548 140 577.50Q141 607 143 622Q137 614 127.50 603Q118 592 108 584L66 551L17 608L155 714L240 714L240 286L139 286M603 0L603 82L426 82L426 149L601 431L704 431L704 156L761 156L761 82L704 82L704 0L603 0M508 156L603 156L603 241Q603 261 603.50 286Q604 311 606 335Q599 322 588 297.50Q577 273 569 258L508 156Z"  horiz-adv-x="770" vert-adv-y="1000"  />

      
      <glyph glyph-name="unibd" unicode="&#xbd;" d="M136 0L513 714L618 714L241 0L136 0M136 286L136 526Q136 548 137 577.50Q138 607 139 622Q126 602 103 584L62 551L13 608L151 714L236 714L236 286L136 286M478 0L478 71L581 180Q612 213 629 234.50Q646 256 652.50 273Q659 290 659 309Q659 357 614 357Q573 357 527 314L477 378Q508 404 544.50 421Q581 438 628 438Q690 438 726 406.50Q762 375 762 317Q762 270 739.50 231Q717 192 666 146L599 84L768 84L768 0L478 0Z"  horiz-adv-x="804" vert-adv-y="1000"  />

      
      <glyph glyph-name="unibe" unicode="&#xbe;" d="M161 278Q87 278 32 310L32 391Q61 373 93 362Q125 351 159 351Q231 351 231 412Q231 438 211.50 454.50Q192 471 150 471L99 471L99 540L143 540Q186 540 203.50 557.50Q221 575 221 599Q221 649 169 649Q144 649 123 639.50Q102 630 76 611L32 672Q62 694 97.50 708.50Q133 723 178 723Q242 723 278.50 692Q315 661 315 611Q315 538 242 512L242 507Q284 498 306 471Q328 444 328 407Q328 348 286 313Q244 278 161 278M183 0L560 714L665 714L288 0L183 0M629 0L629 82L453 82L453 149L627 431L730 431L730 156L787 156L787 82L730 82L730 0L629 0M534 156L629 156L629 241Q629 261 629.50 286Q630 311 631 335Q625 322 614 297.50Q603 273 595 258L534 156Z"  horiz-adv-x="795" vert-adv-y="1000"  />

      
      <glyph glyph-name="unibf" unicode="&#xbf;" d="M331 309L331 276Q331 224 313 188.50Q295 153 247 115Q216 90 198 71Q180 52 173 33Q166 14 166-10Q166-48 189.50-68Q213-88 254-88Q294-88 332.50-75Q371-62 410-42L457-136Q413-161 360-176.50Q307-192 244-192Q147-192 94-143.50Q41-95 41-16Q41 27 53.50 57Q66 87 91 113.50Q116 140 151 169Q180 193 195.50 210Q211 227 217 243.50Q223 260 223 284L223 309L331 309M350 468Q350 426 327 408.50Q304 391 272 391Q240 391 217.50 408.50Q195 426 195 468Q195 509 217.50 527Q240 545 272 545Q304 545 327 527Q350 509 350 468Z"  horiz-adv-x="461" vert-adv-y="1000"  />

      
      <glyph glyph-name="unic0" unicode="&#xc0;" d="M498 0L443 189L199 189L144 0L0 0L240 717L401 717L642 0L498 0M411 299L354 483Q347 508 337 544.50Q327 581 321 613Q314 576 305 542Q296 508 289 483L233 299L411 299Z"  horiz-adv-x="642" vert-adv-y="1000"  />

      
      <glyph glyph-name="unic1" unicode="&#xc1;" d="M498 0L443 189L199 189L144 0L0 0L240 717L401 717L642 0L498 0M411 299L354 483Q347 508 337 544.50Q327 581 321 613Q314 576 305 542Q296 508 289 483L233 299L411 299Z"  horiz-adv-x="642" vert-adv-y="1000"  />

      
      <glyph glyph-name="unic2" unicode="&#xc2;" d="M498 0L443 189L199 189L144 0L0 0L240 717L401 717L642 0L498 0M411 299L354 483Q347 508 337 544.50Q327 581 321 613Q314 576 305 542Q296 508 289 483L233 299L411 299Z"  horiz-adv-x="642" vert-adv-y="1000"  />

      
      <glyph glyph-name="unic3" unicode="&#xc3;" d="M498 0L443 189L199 189L144 0L0 0L240 717L401 717L642 0L498 0M411 299L354 483Q347 508 337 544.50Q327 581 321 613Q314 576 305 542Q296 508 289 483L233 299L411 299Z"  horiz-adv-x="642" vert-adv-y="1000"  />

      
      <glyph glyph-name="unic4" unicode="&#xc4;" d="M498 0L443 189L199 189L144 0L0 0L240 717L401 717L642 0L498 0M411 299L354 483Q347 508 337 544.50Q327 581 321 613Q314 576 305 542Q296 508 289 483L233 299L411 299Z"  horiz-adv-x="642" vert-adv-y="1000"  />

      
      <glyph glyph-name="unic5" unicode="&#xc5;" d="M498 0L443 189L199 189L144 0L0 0L240 717L401 717L642 0L498 0M411 299L354 483Q347 508 337 544.50Q327 581 321 613Q314 576 305 542Q296 508 289 483L233 299L411 299M311 655Q261 655 230 685Q199 715 199 768Q199 820 230 849.50Q261 879 311 879Q359 879 392.50 849.50Q426 820 426 769Q426 715 393 685Q360 655 311 655M311 717Q331 717 343.50 730.50Q356 744 356 768Q356 791 343.50 804.50Q331 818 311 818Q291 818 278.50 804.50Q266 791 266 768Q266 717 311 717Z"  horiz-adv-x="642" vert-adv-y="1000"  />

      
      <glyph glyph-name="unic6" unicode="&#xc6;" d="M817 0L435 0L435 189L214 189L141 0L-2 0L302 714L817 714L817 607L569 607L569 425L801 425L801 318L569 318L569 108L817 108L817 0M260 299L435 299L435 603L380 603L260 299Z"  horiz-adv-x="870" vert-adv-y="1000"  />

      
      <glyph glyph-name="unic7" unicode="&#xc7;" d="M373 616Q288 616 240 546.50Q192 477 192 356Q192 234 237.50 166Q283 98 376 98Q419 98 459.50 107.50Q500 117 543 133L543 24Q501 6 458-2Q415-10 361-10Q256-10 187.50 35.50Q119 81 86 163.50Q53 246 53 357Q53 465 90 547.50Q127 630 198.50 677Q270 724 374 724Q424 724 477 712Q530 700 570 677L525 572Q490 589 452 602.50Q414 616 373 616M497-128Q497-181 463.50-210.50Q430-240 361-240Q317-240 290-232L290-160Q302-163 318-165.50Q334-168 348-168Q370-168 383-160.50Q396-153 396-133Q396-91 319-79L354 0L431 0L416-39Q446-48 471.50-69.50Q497-91 497-128Z"  horiz-adv-x="600" vert-adv-y="1000"  />

      
      <glyph glyph-name="unic8" unicode="&#xc8;" d="M469 0L84 0L84 714L469 714L469 607L218 607L218 425L453 425L453 318L218 318L218 108L469 108L469 0Z"  horiz-adv-x="522" vert-adv-y="1000"  />

      
      <glyph glyph-name="unic9" unicode="&#xc9;" d="M469 0L84 0L84 714L469 714L469 607L218 607L218 425L453 425L453 318L218 318L218 108L469 108L469 0Z"  horiz-adv-x="522" vert-adv-y="1000"  />

      
      <glyph glyph-name="unica" unicode="&#xca;" d="M469 0L84 0L84 714L469 714L469 607L218 607L218 425L453 425L453 318L218 318L218 108L469 108L469 0Z"  horiz-adv-x="522" vert-adv-y="1000"  />

      
      <glyph glyph-name="unicb" unicode="&#xcb;" d="M469 0L84 0L84 714L469 714L469 607L218 607L218 425L453 425L453 318L218 318L218 108L469 108L469 0Z"  horiz-adv-x="522" vert-adv-y="1000"  />

      
      <glyph glyph-name="unicc" unicode="&#xcc;" d="M330 0L33 0L33 73L115 105L115 608L33 641L33 714L330 714L330 641L249 608L249 105L330 73L330 0Z"  horiz-adv-x="364" vert-adv-y="1000"  />

      
      <glyph glyph-name="unicd" unicode="&#xcd;" d="M330 0L33 0L33 73L115 105L115 608L33 641L33 714L330 714L330 641L249 608L249 105L330 73L330 0Z"  horiz-adv-x="364" vert-adv-y="1000"  />

      
      <glyph glyph-name="unice" unicode="&#xce;" d="M330 0L33 0L33 73L115 105L115 608L33 641L33 714L330 714L330 641L249 608L249 105L330 73L330 0Z"  horiz-adv-x="364" vert-adv-y="1000"  />

      
      <glyph glyph-name="unicf" unicode="&#xcf;" d="M330 0L33 0L33 73L115 105L115 608L33 641L33 714L330 714L330 641L249 608L249 105L330 73L330 0Z"  horiz-adv-x="364" vert-adv-y="1000"  />

      
      <glyph glyph-name="unid0" unicode="&#xd0;" d="M299 714Q456 714 546.50 625Q637 536 637 364Q637 183 541.50 91.50Q446 0 280 0L86 0L86 300L22 300L22 406L86 406L86 714L299 714M298 608L220 608L220 406L345 406L345 300L220 300L220 107L283 107Q497 107 497 360Q497 488 445.50 548Q394 608 298 608Z"  horiz-adv-x="691" vert-adv-y="1000"  />

      
      <glyph glyph-name="unid1" unicode="&#xd1;" d="M670 0L501 0L200 560L196 560Q198 515 200.50 463.50Q203 412 204 360L204 0L84 0L84 714L252 714L552 158L556 158Q554 198 551.50 250Q549 302 549 351L549 714L670 714L670 0Z"  horiz-adv-x="754" vert-adv-y="1000"  />

      
      <glyph glyph-name="unid2" unicode="&#xd2;" d="M690 358Q690 247 655.50 164.50Q621 82 550.50 36Q480-10 372-10Q263-10 192.50 36Q122 82 87.50 165Q53 248 53 359Q53 469 87.50 551.50Q122 634 193 679.50Q264 725 373 725Q480 725 550.50 679.50Q621 634 655.50 551.50Q690 469 690 358M195 358Q195 237 237 168Q279 99 372 99Q466 99 507 168Q548 237 548 358Q548 479 507 548Q466 617 373 617Q279 617 237 548Q195 479 195 358Z"  horiz-adv-x="744" vert-adv-y="1000"  />

      
      <glyph glyph-name="unid3" unicode="&#xd3;" d="M690 358Q690 247 655.50 164.50Q621 82 550.50 36Q480-10 372-10Q263-10 192.50 36Q122 82 87.50 165Q53 248 53 359Q53 469 87.50 551.50Q122 634 193 679.50Q264 725 373 725Q480 725 550.50 679.50Q621 634 655.50 551.50Q690 469 690 358M195 358Q195 237 237 168Q279 99 372 99Q466 99 507 168Q548 237 548 358Q548 479 507 548Q466 617 373 617Q279 617 237 548Q195 479 195 358Z"  horiz-adv-x="744" vert-adv-y="1000"  />

      
      <glyph glyph-name="unid4" unicode="&#xd4;" d="M690 358Q690 247 655.50 164.50Q621 82 550.50 36Q480-10 372-10Q263-10 192.50 36Q122 82 87.50 165Q53 248 53 359Q53 469 87.50 551.50Q122 634 193 679.50Q264 725 373 725Q480 725 550.50 679.50Q621 634 655.50 551.50Q690 469 690 358M195 358Q195 237 237 168Q279 99 372 99Q466 99 507 168Q548 237 548 358Q548 479 507 548Q466 617 373 617Q279 617 237 548Q195 479 195 358Z"  horiz-adv-x="744" vert-adv-y="1000"  />

      
      <glyph glyph-name="unid5" unicode="&#xd5;" d="M690 358Q690 247 655.50 164.50Q621 82 550.50 36Q480-10 372-10Q263-10 192.50 36Q122 82 87.50 165Q53 248 53 359Q53 469 87.50 551.50Q122 634 193 679.50Q264 725 373 725Q480 725 550.50 679.50Q621 634 655.50 551.50Q690 469 690 358M195 358Q195 237 237 168Q279 99 372 99Q466 99 507 168Q548 237 548 358Q548 479 507 548Q466 617 373 617Q279 617 237 548Q195 479 195 358Z"  horiz-adv-x="744" vert-adv-y="1000"  />

      
      <glyph glyph-name="unid6" unicode="&#xd6;" d="M690 358Q690 247 655.50 164.50Q621 82 550.50 36Q480-10 372-10Q263-10 192.50 36Q122 82 87.50 165Q53 248 53 359Q53 469 87.50 551.50Q122 634 193 679.50Q264 725 373 725Q480 725 550.50 679.50Q621 634 655.50 551.50Q690 469 690 358M195 358Q195 237 237 168Q279 99 372 99Q466 99 507 168Q548 237 548 358Q548 479 507 548Q466 617 373 617Q279 617 237 548Q195 479 195 358Z"  horiz-adv-x="744" vert-adv-y="1000"  />

      
      <glyph glyph-name="unid7" unicode="&#xd7;" d="M409 575L476 510L333 353L474 197L409 131L266 287L125 132L59 197L199 353L58 508L125 575L266 419L409 575Z"  horiz-adv-x="536" vert-adv-y="1000"  />

      
      <glyph glyph-name="unid8" unicode="&#xd8;" d="M690 358Q690 247 655.50 164.50Q621 82 550.50 36Q480-10 372-10Q279-10 215 28L173-39L100 9L143 78Q97 127 75 198.50Q53 270 53 359Q53 469 87.50 551.50Q122 634 193 679.50Q264 725 373 725Q420 725 459.50 715Q499 705 531 687L571 750L643 703L601 636Q646 588 668 517Q690 446 690 358M195 358Q195 307 201.50 264.50Q208 222 223 190L464 590Q424 617 373 617Q279 617 237 548Q195 479 195 358M548 358Q548 409 541.50 450.50Q535 492 521 524L282 125Q319 99 372 99Q466 99 507 168Q548 237 548 358Z"  horiz-adv-x="744" vert-adv-y="1000"  />

      
      <glyph glyph-name="unid9" unicode="&#xd9;" d="M625 714L625 252Q625 178 594.50 118.50Q564 59 502.50 24.50Q441-10 348-10Q216-10 147 62.50Q78 135 78 254L78 714L212 714L212 267Q212 179 247 139Q282 99 352 99Q425 99 457.50 142.50Q490 186 490 268L490 714L625 714Z"  horiz-adv-x="703" vert-adv-y="1000"  />

      
      <glyph glyph-name="unida" unicode="&#xda;" d="M625 714L625 252Q625 178 594.50 118.50Q564 59 502.50 24.50Q441-10 348-10Q216-10 147 62.50Q78 135 78 254L78 714L212 714L212 267Q212 179 247 139Q282 99 352 99Q425 99 457.50 142.50Q490 186 490 268L490 714L625 714Z"  horiz-adv-x="703" vert-adv-y="1000"  />

      
      <glyph glyph-name="unidb" unicode="&#xdb;" d="M625 714L625 252Q625 178 594.50 118.50Q564 59 502.50 24.50Q441-10 348-10Q216-10 147 62.50Q78 135 78 254L78 714L212 714L212 267Q212 179 247 139Q282 99 352 99Q425 99 457.50 142.50Q490 186 490 268L490 714L625 714Z"  horiz-adv-x="703" vert-adv-y="1000"  />

      
      <glyph glyph-name="unidc" unicode="&#xdc;" d="M625 714L625 252Q625 178 594.50 118.50Q564 59 502.50 24.50Q441-10 348-10Q216-10 147 62.50Q78 135 78 254L78 714L212 714L212 267Q212 179 247 139Q282 99 352 99Q425 99 457.50 142.50Q490 186 490 268L490 714L625 714Z"  horiz-adv-x="703" vert-adv-y="1000"  />

      
      <glyph glyph-name="unidd" unicode="&#xdd;" d="M290 399L434 714L579 714L357 278L357 0L223 0L223 273L0 714L146 714L290 399Z"  horiz-adv-x="579" vert-adv-y="1000"  />

      
      <glyph glyph-name="unide" unicode="&#xde;" d="M542 378Q542 318 518 265.50Q494 213 438 180.50Q382 148 284 148L218 148L218 0L84 0L84 714L218 714L218 597L293 597Q423 597 482.50 538Q542 479 542 378M218 252L267 252Q335 252 370.50 281Q406 310 406 376Q406 435 376.50 463.50Q347 492 281 492L218 492L218 252Z"  horiz-adv-x="583" vert-adv-y="1000"  />

      
      <glyph glyph-name="unidf" unicode="&#xdf;" d="M557 610Q557 574 544 547.50Q531 521 512 501.50Q493 482 474 466.50Q455 451 442 437.50Q429 424 429 409Q429 390 449.50 373Q470 356 521 321Q568 287 593.50 251.50Q619 216 619 157Q619 73 567.50 31.50Q516-10 421-10Q371-10 336-2Q301 6 274 22L274 125Q297 109 334.50 96Q372 83 404 83Q483 83 483 153Q483 173 476.50 188Q470 203 451.50 219Q433 235 397 258Q339 295 317 324Q295 353 295 393Q295 424 308 446Q321 468 339.50 484.50Q358 501 377 516Q396 531 409 549Q422 567 422 592Q422 627 393 646Q364 665 318 665Q268 665 236.50 641.50Q205 618 205 563L205 0L72 0L72 567Q72 636 104 680Q136 724 192 744.50Q248 765 318 765Q388 765 441.50 747.50Q495 730 526 695Q557 660 557 610Z"  horiz-adv-x="654" vert-adv-y="1000"  />

      
      <glyph glyph-name="unie0" unicode="&#xe0;" d="M289 552Q387 552 439 506Q491 460 491 364L491 0L398 0L372 75L368 75Q335 31 298.50 10.50Q262-10 198-10Q130-10 84.50 31Q39 72 39 158Q39 242 97 284Q155 326 272 331L358 334L358 361Q358 413 336.50 435Q315 457 276 457Q239 457 202.50 445.50Q166 434 132 417L91 505Q131 526 181 539Q231 552 289 552M359 256L302 254Q231 251 203 225.50Q175 200 175 157Q175 118 194.50 101.50Q214 85 246 85Q293 85 326 116.50Q359 148 359 210L359 256Z"  horiz-adv-x="560" vert-adv-y="1000"  />

      
      <glyph glyph-name="unie1" unicode="&#xe1;" d="M289 552Q387 552 439 506Q491 460 491 364L491 0L398 0L372 75L368 75Q335 31 298.50 10.50Q262-10 198-10Q130-10 84.50 31Q39 72 39 158Q39 242 97 284Q155 326 272 331L358 334L358 361Q358 413 336.50 435Q315 457 276 457Q239 457 202.50 445.50Q166 434 132 417L91 505Q131 526 181 539Q231 552 289 552M359 256L302 254Q231 251 203 225.50Q175 200 175 157Q175 118 194.50 101.50Q214 85 246 85Q293 85 326 116.50Q359 148 359 210L359 256Z"  horiz-adv-x="560" vert-adv-y="1000"  />

      
      <glyph glyph-name="unie2" unicode="&#xe2;" d="M289 552Q387 552 439 506Q491 460 491 364L491 0L398 0L372 75L368 75Q335 31 298.50 10.50Q262-10 198-10Q130-10 84.50 31Q39 72 39 158Q39 242 97 284Q155 326 272 331L358 334L358 361Q358 413 336.50 435Q315 457 276 457Q239 457 202.50 445.50Q166 434 132 417L91 505Q131 526 181 539Q231 552 289 552M359 256L302 254Q231 251 203 225.50Q175 200 175 157Q175 118 194.50 101.50Q214 85 246 85Q293 85 326 116.50Q359 148 359 210L359 256Z"  horiz-adv-x="560" vert-adv-y="1000"  />

      
      <glyph glyph-name="unie3" unicode="&#xe3;" d="M289 552Q387 552 439 506Q491 460 491 364L491 0L398 0L372 75L368 75Q335 31 298.50 10.50Q262-10 198-10Q130-10 84.50 31Q39 72 39 158Q39 242 97 284Q155 326 272 331L358 334L358 361Q358 413 336.50 435Q315 457 276 457Q239 457 202.50 445.50Q166 434 132 417L91 505Q131 526 181 539Q231 552 289 552M359 256L302 254Q231 251 203 225.50Q175 200 175 157Q175 118 194.50 101.50Q214 85 246 85Q293 85 326 116.50Q359 148 359 210L359 256Z"  horiz-adv-x="560" vert-adv-y="1000"  />

      
      <glyph glyph-name="unie4" unicode="&#xe4;" d="M289 552Q387 552 439 506Q491 460 491 364L491 0L398 0L372 75L368 75Q335 31 298.50 10.50Q262-10 198-10Q130-10 84.50 31Q39 72 39 158Q39 242 97 284Q155 326 272 331L358 334L358 361Q358 413 336.50 435Q315 457 276 457Q239 457 202.50 445.50Q166 434 132 417L91 505Q131 526 181 539Q231 552 289 552M359 256L302 254Q231 251 203 225.50Q175 200 175 157Q175 118 194.50 101.50Q214 85 246 85Q293 85 326 116.50Q359 148 359 210L359 256Z"  horiz-adv-x="560" vert-adv-y="1000"  />

      
      <glyph glyph-name="unie5" unicode="&#xe5;" d="M289 552Q387 552 439 506Q491 460 491 364L491 0L398 0L372 75L368 75Q335 31 298.50 10.50Q262-10 198-10Q130-10 84.50 31Q39 72 39 158Q39 242 97 284Q155 326 272 331L358 334L358 361Q358 413 336.50 435Q315 457 276 457Q239 457 202.50 445.50Q166 434 132 417L91 505Q131 526 181 539Q231 552 289 552M359 256L302 254Q231 251 203 225.50Q175 200 175 157Q175 118 194.50 101.50Q214 85 246 85Q293 85 326 116.50Q359 148 359 210L359 256Z"  horiz-adv-x="560" vert-adv-y="1000"  />

      
      <glyph glyph-name="unie6" unicode="&#xe6;" d="M594 552Q658 552 706 522.50Q754 493 781 438.50Q808 384 808 307L808 242L483 242Q484 166 518 126.50Q552 87 614 87Q658 87 698 97.50Q738 108 780 128L780 27Q742 8 701.50-1Q661-10 603-10Q541-10 490 16.50Q439 43 407 96Q380 61 353 37.50Q326 14 290 2Q254-10 202-10Q158-10 120.50 8Q83 26 61 63Q39 100 39 158Q39 242 97.50 284.50Q156 327 266 331L351 334L351 372Q351 418 328.50 437.50Q306 457 270 457Q234 457 198 446Q162 435 128 418L88 505Q127 526 176.50 539Q226 552 279 552Q331 552 369.50 535Q408 518 434 480Q462 515 501.50 533.50Q541 552 594 552M590 459Q544 459 517 426.50Q490 394 485 330L682 330Q682 387 658.50 423Q635 459 590 459M351 256L297 254Q228 251 201.50 225.50Q175 200 175 157Q175 118 194 101.50Q213 85 243 85Q288 85 319.50 116.50Q351 148 351 210L351 256Z"  horiz-adv-x="850" vert-adv-y="1000"  />

      
      <glyph glyph-name="unie7" unicode="&#xe7;" d="M288-10Q176-10 110.50 57Q45 124 45 268Q45 368 77.50 430.50Q110 493 167 522.50Q224 552 298 552Q344 552 384.50 542Q425 532 452 518L412 421Q385 432 358 440Q331 448 303 448Q180 448 180 269Q180 182 212 138Q244 94 302 94Q341 94 374.50 105Q408 116 438 135L438 26Q407 7 372.50-1.50Q338-10 288-10M414-128Q414-181 380.50-210.50Q347-240 278-240Q234-240 207-232L207-160Q219-163 235-165.50Q251-168 265-168Q287-168 300-160.50Q313-153 313-133Q313-91 236-79L271 0L348 0L333-39Q363-48 388.50-69.50Q414-91 414-128Z"  horiz-adv-x="480" vert-adv-y="1000"  />

      
      <glyph glyph-name="unie8" unicode="&#xe8;" d="M285 552Q390 552 451 487Q512 422 512 306L512 242L180 242Q182 168 216 127.50Q250 87 314 87Q363 87 402.50 97.50Q442 108 484 128L484 27Q446 8 404.50-1Q363-10 304-10Q228-10 169.50 20.50Q111 51 78 112.50Q45 174 45 267Q45 406 111.50 479Q178 552 285 552M287 459Q243 459 214.50 426.50Q186 394 182 330L386 330Q385 386 361 422.50Q337 459 287 459Z"  horiz-adv-x="554" vert-adv-y="1000"  />

      
      <glyph glyph-name="unie9" unicode="&#xe9;" d="M285 552Q390 552 451 487Q512 422 512 306L512 242L180 242Q182 168 216 127.50Q250 87 314 87Q363 87 402.50 97.50Q442 108 484 128L484 27Q446 8 404.50-1Q363-10 304-10Q228-10 169.50 20.50Q111 51 78 112.50Q45 174 45 267Q45 406 111.50 479Q178 552 285 552M287 459Q243 459 214.50 426.50Q186 394 182 330L386 330Q385 386 361 422.50Q337 459 287 459Z"  horiz-adv-x="554" vert-adv-y="1000"  />

      
      <glyph glyph-name="uniea" unicode="&#xea;" d="M285 552Q390 552 451 487Q512 422 512 306L512 242L180 242Q182 168 216 127.50Q250 87 314 87Q363 87 402.50 97.50Q442 108 484 128L484 27Q446 8 404.50-1Q363-10 304-10Q228-10 169.50 20.50Q111 51 78 112.50Q45 174 45 267Q45 406 111.50 479Q178 552 285 552M287 459Q243 459 214.50 426.50Q186 394 182 330L386 330Q385 386 361 422.50Q337 459 287 459Z"  horiz-adv-x="554" vert-adv-y="1000"  />

      
      <glyph glyph-name="unieb" unicode="&#xeb;" d="M285 552Q390 552 451 487Q512 422 512 306L512 242L180 242Q182 168 216 127.50Q250 87 314 87Q363 87 402.50 97.50Q442 108 484 128L484 27Q446 8 404.50-1Q363-10 304-10Q228-10 169.50 20.50Q111 51 78 112.50Q45 174 45 267Q45 406 111.50 479Q178 552 285 552M287 459Q243 459 214.50 426.50Q186 394 182 330L386 330Q385 386 361 422.50Q337 459 287 459Z"  horiz-adv-x="554" vert-adv-y="1000"  />

      
      <glyph glyph-name="uniec" unicode="&#xec;" d="M205 0L72 0L72 542L205 542L205 0Z"  horiz-adv-x="277" vert-adv-y="1000"  />

      
      <glyph glyph-name="unied" unicode="&#xed;" d="M205 0L72 0L72 542L205 542L205 0Z"  horiz-adv-x="277" vert-adv-y="1000"  />

      
      <glyph glyph-name="uniee" unicode="&#xee;" d="M205 0L72 0L72 542L205 542L205 0Z"  horiz-adv-x="277" vert-adv-y="1000"  />

      
      <glyph glyph-name="unief" unicode="&#xef;" d="M205 0L72 0L72 542L205 542L205 0Z"  horiz-adv-x="277" vert-adv-y="1000"  />

      
      <glyph glyph-name="unif0" unicode="&#xf0;" d="M211 765Q244 749 274 731.50Q304 714 330 695L433 762L477 695L398 642Q464 577 501 487.50Q538 398 538 278Q538 138 471 64Q404-10 289-10Q218-10 163 19.50Q108 49 76.50 104Q45 159 45 237Q45 314 73 368.50Q101 423 150.50 452Q200 481 265 481Q361 481 394 429L398 431Q384 478 361 516Q338 554 307 587L202 516L158 584L242 641Q226 653 207 665Q188 677 168 689L211 765M291 386Q231 386 205 347.50Q179 309 179 235Q179 169 205.50 127.50Q232 86 291 86Q351 86 377 129Q403 172 403 257Q403 309 376 347.50Q349 386 291 386Z"  horiz-adv-x="584" vert-adv-y="1000"  />

      
      <glyph glyph-name="unif1" unicode="&#xf1;" d="M357 552Q442 552 491 505Q540 458 540 353L540 0L407 0L407 328Q407 450 320 450Q253 450 229 402Q205 354 205 265L205 0L72 0L72 542L174 542L193 471L199 471Q223 513 265 532.50Q307 552 357 552Z"  horiz-adv-x="609" vert-adv-y="1000"  />

      
      <glyph glyph-name="unif2" unicode="&#xf2;" d="M538 272Q538 137 471.50 63.50Q405-10 290-10Q219-10 163.50 23Q108 56 76.50 119Q45 182 45 272Q45 407 111.50 479.50Q178 552 293 552Q364 552 419.50 519.50Q475 487 506.50 424.50Q538 362 538 272M180 272Q180 186 206.50 139Q233 92 292 92Q350 92 376.50 139Q403 186 403 272Q403 358 376.50 404Q350 450 291 450Q232 450 206 404Q180 358 180 272Z"  horiz-adv-x="582" vert-adv-y="1000"  />

      
      <glyph glyph-name="unif3" unicode="&#xf3;" d="M538 272Q538 137 471.50 63.50Q405-10 290-10Q219-10 163.50 23Q108 56 76.50 119Q45 182 45 272Q45 407 111.50 479.50Q178 552 293 552Q364 552 419.50 519.50Q475 487 506.50 424.50Q538 362 538 272M180 272Q180 186 206.50 139Q233 92 292 92Q350 92 376.50 139Q403 186 403 272Q403 358 376.50 404Q350 450 291 450Q232 450 206 404Q180 358 180 272Z"  horiz-adv-x="582" vert-adv-y="1000"  />

      
      <glyph glyph-name="unif4" unicode="&#xf4;" d="M538 272Q538 137 471.50 63.50Q405-10 290-10Q219-10 163.50 23Q108 56 76.50 119Q45 182 45 272Q45 407 111.50 479.50Q178 552 293 552Q364 552 419.50 519.50Q475 487 506.50 424.50Q538 362 538 272M180 272Q180 186 206.50 139Q233 92 292 92Q350 92 376.50 139Q403 186 403 272Q403 358 376.50 404Q350 450 291 450Q232 450 206 404Q180 358 180 272Z"  horiz-adv-x="582" vert-adv-y="1000"  />

      
      <glyph glyph-name="unif5" unicode="&#xf5;" d="M538 272Q538 137 471.50 63.50Q405-10 290-10Q219-10 163.50 23Q108 56 76.50 119Q45 182 45 272Q45 407 111.50 479.50Q178 552 293 552Q364 552 419.50 519.50Q475 487 506.50 424.50Q538 362 538 272M180 272Q180 186 206.50 139Q233 92 292 92Q350 92 376.50 139Q403 186 403 272Q403 358 376.50 404Q350 450 291 450Q232 450 206 404Q180 358 180 272Z"  horiz-adv-x="582" vert-adv-y="1000"  />

      
      <glyph glyph-name="unif6" unicode="&#xf6;" d="M538 272Q538 137 471.50 63.50Q405-10 290-10Q219-10 163.50 23Q108 56 76.50 119Q45 182 45 272Q45 407 111.50 479.50Q178 552 293 552Q364 552 419.50 519.50Q475 487 506.50 424.50Q538 362 538 272M180 272Q180 186 206.50 139Q233 92 292 92Q350 92 376.50 139Q403 186 403 272Q403 358 376.50 404Q350 450 291 450Q232 450 206 404Q180 358 180 272Z"  horiz-adv-x="582" vert-adv-y="1000"  />

      
      <glyph glyph-name="unif7" unicode="&#xf7;" d="M267 454Q242 454 223.50 470Q205 486 205 523Q205 561 223.50 576.50Q242 592 267 592Q292 592 310.50 576.50Q329 561 329 523Q329 486 310.50 470Q292 454 267 454M40 306L40 399L495 399L495 306L40 306M267 113Q242 113 223.50 129Q205 145 205 182Q205 220 223.50 235.50Q242 251 267 251Q292 251 310.50 235.50Q329 220 329 182Q329 145 310.50 129Q292 113 267 113Z"  horiz-adv-x="536" vert-adv-y="1000"  />

      
      <glyph glyph-name="unif8" unicode="&#xf8;" d="M546 272Q546 137 478.50 63.50Q411-10 294-10Q232-10 182 16L147-35L79 11L116 65Q82 102 63.50 153Q45 204 45 272Q45 407 112 479.50Q179 552 297 552Q360 552 412 523L443 569L510 522L477 472Q509 437 527.50 386.50Q546 336 546 272M177 272Q177 243 179.50 218Q182 193 189 173L353 433Q328 450 295 450Q232 450 204.50 404Q177 358 177 272M414 272Q414 298 411.50 320.50Q409 343 403 361L243 105Q266 92 296 92Q359 92 386.50 139Q414 186 414 272Z"  horiz-adv-x="591" vert-adv-y="1000"  />

      
      <glyph glyph-name="unif9" unicode="&#xf9;" d="M536 542L536 0L435 0L417 70L410 70Q385 28 342.50 9Q300-10 251-10Q168-10 118.50 37Q69 84 69 188L69 542L202 542L202 213Q202 152 222.50 122Q243 92 288 92Q355 92 379.50 140Q404 188 404 277L404 542L536 542Z"  horiz-adv-x="609" vert-adv-y="1000"  />

      
      <glyph glyph-name="unifa" unicode="&#xfa;" d="M536 542L536 0L435 0L417 70L410 70Q385 28 342.50 9Q300-10 251-10Q168-10 118.50 37Q69 84 69 188L69 542L202 542L202 213Q202 152 222.50 122Q243 92 288 92Q355 92 379.50 140Q404 188 404 277L404 542L536 542Z"  horiz-adv-x="609" vert-adv-y="1000"  />

      
      <glyph glyph-name="unifb" unicode="&#xfb;" d="M536 542L536 0L435 0L417 70L410 70Q385 28 342.50 9Q300-10 251-10Q168-10 118.50 37Q69 84 69 188L69 542L202 542L202 213Q202 152 222.50 122Q243 92 288 92Q355 92 379.50 140Q404 188 404 277L404 542L536 542Z"  horiz-adv-x="609" vert-adv-y="1000"  />

      
      <glyph glyph-name="unifc" unicode="&#xfc;" d="M536 542L536 0L435 0L417 70L410 70Q385 28 342.50 9Q300-10 251-10Q168-10 118.50 37Q69 84 69 188L69 542L202 542L202 213Q202 152 222.50 122Q243 92 288 92Q355 92 379.50 140Q404 188 404 277L404 542L536 542Z"  horiz-adv-x="609" vert-adv-y="1000"  />

      
      <glyph glyph-name="unifd" unicode="&#xfd;" d="M0 542L142 542L239 236Q249 208 255 179Q261 150 264 122L267 122Q271 148 277.50 177.50Q284 207 293 236L388 542L528 542L313-71Q284-153 233-196.50Q182-240 100-240Q77-240 59.50-237.50Q42-235 29-232L29-132Q39-134 53.50-136Q68-138 85-138Q128-138 153.50-110.50Q179-83 190-42L204 2L0 542Z"  horiz-adv-x="528" vert-adv-y="1000"  />

      
      <glyph glyph-name="unife" unicode="&#xfe;" d="M547 272Q547 133 492.50 61.50Q438-10 349-10Q295-10 260.50 11Q226 32 205 61L198 61Q200 48 202.50 23Q205-2 205-18L205-240L72-240L72 760L205 760L205 557Q205 536 202.50 510.50Q200 485 199 471L205 471Q225 505 260.50 528.50Q296 552 352 552Q439 552 493 481Q547 410 547 272M412 274Q412 362 388 406Q364 450 311 450Q253 450 229 410Q205 370 205 290L205 273Q205 186 228 139.50Q251 93 313 93Q365 93 388.50 139.50Q412 186 412 274Z"  horiz-adv-x="592" vert-adv-y="1000"  />

      
      <glyph glyph-name="uniff" unicode="&#xff;" d="M0 542L142 542L239 236Q249 208 255 179Q261 150 264 122L267 122Q271 148 277.50 177.50Q284 207 293 236L388 542L528 542L313-71Q284-153 233-196.50Q182-240 100-240Q77-240 59.50-237.50Q42-235 29-232L29-132Q39-134 53.50-136Q68-138 85-138Q128-138 153.50-110.50Q179-83 190-42L204 2L0 542Z"  horiz-adv-x="528" vert-adv-y="1000"  />

      
      <glyph glyph-name="uni0100" unicode="&#x0100;" d="M498 0L443 189L199 189L144 0L0 0L240 717L401 717L642 0L498 0M411 299L354 483Q347 508 337 544.50Q327 581 321 613Q314 576 305 542Q296 508 289 483L233 299L411 299Z"  horiz-adv-x="642" vert-adv-y="1000"  />

      
      <glyph glyph-name="uni0101" unicode="&#x0101;" d="M289 552Q387 552 439 506Q491 460 491 364L491 0L398 0L372 75L368 75Q335 31 298.50 10.50Q262-10 198-10Q130-10 84.50 31Q39 72 39 158Q39 242 97 284Q155 326 272 331L358 334L358 361Q358 413 336.50 435Q315 457 276 457Q239 457 202.50 445.50Q166 434 132 417L91 505Q131 526 181 539Q231 552 289 552M359 256L302 254Q231 251 203 225.50Q175 200 175 157Q175 118 194.50 101.50Q214 85 246 85Q293 85 326 116.50Q359 148 359 210L359 256Z"  horiz-adv-x="560" vert-adv-y="1000"  />

      
      <glyph glyph-name="uni0102" unicode="&#x0102;" d="M498 0L443 189L199 189L144 0L0 0L240 717L401 717L642 0L498 0M411 299L354 483Q347 508 337 544.50Q327 581 321 613Q314 576 305 542Q296 508 289 483L233 299L411 299Z"  horiz-adv-x="642" vert-adv-y="1000"  />

      
      <glyph glyph-name="uni0103" unicode="&#x0103;" d="M289 552Q387 552 439 506Q491 460 491 364L491 0L398 0L372 75L368 75Q335 31 298.50 10.50Q262-10 198-10Q130-10 84.50 31Q39 72 39 158Q39 242 97 284Q155 326 272 331L358 334L358 361Q358 413 336.50 435Q315 457 276 457Q239 457 202.50 445.50Q166 434 132 417L91 505Q131 526 181 539Q231 552 289 552M359 256L302 254Q231 251 203 225.50Q175 200 175 157Q175 118 194.50 101.50Q214 85 246 85Q293 85 326 116.50Q359 148 359 210L359 256Z"  horiz-adv-x="560" vert-adv-y="1000"  />

      
      <glyph glyph-name="uni0104" unicode="&#x0104;" d="M498 0L443 189L199 189L144 0L0 0L240 717L401 717L642 0L498 0M411 299L354 483Q347 508 337 544.50Q327 581 321 613Q314 576 305 542Q296 508 289 483L233 299L411 299M562-113Q562-134 572.50-144.50Q583-155 600-155Q614-155 628-152Q642-149 650-147L650-222Q636-226 619.50-229Q603-232 581-232Q529-232 499-203.50Q469-175 469-127Q469-84 496.50-45.50Q524-7 568 16L626 0Q595-32 578.50-58.50Q562-85 562-113Z"  horiz-adv-x="642" vert-adv-y="1000"  />

      
      <glyph glyph-name="uni0105" unicode="&#x0105;" d="M289 552Q387 552 439 506Q491 460 491 364L491 0L398 0L372 75L368 75Q335 31 298.50 10.50Q262-10 198-10Q130-10 84.50 31Q39 72 39 158Q39 242 97 284Q155 326 272 331L358 334L358 361Q358 413 336.50 435Q315 457 276 457Q239 457 202.50 445.50Q166 434 132 417L91 505Q131 526 181 539Q231 552 289 552M359 256L302 254Q231 251 203 225.50Q175 200 175 157Q175 118 194.50 101.50Q214 85 246 85Q293 85 326 116.50Q359 148 359 210L359 256M431-113Q431-134 441.50-144.50Q452-155 469-155Q483-155 497-152Q511-149 519-147L519-222Q505-226 488.50-229Q472-232 450-232Q398-232 368-203.50Q338-175 338-127Q338-84 365.50-45.50Q393-7 437 16L495 0Q464-32 447.50-58.50Q431-85 431-113Z"  horiz-adv-x="560" vert-adv-y="1000"  />

      
      <glyph glyph-name="uni0106" unicode="&#x0106;" d="M373 616Q288 616 240 546.50Q192 477 192 356Q192 234 237.50 166Q283 98 376 98Q419 98 459.50 107.50Q500 117 543 133L543 24Q501 6 458-2Q415-10 361-10Q256-10 187.50 35.50Q119 81 86 163.50Q53 246 53 357Q53 465 90 547.50Q127 630 198.50 677Q270 724 374 724Q424 724 477 712Q530 700 570 677L525 572Q490 589 452 602.50Q414 616 373 616Z"  horiz-adv-x="600" vert-adv-y="1000"  />

      
      <glyph glyph-name="uni0107" unicode="&#x0107;" d="M288-10Q176-10 110.50 57Q45 124 45 268Q45 368 77.50 430.50Q110 493 167 522.50Q224 552 298 552Q344 552 384.50 542Q425 532 452 518L412 421Q385 432 358 440Q331 448 303 448Q180 448 180 269Q180 182 212 138Q244 94 302 94Q341 94 374.50 105Q408 116 438 135L438 26Q407 7 372.50-1.50Q338-10 288-10Z"  horiz-adv-x="480" vert-adv-y="1000"  />

      
      <glyph glyph-name="uni0108" unicode="&#x0108;" d="M373 616Q288 616 240 546.50Q192 477 192 356Q192 234 237.50 166Q283 98 376 98Q419 98 459.50 107.50Q500 117 543 133L543 24Q501 6 458-2Q415-10 361-10Q256-10 187.50 35.50Q119 81 86 163.50Q53 246 53 357Q53 465 90 547.50Q127 630 198.50 677Q270 724 374 724Q424 724 477 712Q530 700 570 677L525 572Q490 589 452 602.50Q414 616 373 616Z"  horiz-adv-x="600" vert-adv-y="1000"  />

      
      <glyph glyph-name="uni0109" unicode="&#x0109;" d="M288-10Q176-10 110.50 57Q45 124 45 268Q45 368 77.50 430.50Q110 493 167 522.50Q224 552 298 552Q344 552 384.50 542Q425 532 452 518L412 421Q385 432 358 440Q331 448 303 448Q180 448 180 269Q180 182 212 138Q244 94 302 94Q341 94 374.50 105Q408 116 438 135L438 26Q407 7 372.50-1.50Q338-10 288-10Z"  horiz-adv-x="480" vert-adv-y="1000"  />

      
      <glyph glyph-name="uni010A" unicode="&#x010A;" d="M373 616Q288 616 240 546.50Q192 477 192 356Q192 234 237.50 166Q283 98 376 98Q419 98 459.50 107.50Q500 117 543 133L543 24Q501 6 458-2Q415-10 361-10Q256-10 187.50 35.50Q119 81 86 163.50Q53 246 53 357Q53 465 90 547.50Q127 630 198.50 677Q270 724 374 724Q424 724 477 712Q530 700 570 677L525 572Q490 589 452 602.50Q414 616 373 616Z"  horiz-adv-x="600" vert-adv-y="1000"  />

      
      <glyph glyph-name="uni010B" unicode="&#x010B;" d="M288-10Q176-10 110.50 57Q45 124 45 268Q45 368 77.50 430.50Q110 493 167 522.50Q224 552 298 552Q344 552 384.50 542Q425 532 452 518L412 421Q385 432 358 440Q331 448 303 448Q180 448 180 269Q180 182 212 138Q244 94 302 94Q341 94 374.50 105Q408 116 438 135L438 26Q407 7 372.50-1.50Q338-10 288-10Z"  horiz-adv-x="480" vert-adv-y="1000"  />

      
      <glyph glyph-name="uni010C" unicode="&#x010C;" d="M373 616Q288 616 240 546.50Q192 477 192 356Q192 234 237.50 166Q283 98 376 98Q419 98 459.50 107.50Q500 117 543 133L543 24Q501 6 458-2Q415-10 361-10Q256-10 187.50 35.50Q119 81 86 163.50Q53 246 53 357Q53 465 90 547.50Q127 630 198.50 677Q270 724 374 724Q424 724 477 712Q530 700 570 677L525 572Q490 589 452 602.50Q414 616 373 616Z"  horiz-adv-x="600" vert-adv-y="1000"  />

      
      <glyph glyph-name="uni010D" unicode="&#x010D;" d="M288-10Q176-10 110.50 57Q45 124 45 268Q45 368 77.50 430.50Q110 493 167 522.50Q224 552 298 552Q344 552 384.50 542Q425 532 452 518L412 421Q385 432 358 440Q331 448 303 448Q180 448 180 269Q180 182 212 138Q244 94 302 94Q341 94 374.50 105Q408 116 438 135L438 26Q407 7 372.50-1.50Q338-10 288-10Z"  horiz-adv-x="480" vert-adv-y="1000"  />

      
      <glyph glyph-name="uni010E" unicode="&#x010E;" d="M637 364Q637 183 542 91.50Q447 0 280 0L84 0L84 714L299 714Q456 714 546.50 625Q637 536 637 364M497 360Q497 488 446 548Q395 608 298 608L218 608L218 107L283 107Q392 107 444.50 170.50Q497 234 497 360Z"  horiz-adv-x="691" vert-adv-y="1000"  />

      
      <glyph glyph-name="uni010F" unicode="&#x010F;" d="M240-10Q153-10 99 60.50Q45 131 45 270Q45 410 100 481Q155 552 244 552Q300 552 334.50 529Q369 506 391 473L395 473Q393 487 390 515.50Q387 544 387 570L387 760L520 760L520 0L418 0L393 71L387 71Q367 37 331.50 13.50Q296-10 240-10M284 92Q345 92 370 132Q395 172 395 253L395 269Q395 356 371.50 402.50Q348 449 283 449Q233 449 206.50 401.50Q180 354 180 268Q180 182 206.50 137Q233 92 284 92M713 760L713 750Q700 719 681 678.50Q662 638 639 600L562 600L562 613Q570 642 578.50 685Q587 728 590 760L713 760Z"  horiz-adv-x="626" vert-adv-y="1000"  />

      
      <glyph glyph-name="uni0110" unicode="&#x0110;" d="M299 714Q456 714 546.50 625Q637 536 637 364Q637 183 541.50 91.50Q446 0 280 0L86 0L86 300L22 300L22 406L86 406L86 714L299 714M298 608L220 608L220 406L345 406L345 300L220 300L220 107L283 107Q497 107 497 360Q497 488 445.50 548Q394 608 298 608Z"  horiz-adv-x="691" vert-adv-y="1000"  />

      
      <glyph glyph-name="uni0111" unicode="&#x0111;" d="M238-10Q152-10 98.50 58Q45 126 45 260Q45 396 100.50 464Q156 532 245 532Q300 532 335.50 509Q371 486 392 453L397 453Q392 479 389.50 504.50Q387 530 387 553L387 592L235 592L235 677L387 677L387 760L520 760L520 677L592 677L592 592L520 592L520 0L414 0L388 71L383 71Q362 37 327.50 13.50Q293-10 238-10M288 92Q346 92 370.50 130Q395 168 395 244L395 259Q395 342 370.50 386Q346 430 285 430Q237 430 211 385Q185 340 185 258Q185 177 210.50 134.50Q236 92 288 92Z"  horiz-adv-x="604" vert-adv-y="1000"  />

      
      <glyph glyph-name="uni0112" unicode="&#x0112;" d="M469 0L84 0L84 714L469 714L469 607L218 607L218 425L453 425L453 318L218 318L218 108L469 108L469 0Z"  horiz-adv-x="522" vert-adv-y="1000"  />

      
      <glyph glyph-name="uni0113" unicode="&#x0113;" d="M285 552Q390 552 451 487Q512 422 512 306L512 242L180 242Q182 168 216 127.50Q250 87 314 87Q363 87 402.50 97.50Q442 108 484 128L484 27Q446 8 404.50-1Q363-10 304-10Q228-10 169.50 20.50Q111 51 78 112.50Q45 174 45 267Q45 406 111.50 479Q178 552 285 552M287 459Q243 459 214.50 426.50Q186 394 182 330L386 330Q385 386 361 422.50Q337 459 287 459Z"  horiz-adv-x="554" vert-adv-y="1000"  />

      
      <glyph glyph-name="uni0114" unicode="&#x0114;" d="M469 0L84 0L84 714L469 714L469 607L218 607L218 425L453 425L453 318L218 318L218 108L469 108L469 0Z"  horiz-adv-x="522" vert-adv-y="1000"  />

      
      <glyph glyph-name="uni0115" unicode="&#x0115;" d="M285 552Q390 552 451 487Q512 422 512 306L512 242L180 242Q182 168 216 127.50Q250 87 314 87Q363 87 402.50 97.50Q442 108 484 128L484 27Q446 8 404.50-1Q363-10 304-10Q228-10 169.50 20.50Q111 51 78 112.50Q45 174 45 267Q45 406 111.50 479Q178 552 285 552M287 459Q243 459 214.50 426.50Q186 394 182 330L386 330Q385 386 361 422.50Q337 459 287 459Z"  horiz-adv-x="554" vert-adv-y="1000"  />

      
      <glyph glyph-name="uni0116" unicode="&#x0116;" d="M469 0L84 0L84 714L469 714L469 607L218 607L218 425L453 425L453 318L218 318L218 108L469 108L469 0Z"  horiz-adv-x="522" vert-adv-y="1000"  />

      
      <glyph glyph-name="uni0117" unicode="&#x0117;" d="M285 552Q390 552 451 487Q512 422 512 306L512 242L180 242Q182 168 216 127.50Q250 87 314 87Q363 87 402.50 97.50Q442 108 484 128L484 27Q446 8 404.50-1Q363-10 304-10Q228-10 169.50 20.50Q111 51 78 112.50Q45 174 45 267Q45 406 111.50 479Q178 552 285 552M287 459Q243 459 214.50 426.50Q186 394 182 330L386 330Q385 386 361 422.50Q337 459 287 459Z"  horiz-adv-x="554" vert-adv-y="1000"  />

      
      <glyph glyph-name="uni0118" unicode="&#x0118;" d="M469 0L84 0L84 714L469 714L469 607L218 607L218 425L453 425L453 318L218 318L218 108L469 108L469 0M401-113Q401-134 411.50-144.50Q422-155 439-155Q453-155 467-152Q481-149 489-147L489-222Q475-226 458.50-229Q442-232 420-232Q368-232 338-203.50Q308-175 308-127Q308-84 335.50-45.50Q363-7 407 16L465 0Q434-32 417.50-58.50Q401-85 401-113Z"  horiz-adv-x="522" vert-adv-y="1000"  />

      
      <glyph glyph-name="uni0119" unicode="&#x0119;" d="M380-113Q380-134 391.50-144.50Q403-155 421-155Q438-155 451.50-152Q465-149 474-147L474-222Q459-226 442.50-229Q426-232 404-232Q348-232 318.50-203.50Q289-175 289-127Q289-94 309-62.50Q329-31 358-8Q333-10 304-10Q228-10 169.50 20.50Q111 51 78 112.50Q45 174 45 267Q45 406 111.50 479Q178 552 285 552Q390 552 451 487Q512 422 512 306L512 242L180 242Q182 168 216 127.50Q250 87 314 87Q363 87 402.50 97.50Q442 108 484 128L484 27L482 26Q422-25 401-55Q380-85 380-113M287 459Q243 459 214.50 426.50Q186 394 182 330L386 330Q385 386 361 422.50Q337 459 287 459Z"  horiz-adv-x="554" vert-adv-y="1000"  />

      
      <glyph glyph-name="uni011A" unicode="&#x011A;" d="M469 0L84 0L84 714L469 714L469 607L218 607L218 425L453 425L453 318L218 318L218 108L469 108L469 0Z"  horiz-adv-x="522" vert-adv-y="1000"  />

      
      <glyph glyph-name="uni011B" unicode="&#x011B;" d="M285 552Q390 552 451 487Q512 422 512 306L512 242L180 242Q182 168 216 127.50Q250 87 314 87Q363 87 402.50 97.50Q442 108 484 128L484 27Q446 8 404.50-1Q363-10 304-10Q228-10 169.50 20.50Q111 51 78 112.50Q45 174 45 267Q45 406 111.50 479Q178 552 285 552M287 459Q243 459 214.50 426.50Q186 394 182 330L386 330Q385 386 361 422.50Q337 459 287 459Z"  horiz-adv-x="554" vert-adv-y="1000"  />

      
      <glyph glyph-name="uni011C" unicode="&#x011C;" d="M355 392L616 392L616 29Q564 10 504 0Q444-10 372-10Q221-10 137 86Q53 182 53 358Q53 470 94 552Q135 634 213.50 679Q292 724 404 724Q461 724 513.50 712Q566 700 609 681L564 576Q530 592 488.50 604Q447 616 402 616Q300 616 246 545Q192 474 192 356Q192 280 212.50 222Q233 164 276.50 131Q320 98 387 98Q418 98 443 102Q468 106 487 111L487 283L355 283L355 392Z"  horiz-adv-x="686" vert-adv-y="1000"  />

      
      <glyph glyph-name="uni011D" unicode="&#x011D;" d="M243 552Q343 552 392 472L397 472L408 542L520 542L520-4Q520-120 458-180Q396-240 268-240Q211-240 164.50-232.50Q118-225 76-207L76-103Q120-123 166.50-134Q213-145 269-145Q327-145 357.50-110.50Q388-76 388-10L388 4Q388 19 389 39Q390 59 392 71L387 71Q364 29 327.50 9.50Q291-10 241-10Q150-10 97.50 64Q45 138 45 270Q45 402 98.50 477Q152 552 243 552M283 449Q180 449 180 268Q180 90 285 90Q344 90 370 126.50Q396 163 396 250L396 269Q396 365 370 407Q344 449 283 449Z"  horiz-adv-x="592" vert-adv-y="1000"  />

      
      <glyph glyph-name="uni011E" unicode="&#x011E;" d="M355 392L616 392L616 29Q564 10 504 0Q444-10 372-10Q221-10 137 86Q53 182 53 358Q53 470 94 552Q135 634 213.50 679Q292 724 404 724Q461 724 513.50 712Q566 700 609 681L564 576Q530 592 488.50 604Q447 616 402 616Q300 616 246 545Q192 474 192 356Q192 280 212.50 222Q233 164 276.50 131Q320 98 387 98Q418 98 443 102Q468 106 487 111L487 283L355 283L355 392Z"  horiz-adv-x="686" vert-adv-y="1000"  />

      
      <glyph glyph-name="uni011F" unicode="&#x011F;" d="M243 552Q343 552 392 472L397 472L408 542L520 542L520-4Q520-120 458-180Q396-240 268-240Q211-240 164.50-232.50Q118-225 76-207L76-103Q120-123 166.50-134Q213-145 269-145Q327-145 357.50-110.50Q388-76 388-10L388 4Q388 19 389 39Q390 59 392 71L387 71Q364 29 327.50 9.50Q291-10 241-10Q150-10 97.50 64Q45 138 45 270Q45 402 98.50 477Q152 552 243 552M283 449Q180 449 180 268Q180 90 285 90Q344 90 370 126.50Q396 163 396 250L396 269Q396 365 370 407Q344 449 283 449Z"  horiz-adv-x="592" vert-adv-y="1000"  />

      
      <glyph glyph-name="uni0120" unicode="&#x0120;" d="M355 392L616 392L616 29Q564 10 504 0Q444-10 372-10Q221-10 137 86Q53 182 53 358Q53 470 94 552Q135 634 213.50 679Q292 724 404 724Q461 724 513.50 712Q566 700 609 681L564 576Q530 592 488.50 604Q447 616 402 616Q300 616 246 545Q192 474 192 356Q192 280 212.50 222Q233 164 276.50 131Q320 98 387 98Q418 98 443 102Q468 106 487 111L487 283L355 283L355 392Z"  horiz-adv-x="686" vert-adv-y="1000"  />

      
      <glyph glyph-name="uni0121" unicode="&#x0121;" d="M243 552Q343 552 392 472L397 472L408 542L520 542L520-4Q520-120 458-180Q396-240 268-240Q211-240 164.50-232.50Q118-225 76-207L76-103Q120-123 166.50-134Q213-145 269-145Q327-145 357.50-110.50Q388-76 388-10L388 4Q388 19 389 39Q390 59 392 71L387 71Q364 29 327.50 9.50Q291-10 241-10Q150-10 97.50 64Q45 138 45 270Q45 402 98.50 477Q152 552 243 552M283 449Q180 449 180 268Q180 90 285 90Q344 90 370 126.50Q396 163 396 250L396 269Q396 365 370 407Q344 449 283 449Z"  horiz-adv-x="592" vert-adv-y="1000"  />

      
      <glyph glyph-name="uni0122" unicode="&#x0122;" d="M355 392L616 392L616 29Q564 10 504 0Q444-10 372-10Q221-10 137 86Q53 182 53 358Q53 470 94 552Q135 634 213.50 679Q292 724 404 724Q461 724 513.50 712Q566 700 609 681L564 576Q530 592 488.50 604Q447 616 402 616Q300 616 246 545Q192 474 192 356Q192 280 212.50 222Q233 164 276.50 131Q320 98 387 98Q418 98 443 102Q468 106 487 111L487 283L355 283L355 392Z"  horiz-adv-x="686" vert-adv-y="1000"  />

      
      <glyph glyph-name="uni0123" unicode="&#x0123;" d="M243 552Q343 552 392 472L397 472L408 542L520 542L520-4Q520-120 458-180Q396-240 268-240Q211-240 164.50-232.50Q118-225 76-207L76-103Q120-123 166.50-134Q213-145 269-145Q327-145 357.50-110.50Q388-76 388-10L388 4Q388 19 389 39Q390 59 392 71L387 71Q364 29 327.50 9.50Q291-10 241-10Q150-10 97.50 64Q45 138 45 270Q45 402 98.50 477Q152 552 243 552M283 449Q180 449 180 268Q180 90 285 90Q344 90 370 126.50Q396 163 396 250L396 269Q396 365 370 407Q344 449 283 449M361 766L361 753Q355 734 349 708Q343 682 338.50 655Q334 628 331 606L207 606L207 616Q218 647 239 687.50Q260 728 284 766L361 766Z"  horiz-adv-x="626" vert-adv-y="1000"  />

      
      <glyph glyph-name="uni0124" unicode="&#x0124;" d="M629 0L494 0L494 317L218 317L218 0L84 0L84 714L218 714L218 426L494 426L494 714L629 714L629 0Z"  horiz-adv-x="713" vert-adv-y="1000"  />

      
      <glyph glyph-name="uni0125" unicode="&#x0125;" d="M205 760L205 579Q205 547 202.50 516.50Q200 486 198 471L206 471Q230 512 269 532Q308 552 355 552Q439 552 489.50 504.50Q540 457 540 353L540 0L407 0L407 328Q407 450 320 450Q254 450 229.50 402Q205 354 205 265L205 0L72 0L72 760L205 760Z"  horiz-adv-x="609" vert-adv-y="1000"  />

      
      <glyph glyph-name="uni0126" unicode="&#x0126;" d="M85 0L85 522L0 522L0 610L85 610L85 714L220 714L220 610L496 610L496 714L631 714L631 610L716 610L716 522L631 522L631 0L496 0L496 317L220 317L220 0L85 0M220 426L496 426L496 522L220 522L220 426Z"  horiz-adv-x="716" vert-adv-y="1000"  />

      
      <glyph glyph-name="uni0127" unicode="&#x0127;" d="M207 760L207 677L360 677L360 592L207 592L207 553Q207 521 204.50 490.50Q202 460 201 445L210 445Q234 486 272.50 506Q311 526 359 526Q443 526 492.50 478.50Q542 431 542 327L542 0L410 0L410 302Q410 424 323 424Q257 424 232 376Q207 328 207 239L207 0L75 0L75 592L4 592L4 677L75 677L75 760L207 760Z"  horiz-adv-x="611" vert-adv-y="1000"  />

      
      <glyph glyph-name="uni0128" unicode="&#x0128;" d="M330 0L33 0L33 73L115 105L115 608L33 641L33 714L330 714L330 641L249 608L249 105L330 73L330 0Z"  horiz-adv-x="364" vert-adv-y="1000"  />

      
      <glyph glyph-name="uni0129" unicode="&#x0129;" d="M205 0L72 0L72 542L205 542L205 0Z"  horiz-adv-x="277" vert-adv-y="1000"  />

      
      <glyph glyph-name="uni012A" unicode="&#x012A;" d="M330 0L33 0L33 73L115 105L115 608L33 641L33 714L330 714L330 641L249 608L249 105L330 73L330 0Z"  horiz-adv-x="364" vert-adv-y="1000"  />

      
      <glyph glyph-name="uni012B" unicode="&#x012B;" d="M205 0L72 0L72 542L205 542L205 0Z"  horiz-adv-x="277" vert-adv-y="1000"  />

      
      <glyph glyph-name="uni012C" unicode="&#x012C;" d="M330 0L33 0L33 73L115 105L115 608L33 641L33 714L330 714L330 641L249 608L249 105L330 73L330 0Z"  horiz-adv-x="364" vert-adv-y="1000"  />

      
      <glyph glyph-name="uni012D" unicode="&#x012D;" d="M205 0L72 0L72 542L205 542L205 0Z"  horiz-adv-x="277" vert-adv-y="1000"  />

      
      <glyph glyph-name="uni012E" unicode="&#x012E;" d="M330 0L33 0L33 73L115 105L115 608L33 641L33 714L330 714L330 641L249 608L249 105L330 73L330 0M235-113Q235-134 245.50-144.50Q256-155 273-155Q287-155 301-152Q315-149 323-147L323-222Q309-226 292.50-229Q276-232 254-232Q202-232 172-203.50Q142-175 142-127Q142-84 169.50-45.50Q197-7 241 16L299 0Q268-32 251.50-58.50Q235-85 235-113Z"  horiz-adv-x="364" vert-adv-y="1000"  />

      
      <glyph glyph-name="uni012F" unicode="&#x012F;" d="M140 751Q168 751 189.50 736.50Q211 722 211 685Q211 648 189.50 633Q168 618 140 618Q109 618 88 633Q67 648 67 685Q67 722 88 736.50Q109 751 140 751M205 542L205 0L73 0L73 542L205 542M128-113Q128-134 138.50-144.50Q149-155 166-155Q180-155 194-152Q208-149 216-147L216-222Q202-226 185.50-229Q169-232 147-232Q95-232 65-203.50Q35-175 35-127Q35-84 62.50-45.50Q90-7 134 16L192 0Q161-32 144.50-58.50Q128-85 128-113Z"  horiz-adv-x="277" vert-adv-y="1000"  />

      
      <glyph glyph-name="uni0130" unicode="&#x0130;" d="M330 0L33 0L33 73L115 105L115 608L33 641L33 714L330 714L330 641L249 608L249 105L330 73L330 0Z"  horiz-adv-x="364" vert-adv-y="1000"  />

      
      <glyph glyph-name="uni0132" unicode="&#x0132;" d="M330 0L33 0L33 73L115 105L115 608L33 641L33 714L330 714L330 641L249 608L249 105L330 73L330 0M374-202Q347-202 326.50-199Q306-196 292-191L292-84Q307-88 323.50-91Q340-94 359-94Q385-94 405-84Q425-74 435.50-47Q446-20 446 30L446 714L581 714L581 33Q581-50 555-102Q529-154 482.50-178Q436-202 374-202Z"  horiz-adv-x="662" vert-adv-y="1000"  />

      
      <glyph glyph-name="uni0133" unicode="&#x0133;" d="M140 751Q168 751 189.50 736.50Q211 722 211 685Q211 648 189.50 633Q168 618 140 618Q109 618 88 633Q67 648 67 685Q67 722 88 736.50Q109 751 140 751M205 542L205 0L73 0L73 542L205 542M344 685Q344 722 365 736.50Q386 751 416 751Q445 751 466.50 736.50Q488 722 488 685Q488 648 466.50 633Q445 618 416 618Q386 618 365 633Q344 648 344 685M310-240Q287-240 263-236.50Q239-233 224-228L224-128Q239-132 253.50-135Q268-138 285-138Q312-138 331-121Q350-104 350-54L350 542L481 542L481-67Q481-117 464-156Q447-195 409.50-217.50Q372-240 310-240Z"  horiz-adv-x="554" vert-adv-y="1000"  />

      
      <glyph glyph-name="uni0134" unicode="&#x0134;" d="M10-202Q-17-202-37.50-199Q-58-196-72-191L-72-84Q-57-88-40.50-91Q-24-94-5-94Q21-94 41-84Q61-74 71.50-47Q82-20 82 30L82 714L217 714L217 33Q217-50 191-102Q165-154 118.50-178Q72-202 10-202Z"  horiz-adv-x="298" vert-adv-y="1000"  />

      
      <glyph glyph-name="uni0135" unicode="&#x0135;" d="M33-240Q10-240-14-236.50Q-38-233-53-228L-53-128Q-38-132-23.50-135Q-9-138 8-138Q35-138 54-121Q73-104 73-54L73 542L204 542L204-67Q204-117 187-156Q170-195 132.50-217.50Q95-240 33-240Z"  horiz-adv-x="277" vert-adv-y="1000"  />

      
      <glyph glyph-name="uni0136" unicode="&#x0136;" d="M616 0L463 0L279 316L218 263L218 0L84 0L84 714L218 714L218 378Q236 404 256 430Q276 456 295 481L463 714L613 714L376 400L616 0Z"  horiz-adv-x="616" vert-adv-y="1000"  />

      
      <glyph glyph-name="uni0137" unicode="&#x0137;" d="M204 760L204 399Q204 374 202 344.50Q200 315 197 289L201 289Q208 307 226 329.50Q244 352 260 371L401 542L551 542L354 308L563 0L410 0L263 232L204 180L204 0L72 0L72 760L204 760Z"  horiz-adv-x="566" vert-adv-y="1000"  />

      
      <glyph glyph-name="uni0138" unicode="&#x0138;" d="M551 542L358 297L563 0L411 0L269 221L206 173L206 0L72 0L72 542L206 542L206 401Q206 367 205 334Q204 301 202 275L204 275Q215 293 228.50 311Q242 329 256 347L403 542L551 542Z"  horiz-adv-x="566" vert-adv-y="1000"  />

      
      <glyph glyph-name="uni0139" unicode="&#x0139;" d="M84 0L84 714L218 714L218 108L493 108L493 0L84 0Z"  horiz-adv-x="523" vert-adv-y="1000"  />

      
      <glyph glyph-name="uni013A" unicode="&#x013A;" d="M205 0L72 0L72 760L205 760L205 0Z"  horiz-adv-x="277" vert-adv-y="1000"  />

      
      <glyph glyph-name="uni013B" unicode="&#x013B;" d="M84 0L84 714L218 714L218 108L493 108L493 0L84 0Z"  horiz-adv-x="523" vert-adv-y="1000"  />

      
      <glyph glyph-name="uni013C" unicode="&#x013C;" d="M205 0L72 0L72 760L205 760L205 0Z"  horiz-adv-x="277" vert-adv-y="1000"  />

      
      <glyph glyph-name="uni013D" unicode="&#x013D;" d="M84 0L84 714L218 714L218 108L493 108L493 0L84 0M518 714L518 704Q505 673 486 632.50Q467 592 444 554L367 554L367 567Q375 596 383.50 639Q392 682 395 714L518 714Z"  horiz-adv-x="550" vert-adv-y="1000"  />

      
      <glyph glyph-name="uni013E" unicode="&#x013E;" d="M205 0L72 0L72 760L205 760L205 0M397 760L397 750Q384 719 365 678.50Q346 638 323 600L246 600L246 613Q254 642 262.50 685Q271 728 274 760L397 760Z"  horiz-adv-x="287" vert-adv-y="1000"  />

      
      <glyph glyph-name="uni013F" unicode="&#x013F;" d="M84 0L84 714L218 714L218 108L493 108L493 0L84 0M413 445Q442 445 463.50 430.50Q485 416 485 379Q485 342 463.50 327Q442 312 413 312Q382 312 361 327Q340 342 340 379Q340 416 361 430.50Q382 445 413 445Z"  horiz-adv-x="523" vert-adv-y="1000"  />

      
      <glyph glyph-name="uni0140" unicode="&#x0140;" d="M205 0L72 0L72 760L205 760L205 0M303 445Q332 445 353.50 430.50Q375 416 375 379Q375 342 353.50 327Q332 312 303 312Q272 312 251 327Q230 342 230 379Q230 416 251 430.50Q272 445 303 445Z"  horiz-adv-x="327" vert-adv-y="1000"  />

      
      <glyph glyph-name="uni0141" unicode="&#x0141;" d="M91 0L91 243L49 220L0 302L91 355L91 714L224 714L224 432L322 489L373 406L224 320L224 108L500 108L500 0L91 0Z"  horiz-adv-x="530" vert-adv-y="1000"  />

      
      <glyph glyph-name="uni0142" unicode="&#x0142;" d="M84 0L84 253L38 227L-11 310L84 365L84 760L216 760L216 443L264 473L315 391L216 331L216 0L84 0Z"  horiz-adv-x="304" vert-adv-y="1000"  />

      
      <glyph glyph-name="uni0143" unicode="&#x0143;" d="M670 0L501 0L200 560L196 560Q198 515 200.50 463.50Q203 412 204 360L204 0L84 0L84 714L252 714L552 158L556 158Q554 198 551.50 250Q549 302 549 351L549 714L670 714L670 0Z"  horiz-adv-x="754" vert-adv-y="1000"  />

      
      <glyph glyph-name="uni0144" unicode="&#x0144;" d="M357 552Q442 552 491 505Q540 458 540 353L540 0L407 0L407 328Q407 450 320 450Q253 450 229 402Q205 354 205 265L205 0L72 0L72 542L174 542L193 471L199 471Q223 513 265 532.50Q307 552 357 552Z"  horiz-adv-x="609" vert-adv-y="1000"  />

      
      <glyph glyph-name="uni0145" unicode="&#x0145;" d="M670 0L501 0L200 560L196 560Q198 515 200.50 463.50Q203 412 204 360L204 0L84 0L84 714L252 714L552 158L556 158Q554 198 551.50 250Q549 302 549 351L549 714L670 714L670 0Z"  horiz-adv-x="754" vert-adv-y="1000"  />

      
      <glyph glyph-name="uni0146" unicode="&#x0146;" d="M357 552Q442 552 491 505Q540 458 540 353L540 0L407 0L407 328Q407 450 320 450Q253 450 229 402Q205 354 205 265L205 0L72 0L72 542L174 542L193 471L199 471Q223 513 265 532.50Q307 552 357 552Z"  horiz-adv-x="609" vert-adv-y="1000"  />

      
      <glyph glyph-name="uni0147" unicode="&#x0147;" d="M670 0L501 0L200 560L196 560Q198 515 200.50 463.50Q203 412 204 360L204 0L84 0L84 714L252 714L552 158L556 158Q554 198 551.50 250Q549 302 549 351L549 714L670 714L670 0Z"  horiz-adv-x="754" vert-adv-y="1000"  />

      
      <glyph glyph-name="uni0148" unicode="&#x0148;" d="M357 552Q442 552 491 505Q540 458 540 353L540 0L407 0L407 328Q407 450 320 450Q253 450 229 402Q205 354 205 265L205 0L72 0L72 542L174 542L193 471L199 471Q223 513 265 532.50Q307 552 357 552Z"  horiz-adv-x="609" vert-adv-y="1000"  />

      
      <glyph glyph-name="uni0149" unicode="&#x0149;" d="M487 552Q572 552 621 505Q670 458 670 353L670 0L537 0L537 328Q537 450 450 450Q383 450 359 402Q335 354 335 265L335 0L202 0L202 542L304 542L323 471L329 471Q353 513 395 532.50Q437 552 487 552M172 714L179 703Q166 650 143.50 586.50Q121 523 98 469L3 469Q16 527 29 594.50Q42 662 49 714L172 714Z"  horiz-adv-x="739" vert-adv-y="1000"  />

      
      <glyph glyph-name="uni014A" unicode="&#x014A;" d="M462-202Q433-202 411-199Q389-196 374-191L374-89Q390-93 409-96Q428-99 449-99Q497-99 524-76.50Q551-54 553 1L200 560L196 560Q197 554 198 532Q199 510 200.50 479Q202 448 203 415Q204 382 204 355L204 0L84 0L84 714L247 714L552 224L556 224Q555 230 554 251.50Q553 273 552 303Q551 333 550 364.50Q549 396 549 422L549 714L670 714L670 2Q670-104 612.50-153Q555-202 462-202Z"  horiz-adv-x="754" vert-adv-y="1000"  />

      
      <glyph glyph-name="uni014B" unicode="&#x014B;" d="M377-240Q329-240 295-228L295-128Q309-132 321.50-135Q334-138 350-138Q374-138 390.50-121Q407-104 407-54L407 335Q407 450 321 450Q254 450 229.50 402.50Q205 355 205 265L205 0L72 0L72 542L174 542L192 471L200 471Q225 513 267.50 532.50Q310 552 357 552Q441 552 490.50 505Q540 458 540 354L540-67Q540-142 502.50-191Q465-240 377-240Z"  horiz-adv-x="609" vert-adv-y="1000"  />

      
      <glyph glyph-name="uni014C" unicode="&#x014C;" d="M690 358Q690 247 655.50 164.50Q621 82 550.50 36Q480-10 372-10Q263-10 192.50 36Q122 82 87.50 165Q53 248 53 359Q53 469 87.50 551.50Q122 634 193 679.50Q264 725 373 725Q480 725 550.50 679.50Q621 634 655.50 551.50Q690 469 690 358M195 358Q195 237 237 168Q279 99 372 99Q466 99 507 168Q548 237 548 358Q548 479 507 548Q466 617 373 617Q279 617 237 548Q195 479 195 358Z"  horiz-adv-x="744" vert-adv-y="1000"  />

      
      <glyph glyph-name="uni014D" unicode="&#x014D;" d="M538 272Q538 137 471.50 63.50Q405-10 290-10Q219-10 163.50 23Q108 56 76.50 119Q45 182 45 272Q45 407 111.50 479.50Q178 552 293 552Q364 552 419.50 519.50Q475 487 506.50 424.50Q538 362 538 272M180 272Q180 186 206.50 139Q233 92 292 92Q350 92 376.50 139Q403 186 403 272Q403 358 376.50 404Q350 450 291 450Q232 450 206 404Q180 358 180 272Z"  horiz-adv-x="582" vert-adv-y="1000"  />

      
      <glyph glyph-name="uni014E" unicode="&#x014E;" d="M690 358Q690 247 655.50 164.50Q621 82 550.50 36Q480-10 372-10Q263-10 192.50 36Q122 82 87.50 165Q53 248 53 359Q53 469 87.50 551.50Q122 634 193 679.50Q264 725 373 725Q480 725 550.50 679.50Q621 634 655.50 551.50Q690 469 690 358M195 358Q195 237 237 168Q279 99 372 99Q466 99 507 168Q548 237 548 358Q548 479 507 548Q466 617 373 617Q279 617 237 548Q195 479 195 358Z"  horiz-adv-x="744" vert-adv-y="1000"  />

      
      <glyph glyph-name="uni014F" unicode="&#x014F;" d="M538 272Q538 137 471.50 63.50Q405-10 290-10Q219-10 163.50 23Q108 56 76.50 119Q45 182 45 272Q45 407 111.50 479.50Q178 552 293 552Q364 552 419.50 519.50Q475 487 506.50 424.50Q538 362 538 272M180 272Q180 186 206.50 139Q233 92 292 92Q350 92 376.50 139Q403 186 403 272Q403 358 376.50 404Q350 450 291 450Q232 450 206 404Q180 358 180 272Z"  horiz-adv-x="582" vert-adv-y="1000"  />

      
      <glyph glyph-name="uni0150" unicode="&#x0150;" d="M690 358Q690 247 655.50 164.50Q621 82 550.50 36Q480-10 372-10Q263-10 192.50 36Q122 82 87.50 165Q53 248 53 359Q53 469 87.50 551.50Q122 634 193 679.50Q264 725 373 725Q480 725 550.50 679.50Q621 634 655.50 551.50Q690 469 690 358M195 358Q195 237 237 168Q279 99 372 99Q466 99 507 168Q548 237 548 358Q548 479 507 548Q466 617 373 617Q279 617 237 548Q195 479 195 358Z"  horiz-adv-x="744" vert-adv-y="1000"  />

      
      <glyph glyph-name="uni0151" unicode="&#x0151;" d="M538 272Q538 137 471.50 63.50Q405-10 290-10Q219-10 163.50 23Q108 56 76.50 119Q45 182 45 272Q45 407 111.50 479.50Q178 552 293 552Q364 552 419.50 519.50Q475 487 506.50 424.50Q538 362 538 272M180 272Q180 186 206.50 139Q233 92 292 92Q350 92 376.50 139Q403 186 403 272Q403 358 376.50 404Q350 450 291 450Q232 450 206 404Q180 358 180 272Z"  horiz-adv-x="582" vert-adv-y="1000"  />

      
      <glyph glyph-name="uni0152" unicode="&#x0152;" d="M358 725Q383 725 411.50 722Q440 719 461 714L843 714L843 607L593 607L593 425L825 425L825 318L593 318L593 108L843 108L843 0L461 0Q441-4 412-7Q383-10 359-10Q256-10 188 36Q120 82 86.50 165Q53 248 53 359Q53 470 86.50 552Q120 634 187.50 679.50Q255 725 358 725M361 617Q275 617 234.50 548Q194 479 194 358Q194 237 234.50 168Q275 99 361 99Q388 99 414.50 103.50Q441 108 459 117L459 598Q441 607 415 612Q389 617 361 617Z"  horiz-adv-x="895" vert-adv-y="1000"  />

      
      <glyph glyph-name="uni0153" unicode="&#x0153;" d="M644 552Q745 552 805.50 487Q866 422 866 306L866 242L534 242Q539 87 669 87Q716 87 756 97.50Q796 108 838 128L838 27Q800 8 759-1Q718-10 659-10Q601-10 553.50 12Q506 34 473 79Q408-10 289-10Q218-10 162.50 23Q107 56 75.50 119Q44 182 44 272Q44 406 110 479Q176 552 291 552Q344 552 390 529Q436 506 467 463Q530 552 644 552M642 459Q598 459 570 426.50Q542 394 537 330L741 330Q740 387 716 423Q692 459 642 459M289 450Q231 450 205.50 405Q180 360 180 272Q180 184 206 138Q232 92 290 92Q348 92 373 137Q398 182 398 271Q398 360 372.50 405Q347 450 289 450Z"  horiz-adv-x="909" vert-adv-y="1000"  />

      
      </font>
</defs>
</svg>
