<svg width="57" height="45" viewBox="0 0 57 45" fill="none" xmlns="http://www.w3.org/2000/svg">
<path d="M0 43.7274C0.103906 43.7123 0.192969 43.6518 0.252344 43.5612C0.311719 43.4705 0.371094 43.3647 0.430469 43.2439L2.73125 38.3331C2.79062 38.2274 2.83516 38.1216 2.87969 38.0309C2.92422 37.9403 2.95391 37.8647 2.95391 37.7892C2.95391 37.6985 2.92422 37.6532 2.86484 37.6079C2.80547 37.5776 2.74609 37.5474 2.67188 37.5323V37.3057H4.76484V37.5323C4.70547 37.5474 4.64609 37.5776 4.58672 37.6079C4.52734 37.6381 4.49766 37.6985 4.49766 37.7892C4.49766 37.8496 4.5125 37.9252 4.54219 37.9856C4.57188 38.046 4.61641 38.1367 4.67578 38.2576L7.25859 43.395C7.30313 43.4856 7.3625 43.5612 7.42188 43.5914C7.49609 43.6367 7.57031 43.682 7.65937 43.7123V43.9389H5.50703V43.7123C5.53672 43.7123 5.58125 43.6971 5.62578 43.6669C5.67031 43.6367 5.7 43.6065 5.7 43.5461C5.7 43.4554 5.67031 43.3496 5.59609 43.2136L5.12109 42.2768H2.09297L1.64766 43.1683C1.55859 43.3496 1.52891 43.4705 1.52891 43.5461C1.52891 43.6367 1.60312 43.682 1.76641 43.682V43.9087H0V43.7274ZM4.67578 41.3853L3.63672 39.0282L2.46406 41.3853H4.67578Z" fill="#262427"/>
<path d="M10.8199 41.8693L10.9387 41.9297C10.9387 42.0052 10.9535 42.0657 10.9832 42.1261C11.0426 42.2319 11.1613 42.3226 11.3246 42.4283C11.4879 42.519 11.6957 42.6096 11.9035 42.6852C12.1262 42.7607 12.3488 42.8212 12.5863 42.8665C12.8238 42.9118 13.0465 42.9421 13.2395 42.9421C13.373 42.9421 13.566 42.927 13.7887 42.9118C14.0113 42.8967 14.234 42.8514 14.4418 42.7759C14.6496 42.7154 14.8426 42.6096 15.0059 42.5039C15.1691 42.383 15.2434 42.2319 15.2434 42.0355C15.2434 41.839 15.1691 41.703 15.0207 41.6124C14.8723 41.5217 14.6793 41.4462 14.4566 41.416C14.2191 41.3706 13.952 41.3404 13.6551 41.3404C13.3582 41.3253 13.0465 41.3102 12.7348 41.28C12.423 41.2498 12.1113 41.2195 11.8145 41.1591C11.5176 41.0987 11.2504 41.008 11.0129 40.8569C10.7754 40.7209 10.5824 40.5245 10.4488 40.2827C10.3004 40.041 10.2262 39.7237 10.2262 39.3459C10.2262 39.089 10.2855 38.8322 10.4043 38.5753C10.523 38.3184 10.7012 38.0918 10.9535 37.9105C11.2059 37.714 11.5176 37.5629 11.9035 37.4421C12.2895 37.3212 12.7348 37.2607 13.2395 37.2607C13.6848 37.2607 14.0559 37.291 14.3824 37.3665C14.709 37.427 14.991 37.5025 15.2137 37.578C15.4512 37.6536 15.6441 37.7291 15.8074 37.7896C15.9707 37.85 16.1043 37.8954 16.2082 37.8954C16.327 37.8954 16.4012 37.8651 16.4605 37.8198L16.609 37.9256L15.748 39.5121L15.6293 39.4668C15.6145 39.3459 15.5848 39.2552 15.5254 39.1797C15.466 39.0739 15.3473 38.9833 15.1988 38.8775C15.0504 38.7868 14.8723 38.6962 14.6645 38.6206C14.4566 38.5451 14.234 38.4846 13.9965 38.4393C13.759 38.394 13.5215 38.3638 13.2691 38.3638C13.091 38.3638 12.898 38.3789 12.7051 38.4091C12.5121 38.4393 12.334 38.4846 12.1707 38.5451C12.0074 38.6055 11.8887 38.6811 11.7848 38.7717C11.6809 38.8624 11.6363 38.9833 11.6363 39.1344C11.6363 39.3308 11.7105 39.4819 11.859 39.5877C12.0074 39.6934 12.2004 39.769 12.423 39.8143C12.6605 39.8596 12.9277 39.905 13.2246 39.9201C13.5215 39.9352 13.8332 39.9654 14.1449 39.9805C14.4566 40.0107 14.7684 40.0561 15.0652 40.1165C15.3621 40.177 15.6293 40.2827 15.8668 40.4187C16.1043 40.5547 16.2973 40.7511 16.4309 40.9778C16.5793 41.2195 16.6535 41.5217 16.6535 41.8995C16.6535 42.3377 16.5348 42.7003 16.3121 42.9723C16.0895 43.2443 15.8074 43.4709 15.466 43.6371C15.1246 43.8033 14.7535 43.9091 14.3676 43.9544C13.9668 44.0149 13.6105 44.03 13.2691 44.03C12.7941 44.03 12.4082 43.9998 12.0816 43.9544C11.7699 43.894 11.5027 43.8335 11.2801 43.758C11.0723 43.6824 10.8941 43.6069 10.7754 43.5465C10.6566 43.486 10.5379 43.4558 10.4488 43.4558C10.3895 43.4558 10.3301 43.486 10.2855 43.5616L10.1074 43.4558L10.8199 41.8693Z" fill="#262427"/>
<path d="M25.7977 39.3606L25.5453 39.285C25.5602 39.2397 25.575 39.1792 25.575 39.1339C25.575 39.013 25.5008 38.8922 25.3523 38.7864C25.2039 38.6806 25.0109 38.6051 24.7734 38.5295C24.5359 38.454 24.2836 38.4086 24.0016 38.3784C23.7195 38.3482 23.4672 38.3331 23.2148 38.3331C22.9031 38.3331 22.6063 38.3784 22.3094 38.4691C22.0125 38.5597 21.7453 38.6957 21.5078 38.877C21.2703 39.0584 21.0773 39.3001 20.9438 39.6023C20.7953 39.9045 20.7211 40.252 20.7211 40.6751C20.7211 41.0831 20.7953 41.4457 20.9438 41.7479C21.0922 42.0501 21.2852 42.2919 21.5078 42.4732C21.7453 42.6545 22.0125 42.7905 22.3094 42.8812C22.6063 42.9718 22.918 43.0172 23.2148 43.0172C23.6898 43.0172 24.1055 42.9718 24.4914 42.8963C24.8625 42.8207 25.1891 42.7301 25.4563 42.6394V41.5515H23.868C23.7492 41.5515 23.6602 41.5817 23.6008 41.627C23.5414 41.6724 23.5117 41.7932 23.482 41.9595H23.2594V40.3427H23.482C23.4969 40.4787 23.5414 40.5693 23.6008 40.6147C23.6602 40.66 23.7492 40.6751 23.868 40.6751H26.9703V40.9018C26.807 40.932 26.7031 40.9622 26.6586 40.9924C26.6141 41.0226 26.5992 41.0982 26.5992 41.204V42.6394C26.5992 42.7301 26.6289 42.7754 26.6734 42.8056C26.718 42.8358 26.7773 42.866 26.8516 42.8963V43.0927C26.5844 43.2891 26.2875 43.4402 25.9906 43.5762C25.6938 43.6971 25.382 43.8029 25.0703 43.8784C24.7586 43.954 24.4469 43.9993 24.1352 44.0144C23.8234 44.0295 23.5266 44.0446 23.2297 44.0446C22.6508 44.0446 22.1164 43.9691 21.6414 43.818C21.1664 43.6669 20.7508 43.4553 20.4242 43.1531C20.0828 42.8661 19.8156 42.5034 19.6375 42.0954C19.4445 41.6724 19.3555 41.204 19.3555 40.6751C19.3555 40.1463 19.4445 39.6628 19.6375 39.2548C19.8305 38.8317 20.0828 38.4842 20.4242 38.182C20.7656 37.8798 21.1664 37.6682 21.6414 37.502C22.1164 37.3509 22.6508 37.2754 23.2297 37.2754C23.6008 37.2754 23.9422 37.3056 24.2688 37.3509C24.5953 37.3963 24.8922 37.4567 25.1445 37.5171C25.3969 37.5776 25.6195 37.638 25.7828 37.6985C25.9461 37.7589 26.0648 37.774 26.0945 37.774C26.1688 37.774 26.2281 37.7589 26.2727 37.7287C26.3172 37.6985 26.3617 37.6682 26.3914 37.638L26.5398 37.7287L25.7977 39.3606Z" fill="#262427"/>
<path d="M29.2563 43.7274C29.3602 43.7123 29.4492 43.6518 29.5086 43.5612C29.568 43.4705 29.6273 43.3647 29.6867 43.2439L31.9875 38.3331C32.0469 38.2274 32.0914 38.1216 32.1359 38.0309C32.1805 37.9403 32.2102 37.8647 32.2102 37.7892C32.2102 37.6985 32.1805 37.6532 32.1211 37.6079C32.0617 37.5776 32.0023 37.5474 31.9281 37.5323V37.3057H34.0211V37.5323C33.9617 37.5474 33.9023 37.5776 33.843 37.6079C33.7836 37.6381 33.7539 37.6985 33.7539 37.7892C33.7539 37.8496 33.7688 37.9252 33.7984 37.9856C33.8281 38.046 33.8727 38.1367 33.932 38.2576L36.5148 43.395C36.5594 43.4856 36.6188 43.5612 36.6781 43.5914C36.7523 43.6367 36.8266 43.682 36.9156 43.7123V43.9389H34.7336V43.7123C34.7633 43.7123 34.8078 43.6971 34.8523 43.6669C34.8969 43.6367 34.9266 43.6065 34.9266 43.5461C34.9266 43.4554 34.8969 43.3496 34.8227 43.2136L34.3477 42.2768H31.3195L30.8742 43.1683C30.7852 43.3496 30.7555 43.4705 30.7555 43.5461C30.7555 43.6367 30.8297 43.682 30.993 43.682V43.9087H29.2266V43.7274H29.2563ZM33.932 41.3853L32.893 39.0282L31.7203 41.3853H33.932Z" fill="#262427"/>
<path d="M43.759 37.3056C44.1598 37.3056 44.516 37.3358 44.8426 37.4114C45.1691 37.4869 45.4363 37.5927 45.6738 37.7589C45.9113 37.91 46.0894 38.1215 46.2082 38.3633C46.3269 38.6051 46.4012 38.9224 46.4012 39.285C46.4012 39.8441 46.2379 40.2671 45.9113 40.5542C45.5848 40.8564 45.1543 41.0529 44.6051 41.1435L46.2527 43.546C46.3121 43.6367 46.3715 43.682 46.4605 43.6971C46.5348 43.7122 46.609 43.7273 46.6832 43.7273V43.954H44.3676V43.7273C44.4418 43.7273 44.5012 43.7122 44.5605 43.682C44.6199 43.6518 44.6348 43.6215 44.6348 43.5762C44.6348 43.5309 44.6199 43.4856 44.5902 43.4251C44.5605 43.3647 44.5012 43.2891 44.4418 43.1985L43.0762 41.2191H41.2949V43.4704C41.2949 43.546 41.3246 43.6064 41.3691 43.6367C41.4285 43.682 41.5176 43.6971 41.666 43.6971V43.9237H39.5137V43.6971C39.7512 43.6971 39.8699 43.6215 39.8699 43.4704V37.7287C39.8699 37.5776 39.7512 37.502 39.5137 37.502V37.2754H43.759V37.3056ZM43.4324 40.2671C43.7293 40.2671 43.9816 40.2369 44.1746 40.1916C44.3676 40.1463 44.5309 40.0858 44.6496 39.9952C44.7684 39.9045 44.8426 39.8139 44.902 39.693C44.9465 39.5721 44.9762 39.4512 44.9762 39.3152C44.9762 39.1792 44.9465 39.0584 44.902 38.9375C44.8574 38.8166 44.7684 38.7259 44.6496 38.6353C44.5309 38.5446 44.3824 38.4842 44.1746 38.4389C43.9816 38.3935 43.7293 38.3633 43.4324 38.3633H41.2801V40.2369H43.4324V40.2671Z" fill="#262427"/>
<path d="M53.7633 37.3057C54.2234 37.3057 54.6391 37.3661 55.0398 37.5021C55.4258 37.6381 55.7672 37.8345 56.0641 38.1216C56.3609 38.3936 56.5836 38.7411 56.7469 39.1642C56.9102 39.5873 56.9992 40.0708 56.9992 40.6298C56.9992 41.1889 56.9102 41.6875 56.7469 42.0955C56.5836 42.5186 56.3609 42.851 56.0641 43.1381C55.7672 43.4101 55.4258 43.6216 55.0398 43.7576C54.6539 43.8936 54.2234 43.954 53.7633 43.954H49.6367V43.7274C49.8297 43.7274 49.9187 43.6518 49.9187 43.5007V37.759C49.9187 37.6079 49.8297 37.5323 49.6367 37.5323V37.3057H53.7633ZM53.2734 42.8661C53.6594 42.8661 54.0008 42.8359 54.2977 42.7603C54.5945 42.6999 54.832 42.579 55.025 42.3977C55.218 42.2315 55.3516 41.9897 55.4555 41.7026C55.5445 41.4156 55.6039 41.0529 55.6039 40.6147C55.6039 40.1765 55.5594 39.8139 55.4555 39.5268C55.3664 39.2397 55.218 39.0131 55.025 38.8318C54.832 38.6656 54.5945 38.5447 54.2977 38.4691C54.0008 38.4087 53.6742 38.3634 53.2734 38.3634H51.3437V42.8359H53.2734V42.8661Z" fill="#262427"/>
<path d="M28.3688 0C19.6555 0 12.5898 7.19231 12.5898 16.0618C12.5898 18.5096 13.1242 20.8214 14.0891 22.8915C14.1484 22.8613 14.2227 22.8462 14.282 22.8159C14.3266 22.7706 14.3859 22.7253 14.4305 22.6799C13.5102 20.6703 12.9906 18.419 12.9906 16.0467C12.9906 7.40385 19.8781 0.407967 28.3688 0.407967C36.8594 0.407967 43.7469 7.41896 43.7469 16.0618C43.7469 18.4643 43.2125 20.7308 42.2625 22.7706C42.3664 22.8613 42.4703 22.9519 42.5742 23.0426C43.5836 20.9272 44.1477 18.5701 44.1477 16.0618C44.1328 7.19231 37.082 0 28.3688 0Z" fill="url(#paint0_linear_5_316)"/>
<path d="M44.207 26.7139V31.2619C44.7117 31.5037 45.2164 31.7606 45.7063 32.0325V27.7716C45.2016 27.424 44.7117 27.0765 44.207 26.7139Z" fill="url(#paint1_linear_5_316)"/>
<path d="M41.832 30.2044C42.218 30.3706 42.6188 30.5217 43.0047 30.703V25.8074C42.6039 25.5052 42.218 25.1879 41.832 24.8555V30.2044Z" fill="url(#paint2_linear_5_316)"/>
<path d="M39.4707 29.328C39.8566 29.4489 40.2426 29.5849 40.6285 29.7209V23.7676C40.2426 23.4201 39.8566 23.0574 39.4707 22.6797V29.328Z" fill="url(#paint3_linear_5_316)"/>
<path d="M37.125 28.6482C37.5109 28.7388 37.882 28.8446 38.268 28.9655V21.4861C37.882 21.0781 37.5109 20.6701 37.125 20.2471V28.6482Z" fill="url(#paint4_linear_5_316)"/>
<path d="M18.1836 28.9656C18.5695 28.8598 18.9555 28.7389 19.3562 28.6483V20.3076C18.9703 20.7307 18.5844 21.1538 18.1836 21.5617V28.9656Z" fill="url(#paint5_linear_5_316)"/>
<path d="M15.8398 29.7362C16.2109 29.6002 16.5969 29.4642 16.9828 29.3433V22.7705C16.6117 23.1331 16.2258 23.4807 15.8398 23.8282V29.7362Z" fill="url(#paint6_linear_5_316)"/>
<path d="M13.4492 30.703C13.8352 30.5368 14.2359 30.3706 14.6219 30.2044V24.8857C14.2359 25.203 13.8352 25.5204 13.4492 25.8377V30.703Z" fill="url(#paint7_linear_5_316)"/>
<path d="M10.748 32.0175C11.2379 31.7455 11.7426 31.5038 12.2473 31.2469V26.7441C11.7574 27.1068 11.2527 27.4543 10.748 27.7867V32.0175Z" fill="url(#paint8_linear_5_316)"/>
<path d="M25.2949 27.8173C26.5715 27.651 28.7387 27.5151 31.173 27.8324C29.0949 25.173 28.234 23.3447 28.234 23.3447C28.234 23.3447 27.3582 25.1579 25.2949 27.8173Z" fill="#CA973B"/>
<path d="M34.75 26.7743C35.1359 27.1369 35.5367 27.4844 35.9227 27.8169V18.8265C35.5219 18.343 35.1359 17.8443 34.75 17.3457V26.7743Z" fill="url(#paint9_linear_5_316)"/>
<path d="M32.3906 24.4174C32.7617 24.8254 33.1625 25.2334 33.5484 25.6262V15.6839C33.1477 15.1098 32.7617 14.5356 32.3906 13.9463V24.4174Z" fill="url(#paint10_linear_5_316)"/>
<path d="M30.0586 21.5467C30.4148 22.0454 30.7859 22.544 31.1719 23.0275V11.9519C30.7859 11.2871 30.4148 10.6072 30.0586 9.91211V21.5467Z" fill="url(#paint11_linear_5_316)"/>
<path d="M28.8574 19.5975V7.46429C28.4121 6.48215 27.9816 5.50001 27.5957 4.47253V19.6429C27.8332 19.2047 28.0559 18.7665 28.2488 18.3283C28.4121 18.7514 28.6199 19.1745 28.8574 19.5975Z" fill="#CA973B"/>
<path d="M26.3773 10.1387C26.0062 10.8337 25.6203 11.5288 25.2344 12.2087V23.0878C25.6352 22.5892 26.0211 22.0906 26.3773 21.5769V10.1387Z" fill="url(#paint12_linear_5_316)"/>
<path d="M22.9199 25.6264C23.291 25.2486 23.6621 24.8709 24.0332 24.478V14.1731C23.677 14.7322 23.3059 15.2761 22.9199 15.8201V25.6264Z" fill="url(#paint13_linear_5_316)"/>
<path d="M20.5586 27.8024C20.9445 27.47 21.3305 27.1376 21.7016 26.7901V17.4521C21.3305 17.9357 20.9445 18.4192 20.5586 18.8876V27.8024Z" fill="url(#paint14_linear_5_316)"/>
<defs>
<linearGradient id="paint0_linear_5_316" x1="10.7205" y1="11.5181" x2="45.6668" y2="11.5181" gradientUnits="userSpaceOnUse">
<stop stop-color="#FEE3B2"/>
<stop offset="1" stop-color="#BE8D34"/>
</linearGradient>
<linearGradient id="paint1_linear_5_316" x1="10.7205" y1="29.365" x2="45.6668" y2="29.365" gradientUnits="userSpaceOnUse">
<stop stop-color="#FEE3B2"/>
<stop offset="1" stop-color="#BE8D34"/>
</linearGradient>
<linearGradient id="paint2_linear_5_316" x1="10.7204" y1="27.7706" x2="45.6669" y2="27.7706" gradientUnits="userSpaceOnUse">
<stop stop-color="#FEE3B2"/>
<stop offset="1" stop-color="#BE8D34"/>
</linearGradient>
<linearGradient id="paint3_linear_5_316" x1="10.7193" y1="26.216" x2="45.6657" y2="26.216" gradientUnits="userSpaceOnUse">
<stop stop-color="#FEE3B2"/>
<stop offset="1" stop-color="#BE8D34"/>
</linearGradient>
<linearGradient id="paint4_linear_5_316" x1="10.719" y1="24.6018" x2="45.6653" y2="24.6018" gradientUnits="userSpaceOnUse">
<stop stop-color="#FEE3B2"/>
<stop offset="1" stop-color="#BE8D34"/>
</linearGradient>
<linearGradient id="paint5_linear_5_316" x1="10.7182" y1="24.6359" x2="45.6645" y2="24.6359" gradientUnits="userSpaceOnUse">
<stop stop-color="#FEE3B2"/>
<stop offset="1" stop-color="#BE8D34"/>
</linearGradient>
<linearGradient id="paint6_linear_5_316" x1="10.7198" y1="26.2516" x2="45.6661" y2="26.2516" gradientUnits="userSpaceOnUse">
<stop stop-color="#FEE3B2"/>
<stop offset="1" stop-color="#BE8D34"/>
</linearGradient>
<linearGradient id="paint7_linear_5_316" x1="10.719" y1="27.7906" x2="45.6653" y2="27.7906" gradientUnits="userSpaceOnUse">
<stop stop-color="#FEE3B2"/>
<stop offset="1" stop-color="#BE8D34"/>
</linearGradient>
<linearGradient id="paint8_linear_5_316" x1="10.7194" y1="29.3815" x2="45.6657" y2="29.3815" gradientUnits="userSpaceOnUse">
<stop stop-color="#FEE3B2"/>
<stop offset="1" stop-color="#BE8D34"/>
</linearGradient>
<linearGradient id="paint9_linear_5_316" x1="10.719" y1="22.5794" x2="45.6653" y2="22.5794" gradientUnits="userSpaceOnUse">
<stop stop-color="#FEE3B2"/>
<stop offset="1" stop-color="#BE8D34"/>
</linearGradient>
<linearGradient id="paint10_linear_5_316" x1="10.7198" y1="19.7859" x2="45.6661" y2="19.7859" gradientUnits="userSpaceOnUse">
<stop stop-color="#FEE3B2"/>
<stop offset="1" stop-color="#BE8D34"/>
</linearGradient>
<linearGradient id="paint11_linear_5_316" x1="10.7182" y1="16.4675" x2="45.6645" y2="16.4675" gradientUnits="userSpaceOnUse">
<stop stop-color="#FEE3B2"/>
<stop offset="1" stop-color="#BE8D34"/>
</linearGradient>
<linearGradient id="paint12_linear_5_316" x1="10.7182" y1="16.6159" x2="45.6645" y2="16.6159" gradientUnits="userSpaceOnUse">
<stop stop-color="#FEE3B2"/>
<stop offset="1" stop-color="#BE8D34"/>
</linearGradient>
<linearGradient id="paint13_linear_5_316" x1="10.7194" y1="19.8991" x2="45.6657" y2="19.8991" gradientUnits="userSpaceOnUse">
<stop stop-color="#FEE3B2"/>
<stop offset="1" stop-color="#BE8D34"/>
</linearGradient>
<linearGradient id="paint14_linear_5_316" x1="10.7182" y1="22.6308" x2="45.6645" y2="22.6308" gradientUnits="userSpaceOnUse">
<stop stop-color="#FEE3B2"/>
<stop offset="1" stop-color="#BE8D34"/>
</linearGradient>
</defs>
</svg>
